<?xml version="1.0" encoding="utf-8"?>
<svg xmlns="http://www.w3.org/2000/svg" xmlns:xlink="http://www.w3.org/1999/xlink" width="600" height="300" viewBox="0 0 2400 1200">
<defs>
  <clipPath id="clip140">
    <rect x="0" y="0" width="2400" height="1200"/>
  </clipPath>
</defs>
<path clip-path="url(#clip140)" d="
M0 1200 L2400 1200 L2400 0 L0 0  Z
  " fill="#ffffff" fill-rule="evenodd" fill-opacity="1"/>
<defs>
  <clipPath id="clip141">
    <rect x="480" y="0" width="1681" height="1200"/>
  </clipPath>
</defs>
<path clip-path="url(#clip140)" d="
M239.492 1038.49 L1178.45 1038.49 L1178.45 215.392 L239.492 215.392  Z
  " fill="#ffffff" fill-rule="evenodd" fill-opacity="1"/>
<defs>
  <clipPath id="clip142">
    <rect x="239" y="215" width="940" height="824"/>
  </clipPath>
</defs>
<polyline clip-path="url(#clip142)" style="stroke:#000000; stroke-linecap:butt; stroke-linejoin:round; stroke-width:2; stroke-opacity:0.1; fill:none" points="
  266.066,1038.49 266.066,215.392 
  "/>
<polyline clip-path="url(#clip142)" style="stroke:#000000; stroke-linecap:butt; stroke-linejoin:round; stroke-width:2; stroke-opacity:0.1; fill:none" points="
  561.336,1038.49 561.336,215.392 
  "/>
<polyline clip-path="url(#clip142)" style="stroke:#000000; stroke-linecap:butt; stroke-linejoin:round; stroke-width:2; stroke-opacity:0.1; fill:none" points="
  856.606,1038.49 856.606,215.392 
  "/>
<polyline clip-path="url(#clip142)" style="stroke:#000000; stroke-linecap:butt; stroke-linejoin:round; stroke-width:2; stroke-opacity:0.1; fill:none" points="
  1151.88,1038.49 1151.88,215.392 
  "/>
<polyline clip-path="url(#clip140)" style="stroke:#000000; stroke-linecap:butt; stroke-linejoin:round; stroke-width:4; stroke-opacity:1; fill:none" points="
  239.492,1038.49 1178.45,1038.49 
  "/>
<polyline clip-path="url(#clip140)" style="stroke:#000000; stroke-linecap:butt; stroke-linejoin:round; stroke-width:4; stroke-opacity:1; fill:none" points="
  266.066,1038.49 266.066,1019.59 
  "/>
<polyline clip-path="url(#clip140)" style="stroke:#000000; stroke-linecap:butt; stroke-linejoin:round; stroke-width:4; stroke-opacity:1; fill:none" points="
  561.336,1038.49 561.336,1019.59 
  "/>
<polyline clip-path="url(#clip140)" style="stroke:#000000; stroke-linecap:butt; stroke-linejoin:round; stroke-width:4; stroke-opacity:1; fill:none" points="
  856.606,1038.49 856.606,1019.59 
  "/>
<polyline clip-path="url(#clip140)" style="stroke:#000000; stroke-linecap:butt; stroke-linejoin:round; stroke-width:4; stroke-opacity:1; fill:none" points="
  1151.88,1038.49 1151.88,1019.59 
  "/>
<path clip-path="url(#clip140)" d="M231.059 1112.61 L238.698 1112.61 L238.698 1086.25 L230.387 1087.91 L230.387 1083.65 L238.651 1081.99 L243.327 1081.99 L243.327 1112.61 L250.966 1112.61 L250.966 1116.55 L231.059 1116.55 L231.059 1112.61 Z" fill="#000000" fill-rule="evenodd" fill-opacity="1" /><path clip-path="url(#clip140)" d="M270.41 1085.07 Q266.799 1085.07 264.971 1088.63 Q263.165 1092.17 263.165 1099.3 Q263.165 1106.41 264.971 1109.97 Q266.799 1113.52 270.41 1113.52 Q274.045 1113.52 275.85 1109.97 Q277.679 1106.41 277.679 1099.3 Q277.679 1092.17 275.85 1088.63 Q274.045 1085.07 270.41 1085.07 M270.41 1081.36 Q276.22 1081.36 279.276 1085.97 Q282.355 1090.55 282.355 1099.3 Q282.355 1108.03 279.276 1112.64 Q276.22 1117.22 270.41 1117.22 Q264.6 1117.22 261.521 1112.64 Q258.466 1108.03 258.466 1099.3 Q258.466 1090.55 261.521 1085.97 Q264.6 1081.36 270.41 1081.36 Z" fill="#000000" fill-rule="evenodd" fill-opacity="1" /><path clip-path="url(#clip140)" d="M292.379 1073.58 Q289.821 1073.58 288.317 1075.33 Q286.831 1077.08 286.831 1080.13 Q286.831 1083.16 288.317 1084.92 Q289.821 1086.67 292.379 1086.67 Q294.937 1086.67 296.423 1084.92 Q297.928 1083.16 297.928 1080.13 Q297.928 1077.08 296.423 1075.33 Q294.937 1073.58 292.379 1073.58 M299.921 1061.68 L299.921 1065.14 Q298.492 1064.46 297.025 1064.1 Q295.577 1063.75 294.147 1063.75 Q290.386 1063.75 288.392 1066.29 Q286.417 1068.82 286.135 1073.96 Q287.245 1072.32 288.919 1071.46 Q290.593 1070.57 292.605 1070.57 Q296.837 1070.57 299.282 1073.15 Q301.746 1075.71 301.746 1080.13 Q301.746 1084.45 299.188 1087.07 Q296.63 1089.68 292.379 1089.68 Q287.508 1089.68 284.931 1085.96 Q282.355 1082.22 282.355 1075.13 Q282.355 1068.47 285.514 1064.52 Q288.674 1060.55 293.997 1060.55 Q295.426 1060.55 296.874 1060.83 Q298.341 1061.11 299.921 1061.68 Z" fill="#000000" fill-rule="evenodd" fill-opacity="1" /><path clip-path="url(#clip140)" d="M526.996 1112.61 L534.635 1112.61 L534.635 1086.25 L526.325 1087.91 L526.325 1083.65 L534.589 1081.99 L539.265 1081.99 L539.265 1112.61 L546.903 1112.61 L546.903 1116.55 L526.996 1116.55 L526.996 1112.61 Z" fill="#000000" fill-rule="evenodd" fill-opacity="1" /><path clip-path="url(#clip140)" d="M566.348 1085.07 Q562.737 1085.07 560.908 1088.63 Q559.102 1092.17 559.102 1099.3 Q559.102 1106.41 560.908 1109.97 Q562.737 1113.52 566.348 1113.52 Q569.982 1113.52 571.788 1109.97 Q573.616 1106.41 573.616 1099.3 Q573.616 1092.17 571.788 1088.63 Q569.982 1085.07 566.348 1085.07 M566.348 1081.36 Q572.158 1081.36 575.213 1085.97 Q578.292 1090.55 578.292 1099.3 Q578.292 1108.03 575.213 1112.64 Q572.158 1117.22 566.348 1117.22 Q560.538 1117.22 557.459 1112.64 Q554.403 1108.03 554.403 1099.3 Q554.403 1090.55 557.459 1085.97 Q560.538 1081.36 566.348 1081.36 Z" fill="#000000" fill-rule="evenodd" fill-opacity="1" /><path clip-path="url(#clip140)" d="M578.292 1061.06 L596.348 1061.06 L596.348 1062.67 L586.154 1089.14 L582.185 1089.14 L591.777 1064.25 L578.292 1064.25 L578.292 1061.06 Z" fill="#000000" fill-rule="evenodd" fill-opacity="1" /><path clip-path="url(#clip140)" d="M821.664 1112.61 L829.303 1112.61 L829.303 1086.25 L820.993 1087.91 L820.993 1083.65 L829.257 1081.99 L833.932 1081.99 L833.932 1112.61 L841.571 1112.61 L841.571 1116.55 L821.664 1116.55 L821.664 1112.61 Z" fill="#000000" fill-rule="evenodd" fill-opacity="1" /><path clip-path="url(#clip140)" d="M861.016 1085.07 Q857.405 1085.07 855.576 1088.63 Q853.77 1092.17 853.77 1099.3 Q853.77 1106.41 855.576 1109.97 Q857.405 1113.52 861.016 1113.52 Q864.65 1113.52 866.455 1109.97 Q868.284 1106.41 868.284 1099.3 Q868.284 1092.17 866.455 1088.63 Q864.65 1085.07 861.016 1085.07 M861.016 1081.36 Q866.826 1081.36 869.881 1085.97 Q872.96 1090.55 872.96 1099.3 Q872.96 1108.03 869.881 1112.64 Q866.826 1117.22 861.016 1117.22 Q855.205 1117.22 852.127 1112.64 Q849.071 1108.03 849.071 1099.3 Q849.071 1090.55 852.127 1085.97 Q855.205 1081.36 861.016 1081.36 Z" fill="#000000" fill-rule="evenodd" fill-opacity="1" /><path clip-path="url(#clip140)" d="M882.59 1075.8 Q879.881 1075.8 878.32 1077.25 Q876.778 1078.7 876.778 1081.24 Q876.778 1083.78 878.32 1085.23 Q879.881 1086.67 882.59 1086.67 Q885.298 1086.67 886.859 1085.23 Q888.42 1083.76 888.42 1081.24 Q888.42 1078.7 886.859 1077.25 Q885.317 1075.8 882.59 1075.8 M878.79 1074.18 Q876.345 1073.58 874.972 1071.91 Q873.618 1070.24 873.618 1067.83 Q873.618 1064.46 876.007 1062.51 Q878.414 1060.55 882.59 1060.55 Q886.784 1060.55 889.172 1062.51 Q891.561 1064.46 891.561 1067.83 Q891.561 1070.24 890.188 1071.91 Q888.834 1073.58 886.408 1074.18 Q889.153 1074.82 890.677 1076.69 Q892.219 1078.55 892.219 1081.24 Q892.219 1085.32 889.718 1087.5 Q887.235 1089.68 882.59 1089.68 Q877.944 1089.68 875.443 1087.5 Q872.96 1085.32 872.96 1081.24 Q872.96 1078.55 874.502 1076.69 Q876.044 1074.82 878.79 1074.18 M877.399 1068.19 Q877.399 1070.37 878.753 1071.59 Q880.126 1072.81 882.59 1072.81 Q885.035 1072.81 886.408 1071.59 Q887.799 1070.37 887.799 1068.19 Q887.799 1066 886.408 1064.78 Q885.035 1063.56 882.59 1063.56 Q880.126 1063.56 878.753 1064.78 Q877.399 1066 877.399 1068.19 Z" fill="#000000" fill-rule="evenodd" fill-opacity="1" /><path clip-path="url(#clip140)" d="M1116.88 1112.61 L1124.52 1112.61 L1124.52 1086.25 L1116.21 1087.91 L1116.21 1083.65 L1124.47 1081.99 L1129.15 1081.99 L1129.15 1112.61 L1136.78 1112.61 L1136.78 1116.55 L1116.88 1116.55 L1116.88 1112.61 Z" fill="#000000" fill-rule="evenodd" fill-opacity="1" /><path clip-path="url(#clip140)" d="M1156.23 1085.07 Q1152.62 1085.07 1150.79 1088.63 Q1148.98 1092.17 1148.98 1099.3 Q1148.98 1106.41 1150.79 1109.97 Q1152.62 1113.52 1156.23 1113.52 Q1159.86 1113.52 1161.67 1109.97 Q1163.5 1106.41 1163.5 1099.3 Q1163.5 1092.17 1161.67 1088.63 Q1159.86 1085.07 1156.23 1085.07 M1156.23 1081.36 Q1162.04 1081.36 1165.09 1085.97 Q1168.17 1090.55 1168.17 1099.3 Q1168.17 1108.03 1165.09 1112.64 Q1162.04 1117.22 1156.23 1117.22 Q1150.42 1117.22 1147.34 1112.64 Q1144.28 1108.03 1144.28 1099.3 Q1144.28 1090.55 1147.34 1085.97 Q1150.42 1081.36 1156.23 1081.36 Z" fill="#000000" fill-rule="evenodd" fill-opacity="1" /><path clip-path="url(#clip140)" d="M1169.98 1088.55 L1169.98 1085.09 Q1171.41 1085.77 1172.88 1086.13 Q1174.34 1086.49 1175.75 1086.49 Q1179.51 1086.49 1181.49 1083.96 Q1183.48 1081.43 1183.76 1076.27 Q1182.67 1077.89 1181 1078.76 Q1179.33 1079.62 1177.3 1079.62 Q1173.08 1079.62 1170.62 1077.08 Q1168.17 1074.52 1168.17 1070.1 Q1168.17 1065.78 1170.73 1063.16 Q1173.29 1060.55 1177.54 1060.55 Q1182.41 1060.55 1184.97 1064.29 Q1187.55 1068.02 1187.55 1075.13 Q1187.55 1081.76 1184.39 1085.73 Q1181.24 1089.68 1175.92 1089.68 Q1174.49 1089.68 1173.03 1089.4 Q1171.56 1089.12 1169.98 1088.55 M1177.54 1076.65 Q1180.1 1076.65 1181.58 1074.9 Q1183.09 1073.15 1183.09 1070.1 Q1183.09 1067.08 1181.58 1065.33 Q1180.1 1063.56 1177.54 1063.56 Q1174.98 1063.56 1173.48 1065.33 Q1171.99 1067.08 1171.99 1070.1 Q1171.99 1073.15 1173.48 1074.9 Q1174.98 1076.65 1177.54 1076.65 Z" fill="#000000" fill-rule="evenodd" fill-opacity="1" /><path clip-path="url(#clip140)" d="M723.899 1180.26 L723.899 1201.78 L718.042 1201.78 L718.042 1180.45 Q718.042 1175.39 716.069 1172.88 Q714.095 1170.36 710.149 1170.36 Q705.406 1170.36 702.669 1173.39 Q699.932 1176.41 699.932 1181.63 L699.932 1201.78 L694.043 1201.78 L694.043 1166.13 L699.932 1166.13 L699.932 1171.67 Q702.032 1168.45 704.865 1166.86 Q707.73 1165.27 711.454 1165.27 Q717.597 1165.27 720.748 1169.09 Q723.899 1172.88 723.899 1180.26 Z" fill="#000000" fill-rule="evenodd" fill-opacity="1" /><polyline clip-path="url(#clip142)" style="stroke:#000000; stroke-linecap:butt; stroke-linejoin:round; stroke-width:2; stroke-opacity:0.1; fill:none" points="
  239.492,847.215 1178.45,847.215 
  "/>
<polyline clip-path="url(#clip142)" style="stroke:#000000; stroke-linecap:butt; stroke-linejoin:round; stroke-width:2; stroke-opacity:0.1; fill:none" points="
  239.492,675.354 1178.45,675.354 
  "/>
<polyline clip-path="url(#clip142)" style="stroke:#000000; stroke-linecap:butt; stroke-linejoin:round; stroke-width:2; stroke-opacity:0.1; fill:none" points="
  239.492,503.494 1178.45,503.494 
  "/>
<polyline clip-path="url(#clip142)" style="stroke:#000000; stroke-linecap:butt; stroke-linejoin:round; stroke-width:2; stroke-opacity:0.1; fill:none" points="
  239.492,331.633 1178.45,331.633 
  "/>
<polyline clip-path="url(#clip140)" style="stroke:#000000; stroke-linecap:butt; stroke-linejoin:round; stroke-width:4; stroke-opacity:1; fill:none" points="
  239.492,1038.49 239.492,215.392 
  "/>
<polyline clip-path="url(#clip140)" style="stroke:#000000; stroke-linecap:butt; stroke-linejoin:round; stroke-width:4; stroke-opacity:1; fill:none" points="
  239.492,847.215 258.39,847.215 
  "/>
<polyline clip-path="url(#clip140)" style="stroke:#000000; stroke-linecap:butt; stroke-linejoin:round; stroke-width:4; stroke-opacity:1; fill:none" points="
  239.492,675.354 258.39,675.354 
  "/>
<polyline clip-path="url(#clip140)" style="stroke:#000000; stroke-linecap:butt; stroke-linejoin:round; stroke-width:4; stroke-opacity:1; fill:none" points="
  239.492,503.494 258.39,503.494 
  "/>
<polyline clip-path="url(#clip140)" style="stroke:#000000; stroke-linecap:butt; stroke-linejoin:round; stroke-width:4; stroke-opacity:1; fill:none" points="
  239.492,331.633 258.39,331.633 
  "/>
<path clip-path="url(#clip140)" d="M103.352 867.007 L110.991 867.007 L110.991 840.642 L102.681 842.308 L102.681 838.049 L110.945 836.382 L115.621 836.382 L115.621 867.007 L123.26 867.007 L123.26 870.942 L103.352 870.942 L103.352 867.007 Z" fill="#000000" fill-rule="evenodd" fill-opacity="1" /><path clip-path="url(#clip140)" d="M142.704 839.461 Q139.093 839.461 137.264 843.026 Q135.459 846.567 135.459 853.697 Q135.459 860.803 137.264 864.368 Q139.093 867.91 142.704 867.91 Q146.338 867.91 148.144 864.368 Q149.972 860.803 149.972 853.697 Q149.972 846.567 148.144 843.026 Q146.338 839.461 142.704 839.461 M142.704 835.757 Q148.514 835.757 151.57 840.364 Q154.648 844.947 154.648 853.697 Q154.648 862.424 151.57 867.03 Q148.514 871.614 142.704 871.614 Q136.894 871.614 133.815 867.03 Q130.76 862.424 130.76 853.697 Q130.76 844.947 133.815 840.364 Q136.894 835.757 142.704 835.757 Z" fill="#000000" fill-rule="evenodd" fill-opacity="1" /><path clip-path="url(#clip140)" d="M154.648 829.859 L178.76 829.859 L178.76 833.056 L154.648 833.056 L154.648 829.859 Z" fill="#000000" fill-rule="evenodd" fill-opacity="1" /><path clip-path="url(#clip140)" d="M190.233 840.335 L203.492 840.335 L203.492 843.532 L185.662 843.532 L185.662 840.335 Q187.825 838.096 191.549 834.335 Q195.292 830.555 196.251 829.464 Q198.076 827.414 198.79 826.003 Q199.524 824.574 199.524 823.201 Q199.524 820.963 197.944 819.552 Q196.383 818.141 193.863 818.141 Q192.076 818.141 190.082 818.762 Q188.107 819.383 185.85 820.643 L185.85 816.806 Q188.145 815.884 190.139 815.414 Q192.132 814.944 193.787 814.944 Q198.151 814.944 200.746 817.126 Q203.342 819.307 203.342 822.956 Q203.342 824.686 202.683 826.248 Q202.044 827.79 200.332 829.896 Q199.862 830.442 197.342 833.056 Q194.822 835.651 190.233 840.335 Z" fill="#000000" fill-rule="evenodd" fill-opacity="1" /><path clip-path="url(#clip140)" d="M103.051 695.147 L110.69 695.147 L110.69 668.781 L102.38 670.448 L102.38 666.188 L110.644 664.522 L115.32 664.522 L115.32 695.147 L122.959 695.147 L122.959 699.082 L103.051 699.082 L103.051 695.147 Z" fill="#000000" fill-rule="evenodd" fill-opacity="1" /><path clip-path="url(#clip140)" d="M142.403 667.6 Q138.792 667.6 136.963 671.165 Q135.158 674.707 135.158 681.836 Q135.158 688.943 136.963 692.508 Q138.792 696.049 142.403 696.049 Q146.037 696.049 147.843 692.508 Q149.672 688.943 149.672 681.836 Q149.672 674.707 147.843 671.165 Q146.037 667.6 142.403 667.6 M142.403 663.897 Q148.213 663.897 151.269 668.503 Q154.347 673.087 154.347 681.836 Q154.347 690.563 151.269 695.17 Q148.213 699.753 142.403 699.753 Q136.593 699.753 133.514 695.17 Q130.459 690.563 130.459 681.836 Q130.459 673.087 133.514 668.503 Q136.593 663.897 142.403 663.897 Z" fill="#000000" fill-rule="evenodd" fill-opacity="1" /><path clip-path="url(#clip140)" d="M154.347 657.998 L178.459 657.998 L178.459 661.195 L154.347 661.195 L154.347 657.998 Z" fill="#000000" fill-rule="evenodd" fill-opacity="1" /><path clip-path="url(#clip140)" d="M187.317 668.474 L193.524 668.474 L193.524 647.052 L186.772 648.406 L186.772 644.946 L193.486 643.591 L197.286 643.591 L197.286 668.474 L203.492 668.474 L203.492 671.671 L187.317 671.671 L187.317 668.474 Z" fill="#000000" fill-rule="evenodd" fill-opacity="1" /><path clip-path="url(#clip140)" d="M132.787 523.286 L140.425 523.286 L140.425 496.92 L132.115 498.587 L132.115 494.328 L140.379 492.661 L145.055 492.661 L145.055 523.286 L152.694 523.286 L152.694 527.221 L132.787 527.221 L132.787 523.286 Z" fill="#000000" fill-rule="evenodd" fill-opacity="1" /><path clip-path="url(#clip140)" d="M172.138 495.74 Q168.527 495.74 166.698 499.305 Q164.893 502.846 164.893 509.976 Q164.893 517.082 166.698 520.647 Q168.527 524.189 172.138 524.189 Q175.772 524.189 177.578 520.647 Q179.407 517.082 179.407 509.976 Q179.407 502.846 177.578 499.305 Q175.772 495.74 172.138 495.74 M172.138 492.036 Q177.948 492.036 181.004 496.643 Q184.083 501.226 184.083 509.976 Q184.083 518.703 181.004 523.309 Q177.948 527.893 172.138 527.893 Q166.328 527.893 163.249 523.309 Q160.194 518.703 160.194 509.976 Q160.194 501.226 163.249 496.643 Q166.328 492.036 172.138 492.036 Z" fill="#000000" fill-rule="evenodd" fill-opacity="1" /><path clip-path="url(#clip140)" d="M193.787 474.232 Q190.853 474.232 189.368 477.129 Q187.901 480.006 187.901 485.799 Q187.901 491.573 189.368 494.469 Q190.853 497.347 193.787 497.347 Q196.74 497.347 198.207 494.469 Q199.693 491.573 199.693 485.799 Q199.693 480.006 198.207 477.129 Q196.74 474.232 193.787 474.232 M193.787 471.223 Q198.508 471.223 200.991 474.966 Q203.492 478.69 203.492 485.799 Q203.492 492.89 200.991 496.632 Q198.508 500.356 193.787 500.356 Q189.067 500.356 186.565 496.632 Q184.083 492.89 184.083 485.799 Q184.083 478.69 186.565 474.966 Q189.067 471.223 193.787 471.223 Z" fill="#000000" fill-rule="evenodd" fill-opacity="1" /><path clip-path="url(#clip140)" d="M135.476 351.426 L143.115 351.426 L143.115 325.06 L134.805 326.727 L134.805 322.467 L143.069 320.801 L147.744 320.801 L147.744 351.426 L155.383 351.426 L155.383 355.361 L135.476 355.361 L135.476 351.426 Z" fill="#000000" fill-rule="evenodd" fill-opacity="1" /><path clip-path="url(#clip140)" d="M174.828 323.879 Q171.217 323.879 169.388 327.444 Q167.582 330.986 167.582 338.115 Q167.582 345.222 169.388 348.787 Q171.217 352.328 174.828 352.328 Q178.462 352.328 180.267 348.787 Q182.096 345.222 182.096 338.115 Q182.096 330.986 180.267 327.444 Q178.462 323.879 174.828 323.879 M174.828 320.176 Q180.638 320.176 183.693 324.782 Q186.772 329.365 186.772 338.115 Q186.772 346.842 183.693 351.449 Q180.638 356.032 174.828 356.032 Q169.018 356.032 165.939 351.449 Q162.883 346.842 162.883 338.115 Q162.883 329.365 165.939 324.782 Q169.018 320.176 174.828 320.176 Z" fill="#000000" fill-rule="evenodd" fill-opacity="1" /><path clip-path="url(#clip140)" d="M187.317 324.753 L193.524 324.753 L193.524 303.331 L186.772 304.685 L186.772 301.224 L193.486 299.87 L197.286 299.87 L197.286 324.753 L203.492 324.753 L203.492 327.95 L187.317 327.95 L187.317 324.753 Z" fill="#000000" fill-rule="evenodd" fill-opacity="1" /><path clip-path="url(#clip140)" d="M6.35473 739.485 L16.4762 739.485 L16.4762 727.422 L21.0277 727.422 L21.0277 739.485 L40.3794 739.485 Q44.7399 739.485 45.9813 738.308 Q47.2226 737.098 47.2226 733.438 L47.2226 727.422 L52.1242 727.422 L52.1242 733.438 Q52.1242 740.218 49.6097 742.796 Q47.0634 745.374 40.3794 745.374 L21.0277 745.374 L21.0277 749.671 L16.4762 749.671 L16.4762 745.374 L6.35473 745.374 L6.35473 739.485 Z" fill="#000000" fill-rule="evenodd" fill-opacity="1" /><path clip-path="url(#clip140)" d="M16.4762 719.72 L16.4762 713.864 L52.1242 713.864 L52.1242 719.72 L16.4762 719.72 M2.59896 719.72 L2.59896 713.864 L10.015 713.864 L10.015 719.72 L2.59896 719.72 Z" fill="#000000" fill-rule="evenodd" fill-opacity="1" /><path clip-path="url(#clip140)" d="M23.3193 673.855 Q19.3726 671.659 17.4947 668.603 Q15.6168 665.548 15.6168 661.41 Q15.6168 655.84 19.5317 652.816 Q23.4148 649.793 30.6081 649.793 L52.1242 649.793 L52.1242 655.681 L30.799 655.681 Q25.6746 655.681 23.192 657.495 Q20.7094 659.309 20.7094 663.033 Q20.7094 667.585 23.7331 670.227 Q26.7568 672.868 31.9767 672.868 L52.1242 672.868 L52.1242 678.757 L30.799 678.757 Q25.6428 678.757 23.192 680.571 Q20.7094 682.385 20.7094 686.173 Q20.7094 690.661 23.7649 693.302 Q26.7886 695.944 31.9767 695.944 L52.1242 695.944 L52.1242 701.832 L16.4762 701.832 L16.4762 695.944 L22.0144 695.944 Q18.736 693.939 17.1764 691.138 Q15.6168 688.337 15.6168 684.486 Q15.6168 680.603 17.5902 677.897 Q19.5636 675.16 23.3193 673.855 Z" fill="#000000" fill-rule="evenodd" fill-opacity="1" /><path clip-path="url(#clip140)" d="M32.8361 607.62 L35.7006 607.62 L35.7006 634.547 Q41.7481 634.165 44.9309 630.918 Q48.0819 627.64 48.0819 621.815 Q48.0819 618.442 47.2544 615.291 Q46.4269 612.108 44.7718 608.988 L50.3099 608.988 Q51.6467 612.14 52.347 615.45 Q53.0472 618.76 53.0472 622.166 Q53.0472 630.696 48.0819 635.693 Q43.1167 640.658 34.6503 640.658 Q25.8974 640.658 20.7731 635.947 Q15.6168 631.205 15.6168 623.184 Q15.6168 615.991 20.2638 611.821 Q24.8789 607.62 32.8361 607.62 M31.1173 613.476 Q26.3112 613.54 23.4466 616.182 Q20.5821 618.792 20.5821 623.12 Q20.5821 628.022 23.3512 630.982 Q26.1202 633.91 31.1492 634.356 L31.1173 613.476 Z" fill="#000000" fill-rule="evenodd" fill-opacity="1" /><path clip-path="url(#clip140)" d="M2.59896 577.828 L2.59896 564.333 L7.15044 564.333 L7.15044 571.972 L56.1664 571.972 L56.1664 564.333 L60.7179 564.333 L60.7179 577.828 L2.59896 577.828 Z" fill="#000000" fill-rule="evenodd" fill-opacity="1" /><path clip-path="url(#clip140)" d="M17.5265 529.131 L23.0647 529.131 Q21.7916 531.613 21.155 534.287 Q20.5184 536.961 20.5184 539.825 Q20.5184 544.186 21.8552 546.382 Q23.192 548.546 25.8656 548.546 Q27.9026 548.546 29.0803 546.987 Q30.2261 545.427 31.2765 540.716 L31.7221 538.711 Q33.0589 532.473 35.5097 529.863 Q37.9286 527.221 42.2891 527.221 Q47.2544 527.221 50.1508 531.168 Q53.0472 535.083 53.0472 541.958 Q53.0472 544.822 52.4743 547.941 Q51.9332 551.029 50.8192 554.466 L44.7718 554.466 Q46.4587 551.22 47.318 548.069 Q48.1456 544.918 48.1456 541.83 Q48.1456 537.693 46.7451 535.465 Q45.3129 533.237 42.7347 533.237 Q40.3476 533.237 39.0745 534.86 Q37.8013 536.451 36.6237 541.894 L36.1462 543.931 Q35.0004 549.374 32.6451 551.793 Q30.258 554.212 26.1202 554.212 Q21.0913 554.212 18.3541 550.647 Q15.6168 547.082 15.6168 540.525 Q15.6168 537.279 16.0943 534.414 Q16.5717 531.55 17.5265 529.131 Z" fill="#000000" fill-rule="evenodd" fill-opacity="1" /><path clip-path="url(#clip140)" d="M2.59896 504.209 L60.7179 504.209 L60.7179 517.704 L56.1664 517.704 L56.1664 510.097 L7.15044 510.097 L7.15044 517.704 L2.59896 517.704 L2.59896 504.209 Z" fill="#000000" fill-rule="evenodd" fill-opacity="1" /><path clip-path="url(#clip140)" d="M515.54 140.677 L515.54 145.654 Q513.283 144.41 510.998 143.802 Q508.741 143.165 506.426 143.165 Q501.246 143.165 498.382 146.464 Q495.517 149.734 495.517 155.665 Q495.517 161.597 498.382 164.896 Q501.246 168.165 506.426 168.165 Q508.741 168.165 510.998 167.558 Q513.283 166.921 515.54 165.677 L515.54 170.596 Q513.312 171.637 510.911 172.158 Q508.538 172.679 505.847 172.679 Q498.527 172.679 494.215 168.078 Q489.904 163.478 489.904 155.665 Q489.904 147.737 494.244 143.194 Q498.613 138.652 506.194 138.652 Q508.654 138.652 510.998 139.172 Q513.341 139.664 515.54 140.677 Z" fill="#000000" fill-rule="evenodd" fill-opacity="1" /><path clip-path="url(#clip140)" d="M551.738 152.28 L551.738 171.84 L546.414 171.84 L546.414 152.454 Q546.414 147.853 544.62 145.567 Q542.826 143.281 539.238 143.281 Q534.927 143.281 532.438 146.03 Q529.95 148.779 529.95 153.524 L529.95 171.84 L524.597 171.84 L524.597 126.817 L529.95 126.817 L529.95 144.467 Q531.86 141.545 534.435 140.098 Q537.039 138.652 540.424 138.652 Q546.009 138.652 548.874 142.124 Q551.738 145.567 551.738 152.28 Z" fill="#000000" fill-rule="evenodd" fill-opacity="1" /><path clip-path="url(#clip140)" d="M561.807 159.051 L561.807 139.433 L567.132 139.433 L567.132 158.848 Q567.132 163.449 568.926 165.764 Q570.719 168.05 574.307 168.05 Q578.619 168.05 581.107 165.301 Q583.624 162.552 583.624 157.807 L583.624 139.433 L588.949 139.433 L588.949 171.84 L583.624 171.84 L583.624 166.863 Q581.686 169.815 579.111 171.261 Q576.564 172.679 573.179 172.679 Q567.594 172.679 564.701 169.207 Q561.807 165.735 561.807 159.051 M575.204 138.652 L575.204 138.652 Z" fill="#000000" fill-rule="evenodd" fill-opacity="1" /><path clip-path="url(#clip140)" d="M626.853 152.28 L626.853 171.84 L621.529 171.84 L621.529 152.454 Q621.529 147.853 619.735 145.567 Q617.941 143.281 614.353 143.281 Q610.042 143.281 607.554 146.03 Q605.065 148.779 605.065 153.524 L605.065 171.84 L599.712 171.84 L599.712 139.433 L605.065 139.433 L605.065 144.467 Q606.975 141.545 609.55 140.098 Q612.154 138.652 615.54 138.652 Q621.124 138.652 623.989 142.124 Q626.853 145.567 626.853 152.28 Z" fill="#000000" fill-rule="evenodd" fill-opacity="1" /><path clip-path="url(#clip140)" d="M637.27 126.817 L642.623 126.817 L642.623 153.408 L658.508 139.433 L665.308 139.433 L648.121 154.595 L666.031 171.84 L659.087 171.84 L642.623 156.013 L642.623 171.84 L637.27 171.84 L637.27 126.817 Z" fill="#000000" fill-rule="evenodd" fill-opacity="1" /><path clip-path="url(#clip140)" d="M692.449 140.388 L692.449 145.422 Q690.192 144.265 687.762 143.686 Q685.331 143.108 682.727 143.108 Q678.763 143.108 676.766 144.323 Q674.799 145.538 674.799 147.969 Q674.799 149.82 676.217 150.891 Q677.634 151.933 681.917 152.888 L683.74 153.293 Q689.411 154.508 691.784 156.736 Q694.185 158.935 694.185 162.899 Q694.185 167.413 690.597 170.046 Q687.038 172.679 680.788 172.679 Q678.184 172.679 675.349 172.158 Q672.542 171.666 669.417 170.654 L669.417 165.156 Q672.368 166.69 675.233 167.471 Q678.097 168.223 680.904 168.223 Q684.666 168.223 686.691 166.95 Q688.717 165.648 688.717 163.304 Q688.717 161.134 687.241 159.977 Q685.794 158.819 680.846 157.749 L678.994 157.315 Q674.046 156.273 671.847 154.132 Q669.648 151.962 669.648 148.2 Q669.648 143.628 672.889 141.14 Q676.13 138.652 682.09 138.652 Q685.042 138.652 687.646 139.086 Q690.25 139.52 692.449 140.388 Z" fill="#000000" fill-rule="evenodd" fill-opacity="1" /><path clip-path="url(#clip140)" d="M702.663 139.433 L707.987 139.433 L707.987 171.84 L702.663 171.84 L702.663 139.433 M702.663 126.817 L707.987 126.817 L707.987 133.559 L702.663 133.559 L702.663 126.817 Z" fill="#000000" fill-rule="evenodd" fill-opacity="1" /><path clip-path="url(#clip140)" d="M716.812 139.433 L742.102 139.433 L742.102 144.294 L722.079 167.587 L742.102 167.587 L742.102 171.84 L716.089 171.84 L716.089 166.979 L736.112 143.686 L716.812 143.686 L716.812 139.433 Z" fill="#000000" fill-rule="evenodd" fill-opacity="1" /><path clip-path="url(#clip140)" d="M777.952 154.305 L777.952 156.91 L753.473 156.91 Q753.82 162.407 756.772 165.301 Q759.752 168.165 765.047 168.165 Q768.114 168.165 770.979 167.413 Q773.872 166.661 776.708 165.156 L776.708 170.191 Q773.843 171.406 770.834 172.043 Q767.825 172.679 764.729 172.679 Q756.974 172.679 752.431 168.165 Q747.918 163.651 747.918 155.955 Q747.918 147.998 752.2 143.339 Q756.511 138.652 763.803 138.652 Q770.342 138.652 774.133 142.876 Q777.952 147.072 777.952 154.305 M772.628 152.743 Q772.57 148.374 770.169 145.77 Q767.796 143.165 763.861 143.165 Q759.405 143.165 756.714 145.683 Q754.052 148.2 753.647 152.772 L772.628 152.743 Z" fill="#000000" fill-rule="evenodd" fill-opacity="1" /><path clip-path="url(#clip140)" d="M788.05 164.491 L794.156 164.491 L794.156 171.84 L788.05 171.84 L788.05 164.491 M788.05 141.198 L794.156 141.198 L794.156 148.547 L788.05 148.547 L788.05 141.198 Z" fill="#000000" fill-rule="evenodd" fill-opacity="1" /><path clip-path="url(#clip140)" d="M827.257 166.921 L836.806 166.921 L836.806 133.964 L826.418 136.047 L826.418 130.723 L836.748 128.64 L842.593 128.64 L842.593 166.921 L852.142 166.921 L852.142 171.84 L827.257 171.84 L827.257 166.921 Z" fill="#000000" fill-rule="evenodd" fill-opacity="1" /><path clip-path="url(#clip140)" d="M890.915 154.305 L890.915 156.91 L866.435 156.91 Q866.783 162.407 869.734 165.301 Q872.714 168.165 878.009 168.165 Q881.077 168.165 883.941 167.413 Q886.835 166.661 889.67 165.156 L889.67 170.191 Q886.806 171.406 883.796 172.043 Q880.787 172.679 877.691 172.679 Q869.937 172.679 865.394 168.165 Q860.88 163.651 860.88 155.955 Q860.88 147.998 865.162 143.339 Q869.474 138.652 876.765 138.652 Q883.305 138.652 887.095 142.876 Q890.915 147.072 890.915 154.305 M885.59 152.743 Q885.533 148.374 883.131 145.77 Q880.758 143.165 876.823 143.165 Q872.367 143.165 869.676 145.683 Q867.014 148.2 866.609 152.772 L885.59 152.743 Z" fill="#000000" fill-rule="evenodd" fill-opacity="1" /><path clip-path="url(#clip140)" d="M913.629 147.911 Q909.693 147.911 907.379 150.602 Q905.093 153.293 905.093 157.98 Q905.093 162.639 907.379 165.359 Q909.693 168.05 913.629 168.05 Q917.564 168.05 919.85 165.359 Q922.164 162.639 922.164 157.98 Q922.164 153.293 919.85 150.602 Q917.564 147.911 913.629 147.911 M925.231 129.595 L925.231 134.919 Q923.032 133.877 920.775 133.327 Q918.547 132.778 916.348 132.778 Q910.561 132.778 907.494 136.684 Q904.456 140.59 904.022 148.489 Q905.729 145.972 908.304 144.641 Q910.88 143.281 913.976 143.281 Q920.486 143.281 924.248 147.245 Q928.038 151.18 928.038 157.98 Q928.038 164.635 924.103 168.657 Q920.168 172.679 913.629 172.679 Q906.134 172.679 902.17 166.95 Q898.206 161.192 898.206 150.283 Q898.206 140.04 903.067 133.964 Q907.928 127.859 916.117 127.859 Q918.316 127.859 920.544 128.293 Q922.801 128.727 925.231 129.595 Z" fill="#000000" fill-rule="evenodd" fill-opacity="1" /><polyline clip-path="url(#clip142)" style="stroke:#009af9; stroke-linecap:butt; stroke-linejoin:round; stroke-width:4; stroke-opacity:1; fill:none" points="
  266.066,965.698 561.336,842.434 856.606,676.881 1062.99,521.937 1151.88,442.429 
  "/>
<polyline clip-path="url(#clip142)" style="stroke:#e26f46; stroke-linecap:butt; stroke-linejoin:round; stroke-width:4; stroke-opacity:1; fill:none" points="
  266.066,808.259 561.336,732.513 856.606,612.702 1062.99,485.149 1151.88,244.397 
  "/>
<polyline clip-path="url(#clip142)" style="stroke:#3da44d; stroke-linecap:butt; stroke-linejoin:round; stroke-width:4; stroke-opacity:1; fill:none" points="
  266.066,1015.19 561.336,854.836 856.606,686.276 1062.99,566.176 1151.88,490.756 
  "/>
<path clip-path="url(#clip140)" d="
M270.791 450.189 L693.034 450.189 L693.034 242.829 L270.791 242.829  Z
  " fill="#ffffff" fill-rule="evenodd" fill-opacity="1"/>
<polyline clip-path="url(#clip140)" style="stroke:#000000; stroke-linecap:butt; stroke-linejoin:round; stroke-width:4; stroke-opacity:1; fill:none" points="
  270.791,450.189 693.034,450.189 693.034,242.829 270.791,242.829 270.791,450.189 
  "/>
<polyline clip-path="url(#clip140)" style="stroke:#009af9; stroke-linecap:butt; stroke-linejoin:round; stroke-width:4; stroke-opacity:1; fill:none" points="
  281.224,294.669 343.821,294.669 
  "/>
<path clip-path="url(#clip140)" d="M358.93 281.231 L358.93 308.106 L364.578 308.106 Q371.73 308.106 375.041 304.865 Q378.374 301.625 378.374 294.634 Q378.374 287.69 375.041 284.472 Q371.73 281.231 364.578 281.231 L358.93 281.231 M354.254 277.389 L363.86 277.389 Q373.906 277.389 378.605 281.578 Q383.304 285.745 383.304 294.634 Q383.304 303.569 378.582 307.759 Q373.86 311.949 363.86 311.949 L354.254 311.949 L354.254 277.389 Z" fill="#000000" fill-rule="evenodd" fill-opacity="1" /><path clip-path="url(#clip140)" d="M385.966 277.389 L415.202 277.389 L415.202 281.324 L402.934 281.324 L402.934 311.949 L398.235 311.949 L398.235 281.324 L385.966 281.324 L385.966 277.389 Z" fill="#000000" fill-rule="evenodd" fill-opacity="1" /><path clip-path="url(#clip140)" d="M423.466 298.916 Q418.304 298.916 416.314 300.097 Q414.323 301.277 414.323 304.125 Q414.323 306.393 415.804 307.736 Q417.309 309.055 419.878 309.055 Q423.42 309.055 425.55 306.555 Q427.702 304.032 427.702 299.865 L427.702 298.916 L423.466 298.916 M431.962 297.157 L431.962 311.949 L427.702 311.949 L427.702 308.013 Q426.244 310.375 424.068 311.509 Q421.892 312.62 418.744 312.62 Q414.763 312.62 412.402 310.398 Q410.064 308.152 410.064 304.402 Q410.064 300.027 412.98 297.805 Q415.92 295.583 421.73 295.583 L427.702 295.583 L427.702 295.166 Q427.702 292.227 425.758 290.629 Q423.837 289.009 420.341 289.009 Q418.119 289.009 416.013 289.541 Q413.906 290.074 411.962 291.139 L411.962 287.203 Q414.3 286.301 416.499 285.861 Q418.698 285.398 420.781 285.398 Q426.406 285.398 429.184 288.315 Q431.962 291.231 431.962 297.157 Z" fill="#000000" fill-rule="evenodd" fill-opacity="1" /><path clip-path="url(#clip140)" d="M459.346 299.009 Q459.346 294.31 457.401 291.648 Q455.48 288.963 452.1 288.963 Q448.721 288.963 446.776 291.648 Q444.855 294.31 444.855 299.009 Q444.855 303.708 446.776 306.393 Q448.721 309.055 452.1 309.055 Q455.48 309.055 457.401 306.393 Q459.346 303.708 459.346 299.009 M444.855 289.958 Q446.198 287.643 448.235 286.532 Q450.295 285.398 453.142 285.398 Q457.864 285.398 460.804 289.148 Q463.767 292.898 463.767 299.009 Q463.767 305.12 460.804 308.87 Q457.864 312.62 453.142 312.62 Q450.295 312.62 448.235 311.509 Q446.198 310.375 444.855 308.06 L444.855 311.949 L440.573 311.949 L440.573 275.93 L444.855 275.93 L444.855 289.958 Z" fill="#000000" fill-rule="evenodd" fill-opacity="1" /><path clip-path="url(#clip140)" d="M470.827 275.93 L475.086 275.93 L475.086 311.949 L470.827 311.949 L470.827 275.93 Z" fill="#000000" fill-rule="evenodd" fill-opacity="1" /><path clip-path="url(#clip140)" d="M506.174 297.921 L506.174 300.004 L486.591 300.004 Q486.869 304.402 489.23 306.717 Q491.614 309.009 495.85 309.009 Q498.304 309.009 500.595 308.407 Q502.91 307.805 505.179 306.601 L505.179 310.629 Q502.887 311.601 500.48 312.111 Q498.072 312.62 495.596 312.62 Q489.392 312.62 485.758 309.009 Q482.147 305.398 482.147 299.24 Q482.147 292.875 485.572 289.148 Q489.021 285.398 494.855 285.398 Q500.086 285.398 503.119 288.777 Q506.174 292.134 506.174 297.921 M501.915 296.671 Q501.869 293.176 499.947 291.092 Q498.049 289.009 494.901 289.009 Q491.336 289.009 489.184 291.023 Q487.054 293.037 486.73 296.694 L501.915 296.671 Z" fill="#000000" fill-rule="evenodd" fill-opacity="1" /><polyline clip-path="url(#clip140)" style="stroke:#e26f46; stroke-linecap:butt; stroke-linejoin:round; stroke-width:4; stroke-opacity:1; fill:none" points="
  281.224,346.509 343.821,346.509 
  "/>
<path clip-path="url(#clip140)" d="M358.93 333.071 L358.93 359.946 L364.578 359.946 Q371.73 359.946 375.041 356.705 Q378.374 353.465 378.374 346.474 Q378.374 339.53 375.041 336.312 Q371.73 333.071 364.578 333.071 L358.93 333.071 M354.254 329.229 L363.86 329.229 Q373.906 329.229 378.605 333.418 Q383.304 337.585 383.304 346.474 Q383.304 355.409 378.582 359.599 Q373.86 363.789 363.86 363.789 L354.254 363.789 L354.254 329.229 Z" fill="#000000" fill-rule="evenodd" fill-opacity="1" /><path clip-path="url(#clip140)" d="M402.355 350.756 Q397.193 350.756 395.203 351.937 Q393.212 353.117 393.212 355.965 Q393.212 358.233 394.693 359.576 Q396.198 360.895 398.767 360.895 Q402.309 360.895 404.439 358.395 Q406.591 355.872 406.591 351.705 L406.591 350.756 L402.355 350.756 M410.851 348.997 L410.851 363.789 L406.591 363.789 L406.591 359.853 Q405.133 362.215 402.957 363.349 Q400.781 364.46 397.633 364.46 Q393.652 364.46 391.291 362.238 Q388.953 359.992 388.953 356.242 Q388.953 351.867 391.869 349.645 Q394.809 347.423 400.619 347.423 L406.591 347.423 L406.591 347.006 Q406.591 344.067 404.647 342.469 Q402.726 340.849 399.23 340.849 Q397.008 340.849 394.902 341.381 Q392.795 341.914 390.851 342.979 L390.851 339.043 Q393.189 338.141 395.388 337.701 Q397.587 337.238 399.67 337.238 Q405.295 337.238 408.073 340.155 Q410.851 343.071 410.851 348.997 Z" fill="#000000" fill-rule="evenodd" fill-opacity="1" /><path clip-path="url(#clip140)" d="M436.151 338.627 L436.151 342.654 Q434.346 341.729 432.401 341.266 Q430.457 340.803 428.374 340.803 Q425.202 340.803 423.605 341.775 Q422.031 342.747 422.031 344.692 Q422.031 346.173 423.165 347.029 Q424.3 347.863 427.726 348.627 L429.184 348.951 Q433.721 349.923 435.619 351.705 Q437.54 353.465 437.54 356.636 Q437.54 360.247 434.67 362.353 Q431.823 364.46 426.823 364.46 Q424.739 364.46 422.471 364.043 Q420.226 363.65 417.726 362.84 L417.726 358.441 Q420.087 359.668 422.378 360.293 Q424.67 360.895 426.915 360.895 Q429.925 360.895 431.545 359.877 Q433.165 358.835 433.165 356.96 Q433.165 355.224 431.985 354.298 Q430.827 353.372 426.869 352.516 L425.388 352.168 Q421.429 351.335 419.67 349.622 Q417.911 347.886 417.911 344.877 Q417.911 341.219 420.503 339.229 Q423.096 337.238 427.864 337.238 Q430.225 337.238 432.309 337.585 Q434.392 337.932 436.151 338.627 Z" fill="#000000" fill-rule="evenodd" fill-opacity="1" /><path clip-path="url(#clip140)" d="M444.161 327.77 L448.443 327.77 L448.443 349.043 L461.151 337.863 L466.591 337.863 L452.841 349.992 L467.17 363.789 L461.614 363.789 L448.443 351.127 L448.443 363.789 L444.161 363.789 L444.161 327.77 Z" fill="#000000" fill-rule="evenodd" fill-opacity="1" /><polyline clip-path="url(#clip140)" style="stroke:#3da44d; stroke-linecap:butt; stroke-linejoin:round; stroke-width:4; stroke-opacity:1; fill:none" points="
  281.224,398.349 343.821,398.349 
  "/>
<path clip-path="url(#clip140)" d="M358.93 384.911 L358.93 411.786 L364.578 411.786 Q371.73 411.786 375.041 408.545 Q378.374 405.305 378.374 398.314 Q378.374 391.37 375.041 388.152 Q371.73 384.911 364.578 384.911 L358.93 384.911 M354.254 381.069 L363.86 381.069 Q373.906 381.069 378.605 385.258 Q383.304 389.425 383.304 398.314 Q383.304 407.249 378.582 411.439 Q373.86 415.629 363.86 415.629 L354.254 415.629 L354.254 381.069 Z" fill="#000000" fill-rule="evenodd" fill-opacity="1" /><path clip-path="url(#clip140)" d="M402.355 402.596 Q397.193 402.596 395.203 403.777 Q393.212 404.957 393.212 407.805 Q393.212 410.073 394.693 411.416 Q396.198 412.735 398.767 412.735 Q402.309 412.735 404.439 410.235 Q406.591 407.712 406.591 403.545 L406.591 402.596 L402.355 402.596 M410.851 400.837 L410.851 415.629 L406.591 415.629 L406.591 411.693 Q405.133 414.055 402.957 415.189 Q400.781 416.3 397.633 416.3 Q393.652 416.3 391.291 414.078 Q388.953 411.832 388.953 408.082 Q388.953 403.707 391.869 401.485 Q394.809 399.263 400.619 399.263 L406.591 399.263 L406.591 398.846 Q406.591 395.907 404.647 394.309 Q402.726 392.689 399.23 392.689 Q397.008 392.689 394.902 393.221 Q392.795 393.754 390.851 394.819 L390.851 390.883 Q393.189 389.981 395.388 389.541 Q397.587 389.078 399.67 389.078 Q405.295 389.078 408.073 391.995 Q410.851 394.911 410.851 400.837 Z" fill="#000000" fill-rule="evenodd" fill-opacity="1" /><path clip-path="url(#clip140)" d="M423.837 382.342 L423.837 389.703 L432.61 389.703 L432.61 393.013 L423.837 393.013 L423.837 407.087 Q423.837 410.258 424.693 411.161 Q425.573 412.064 428.235 412.064 L432.61 412.064 L432.61 415.629 L428.235 415.629 Q423.304 415.629 421.429 413.8 Q419.554 411.948 419.554 407.087 L419.554 393.013 L416.429 393.013 L416.429 389.703 L419.554 389.703 L419.554 382.342 L423.837 382.342 Z" fill="#000000" fill-rule="evenodd" fill-opacity="1" /><path clip-path="url(#clip140)" d="M449.994 402.596 Q444.832 402.596 442.841 403.777 Q440.85 404.957 440.85 407.805 Q440.85 410.073 442.332 411.416 Q443.837 412.735 446.406 412.735 Q449.948 412.735 452.077 410.235 Q454.23 407.712 454.23 403.545 L454.23 402.596 L449.994 402.596 M458.489 400.837 L458.489 415.629 L454.23 415.629 L454.23 411.693 Q452.772 414.055 450.596 415.189 Q448.42 416.3 445.272 416.3 Q441.29 416.3 438.929 414.078 Q436.591 411.832 436.591 408.082 Q436.591 403.707 439.508 401.485 Q442.448 399.263 448.258 399.263 L454.23 399.263 L454.23 398.846 Q454.23 395.907 452.286 394.309 Q450.364 392.689 446.869 392.689 Q444.647 392.689 442.54 393.221 Q440.434 393.754 438.489 394.819 L438.489 390.883 Q440.827 389.981 443.026 389.541 Q445.225 389.078 447.309 389.078 Q452.934 389.078 455.711 391.995 Q458.489 394.911 458.489 400.837 Z" fill="#000000" fill-rule="evenodd" fill-opacity="1" /><path clip-path="url(#clip140)" d="M467.448 381.069 L487.309 381.069 L487.309 385.004 L472.123 385.004 L472.123 395.189 L485.827 395.189 L485.827 399.124 L472.123 399.124 L472.123 415.629 L467.448 415.629 L467.448 381.069 Z" fill="#000000" fill-rule="evenodd" fill-opacity="1" /><path clip-path="url(#clip140)" d="M506.105 393.684 Q505.387 393.268 504.531 393.082 Q503.697 392.874 502.679 392.874 Q499.068 392.874 497.123 395.235 Q495.202 397.573 495.202 401.971 L495.202 415.629 L490.92 415.629 L490.92 389.703 L495.202 389.703 L495.202 393.731 Q496.545 391.37 498.697 390.235 Q500.85 389.078 503.929 389.078 Q504.369 389.078 504.901 389.147 Q505.433 389.194 506.082 389.309 L506.105 393.684 Z" fill="#000000" fill-rule="evenodd" fill-opacity="1" /><path clip-path="url(#clip140)" d="M522.355 402.596 Q517.193 402.596 515.202 403.777 Q513.211 404.957 513.211 407.805 Q513.211 410.073 514.693 411.416 Q516.197 412.735 518.767 412.735 Q522.308 412.735 524.438 410.235 Q526.591 407.712 526.591 403.545 L526.591 402.596 L522.355 402.596 M530.85 400.837 L530.85 415.629 L526.591 415.629 L526.591 411.693 Q525.132 414.055 522.956 415.189 Q520.781 416.3 517.632 416.3 Q513.651 416.3 511.29 414.078 Q508.952 411.832 508.952 408.082 Q508.952 403.707 511.869 401.485 Q514.808 399.263 520.619 399.263 L526.591 399.263 L526.591 398.846 Q526.591 395.907 524.646 394.309 Q522.725 392.689 519.23 392.689 Q517.007 392.689 514.901 393.221 Q512.794 393.754 510.85 394.819 L510.85 390.883 Q513.188 389.981 515.387 389.541 Q517.586 389.078 519.669 389.078 Q525.294 389.078 528.072 391.995 Q530.85 394.911 530.85 400.837 Z" fill="#000000" fill-rule="evenodd" fill-opacity="1" /><path clip-path="url(#clip140)" d="M559.808 394.68 Q561.405 391.809 563.628 390.444 Q565.85 389.078 568.859 389.078 Q572.91 389.078 575.109 391.925 Q577.308 394.749 577.308 399.981 L577.308 415.629 L573.026 415.629 L573.026 400.119 Q573.026 396.393 571.706 394.587 Q570.387 392.782 567.678 392.782 Q564.368 392.782 562.447 394.981 Q560.526 397.18 560.526 400.976 L560.526 415.629 L556.243 415.629 L556.243 400.119 Q556.243 396.369 554.924 394.587 Q553.604 392.782 550.85 392.782 Q547.586 392.782 545.665 395.004 Q543.743 397.203 543.743 400.976 L543.743 415.629 L539.461 415.629 L539.461 389.703 L543.743 389.703 L543.743 393.731 Q545.202 391.346 547.239 390.212 Q549.276 389.078 552.077 389.078 Q554.901 389.078 556.868 390.513 Q558.859 391.948 559.808 394.68 Z" fill="#000000" fill-rule="evenodd" fill-opacity="1" /><path clip-path="url(#clip140)" d="M607.979 401.601 L607.979 403.684 L588.396 403.684 Q588.674 408.082 591.035 410.397 Q593.419 412.689 597.655 412.689 Q600.109 412.689 602.4 412.087 Q604.715 411.485 606.984 410.281 L606.984 414.309 Q604.692 415.281 602.285 415.791 Q599.877 416.3 597.401 416.3 Q591.197 416.3 587.563 412.689 Q583.952 409.078 583.952 402.92 Q583.952 396.555 587.377 392.828 Q590.826 389.078 596.66 389.078 Q601.891 389.078 604.924 392.457 Q607.979 395.814 607.979 401.601 M603.72 400.351 Q603.674 396.856 601.752 394.772 Q599.854 392.689 596.706 392.689 Q593.141 392.689 590.989 394.703 Q588.859 396.717 588.535 400.374 L603.72 400.351 Z" fill="#000000" fill-rule="evenodd" fill-opacity="1" /><path clip-path="url(#clip140)" d="M631.498 390.467 L631.498 394.494 Q629.692 393.569 627.748 393.106 Q625.803 392.643 623.72 392.643 Q620.549 392.643 618.951 393.615 Q617.377 394.587 617.377 396.532 Q617.377 398.013 618.512 398.869 Q619.646 399.703 623.072 400.467 L624.53 400.791 Q629.067 401.763 630.965 403.545 Q632.886 405.305 632.886 408.476 Q632.886 412.087 630.016 414.193 Q627.169 416.3 622.169 416.3 Q620.086 416.3 617.817 415.883 Q615.572 415.49 613.072 414.68 L613.072 410.281 Q615.433 411.508 617.724 412.133 Q620.016 412.735 622.261 412.735 Q625.271 412.735 626.891 411.717 Q628.511 410.675 628.511 408.8 Q628.511 407.064 627.331 406.138 Q626.174 405.212 622.215 404.356 L620.734 404.008 Q616.775 403.175 615.016 401.462 Q613.257 399.726 613.257 396.717 Q613.257 393.059 615.849 391.069 Q618.442 389.078 623.211 389.078 Q625.572 389.078 627.655 389.425 Q629.738 389.772 631.498 390.467 Z" fill="#000000" fill-rule="evenodd" fill-opacity="1" /><path clip-path="url(#clip140)" d="M640.271 409.749 L645.155 409.749 L645.155 415.629 L640.271 415.629 L640.271 409.749 Z" fill="#000000" fill-rule="evenodd" fill-opacity="1" /><path clip-path="url(#clip140)" d="M654.738 389.703 L658.997 389.703 L658.997 416.092 Q658.997 421.045 657.099 423.267 Q655.224 425.49 651.034 425.49 L649.414 425.49 L649.414 421.879 L650.548 421.879 Q652.979 421.879 653.859 420.744 Q654.738 419.633 654.738 416.092 L654.738 389.703 M654.738 379.61 L658.997 379.61 L658.997 385.004 L654.738 385.004 L654.738 379.61 Z" fill="#000000" fill-rule="evenodd" fill-opacity="1" /><path clip-path="url(#clip140)" d="M667.909 379.61 L672.169 379.61 L672.169 415.629 L667.909 415.629 L667.909 379.61 Z" fill="#000000" fill-rule="evenodd" fill-opacity="1" /><path clip-path="url(#clip140)" d="
M1413.8 1038.49 L2352.76 1038.49 L2352.76 215.392 L1413.8 215.392  Z
  " fill="#ffffff" fill-rule="evenodd" fill-opacity="1"/>
<defs>
  <clipPath id="clip143">
    <rect x="1413" y="215" width="940" height="824"/>
  </clipPath>
</defs>
<polyline clip-path="url(#clip143)" style="stroke:#000000; stroke-linecap:butt; stroke-linejoin:round; stroke-width:2; stroke-opacity:0.1; fill:none" points="
  1440.37,1038.49 1440.37,215.392 
  "/>
<polyline clip-path="url(#clip143)" style="stroke:#000000; stroke-linecap:butt; stroke-linejoin:round; stroke-width:2; stroke-opacity:0.1; fill:none" points="
  1735.64,1038.49 1735.64,215.392 
  "/>
<polyline clip-path="url(#clip143)" style="stroke:#000000; stroke-linecap:butt; stroke-linejoin:round; stroke-width:2; stroke-opacity:0.1; fill:none" points="
  2030.91,1038.49 2030.91,215.392 
  "/>
<polyline clip-path="url(#clip143)" style="stroke:#000000; stroke-linecap:butt; stroke-linejoin:round; stroke-width:2; stroke-opacity:0.1; fill:none" points="
  2326.18,1038.49 2326.18,215.392 
  "/>
<polyline clip-path="url(#clip140)" style="stroke:#000000; stroke-linecap:butt; stroke-linejoin:round; stroke-width:4; stroke-opacity:1; fill:none" points="
  1413.8,1038.49 2352.76,1038.49 
  "/>
<polyline clip-path="url(#clip140)" style="stroke:#000000; stroke-linecap:butt; stroke-linejoin:round; stroke-width:4; stroke-opacity:1; fill:none" points="
  1440.37,1038.49 1440.37,1019.59 
  "/>
<polyline clip-path="url(#clip140)" style="stroke:#000000; stroke-linecap:butt; stroke-linejoin:round; stroke-width:4; stroke-opacity:1; fill:none" points="
  1735.64,1038.49 1735.64,1019.59 
  "/>
<polyline clip-path="url(#clip140)" style="stroke:#000000; stroke-linecap:butt; stroke-linejoin:round; stroke-width:4; stroke-opacity:1; fill:none" points="
  2030.91,1038.49 2030.91,1019.59 
  "/>
<polyline clip-path="url(#clip140)" style="stroke:#000000; stroke-linecap:butt; stroke-linejoin:round; stroke-width:4; stroke-opacity:1; fill:none" points="
  2326.18,1038.49 2326.18,1019.59 
  "/>
<path clip-path="url(#clip140)" d="M1405.36 1112.61 L1413 1112.61 L1413 1086.25 L1404.69 1087.91 L1404.69 1083.65 L1412.96 1081.99 L1417.63 1081.99 L1417.63 1112.61 L1425.27 1112.61 L1425.27 1116.55 L1405.36 1116.55 L1405.36 1112.61 Z" fill="#000000" fill-rule="evenodd" fill-opacity="1" /><path clip-path="url(#clip140)" d="M1444.72 1085.07 Q1441.11 1085.07 1439.28 1088.63 Q1437.47 1092.17 1437.47 1099.3 Q1437.47 1106.41 1439.28 1109.97 Q1441.11 1113.52 1444.72 1113.52 Q1448.35 1113.52 1450.16 1109.97 Q1451.98 1106.41 1451.98 1099.3 Q1451.98 1092.17 1450.16 1088.63 Q1448.35 1085.07 1444.72 1085.07 M1444.72 1081.36 Q1450.53 1081.36 1453.58 1085.97 Q1456.66 1090.55 1456.66 1099.3 Q1456.66 1108.03 1453.58 1112.64 Q1450.53 1117.22 1444.72 1117.22 Q1438.91 1117.22 1435.83 1112.64 Q1432.77 1108.03 1432.77 1099.3 Q1432.77 1090.55 1435.83 1085.97 Q1438.91 1081.36 1444.72 1081.36 Z" fill="#000000" fill-rule="evenodd" fill-opacity="1" /><path clip-path="url(#clip140)" d="M1466.69 1073.58 Q1464.13 1073.58 1462.62 1075.33 Q1461.14 1077.08 1461.14 1080.13 Q1461.14 1083.16 1462.62 1084.92 Q1464.13 1086.67 1466.69 1086.67 Q1469.24 1086.67 1470.73 1084.92 Q1472.23 1083.16 1472.23 1080.13 Q1472.23 1077.08 1470.73 1075.33 Q1469.24 1073.58 1466.69 1073.58 M1474.23 1061.68 L1474.23 1065.14 Q1472.8 1064.46 1471.33 1064.1 Q1469.88 1063.75 1468.45 1063.75 Q1464.69 1063.75 1462.7 1066.29 Q1460.72 1068.82 1460.44 1073.96 Q1461.55 1072.32 1463.22 1071.46 Q1464.9 1070.57 1466.91 1070.57 Q1471.14 1070.57 1473.59 1073.15 Q1476.05 1075.71 1476.05 1080.13 Q1476.05 1084.45 1473.49 1087.07 Q1470.94 1089.68 1466.69 1089.68 Q1461.81 1089.68 1459.24 1085.96 Q1456.66 1082.22 1456.66 1075.13 Q1456.66 1068.47 1459.82 1064.52 Q1462.98 1060.55 1468.3 1060.55 Q1469.73 1060.55 1471.18 1060.83 Q1472.65 1061.11 1474.23 1061.68 Z" fill="#000000" fill-rule="evenodd" fill-opacity="1" /><path clip-path="url(#clip140)" d="M1701.3 1112.61 L1708.94 1112.61 L1708.94 1086.25 L1700.63 1087.91 L1700.63 1083.65 L1708.89 1081.99 L1713.57 1081.99 L1713.57 1112.61 L1721.21 1112.61 L1721.21 1116.55 L1701.3 1116.55 L1701.3 1112.61 Z" fill="#000000" fill-rule="evenodd" fill-opacity="1" /><path clip-path="url(#clip140)" d="M1740.65 1085.07 Q1737.04 1085.07 1735.21 1088.63 Q1733.41 1092.17 1733.41 1099.3 Q1733.41 1106.41 1735.21 1109.97 Q1737.04 1113.52 1740.65 1113.52 Q1744.29 1113.52 1746.09 1109.97 Q1747.92 1106.41 1747.92 1099.3 Q1747.92 1092.17 1746.09 1088.63 Q1744.29 1085.07 1740.65 1085.07 M1740.65 1081.36 Q1746.46 1081.36 1749.52 1085.97 Q1752.6 1090.55 1752.6 1099.3 Q1752.6 1108.03 1749.52 1112.64 Q1746.46 1117.22 1740.65 1117.22 Q1734.84 1117.22 1731.76 1112.64 Q1728.71 1108.03 1728.71 1099.3 Q1728.71 1090.55 1731.76 1085.97 Q1734.84 1081.36 1740.65 1081.36 Z" fill="#000000" fill-rule="evenodd" fill-opacity="1" /><path clip-path="url(#clip140)" d="M1752.6 1061.06 L1770.65 1061.06 L1770.65 1062.67 L1760.46 1089.14 L1756.49 1089.14 L1766.08 1064.25 L1752.6 1064.25 L1752.6 1061.06 Z" fill="#000000" fill-rule="evenodd" fill-opacity="1" /><path clip-path="url(#clip140)" d="M1995.97 1112.61 L2003.61 1112.61 L2003.61 1086.25 L1995.3 1087.91 L1995.3 1083.65 L2003.56 1081.99 L2008.24 1081.99 L2008.24 1112.61 L2015.88 1112.61 L2015.88 1116.55 L1995.97 1116.55 L1995.97 1112.61 Z" fill="#000000" fill-rule="evenodd" fill-opacity="1" /><path clip-path="url(#clip140)" d="M2035.32 1085.07 Q2031.71 1085.07 2029.88 1088.63 Q2028.08 1092.17 2028.08 1099.3 Q2028.08 1106.41 2029.88 1109.97 Q2031.71 1113.52 2035.32 1113.52 Q2038.96 1113.52 2040.76 1109.97 Q2042.59 1106.41 2042.59 1099.3 Q2042.59 1092.17 2040.76 1088.63 Q2038.96 1085.07 2035.32 1085.07 M2035.32 1081.36 Q2041.13 1081.36 2044.19 1085.97 Q2047.27 1090.55 2047.27 1099.3 Q2047.27 1108.03 2044.19 1112.64 Q2041.13 1117.22 2035.32 1117.22 Q2029.51 1117.22 2026.43 1112.64 Q2023.38 1108.03 2023.38 1099.3 Q2023.38 1090.55 2026.43 1085.97 Q2029.51 1081.36 2035.32 1081.36 Z" fill="#000000" fill-rule="evenodd" fill-opacity="1" /><path clip-path="url(#clip140)" d="M2056.9 1075.8 Q2054.19 1075.8 2052.63 1077.25 Q2051.08 1078.7 2051.08 1081.24 Q2051.08 1083.78 2052.63 1085.23 Q2054.19 1086.67 2056.9 1086.67 Q2059.6 1086.67 2061.16 1085.23 Q2062.73 1083.76 2062.73 1081.24 Q2062.73 1078.7 2061.16 1077.25 Q2059.62 1075.8 2056.9 1075.8 M2053.1 1074.18 Q2050.65 1073.58 2049.28 1071.91 Q2047.92 1070.24 2047.92 1067.83 Q2047.92 1064.46 2050.31 1062.51 Q2052.72 1060.55 2056.9 1060.55 Q2061.09 1060.55 2063.48 1062.51 Q2065.87 1064.46 2065.87 1067.83 Q2065.87 1070.24 2064.49 1071.91 Q2063.14 1073.58 2060.71 1074.18 Q2063.46 1074.82 2064.98 1076.69 Q2066.53 1078.55 2066.53 1081.24 Q2066.53 1085.32 2064.02 1087.5 Q2061.54 1089.68 2056.9 1089.68 Q2052.25 1089.68 2049.75 1087.5 Q2047.27 1085.32 2047.27 1081.24 Q2047.27 1078.55 2048.81 1076.69 Q2050.35 1074.82 2053.1 1074.18 M2051.7 1068.19 Q2051.7 1070.37 2053.06 1071.59 Q2054.43 1072.81 2056.9 1072.81 Q2059.34 1072.81 2060.71 1071.59 Q2062.11 1070.37 2062.11 1068.19 Q2062.11 1066 2060.71 1064.78 Q2059.34 1063.56 2056.9 1063.56 Q2054.43 1063.56 2053.06 1064.78 Q2051.7 1066 2051.7 1068.19 Z" fill="#000000" fill-rule="evenodd" fill-opacity="1" /><path clip-path="url(#clip140)" d="M2291.18 1112.61 L2298.82 1112.61 L2298.82 1086.25 L2290.51 1087.91 L2290.51 1083.65 L2298.78 1081.99 L2303.45 1081.99 L2303.45 1112.61 L2311.09 1112.61 L2311.09 1116.55 L2291.18 1116.55 L2291.18 1112.61 Z" fill="#000000" fill-rule="evenodd" fill-opacity="1" /><path clip-path="url(#clip140)" d="M2330.53 1085.07 Q2326.92 1085.07 2325.1 1088.63 Q2323.29 1092.17 2323.29 1099.3 Q2323.29 1106.41 2325.1 1109.97 Q2326.92 1113.52 2330.53 1113.52 Q2334.17 1113.52 2335.97 1109.97 Q2337.8 1106.41 2337.8 1099.3 Q2337.8 1092.17 2335.97 1088.63 Q2334.17 1085.07 2330.53 1085.07 M2330.53 1081.36 Q2336.35 1081.36 2339.4 1085.97 Q2342.48 1090.55 2342.48 1099.3 Q2342.48 1108.03 2339.4 1112.64 Q2336.35 1117.22 2330.53 1117.22 Q2324.72 1117.22 2321.65 1112.64 Q2318.59 1108.03 2318.59 1099.3 Q2318.59 1090.55 2321.65 1085.97 Q2324.72 1081.36 2330.53 1081.36 Z" fill="#000000" fill-rule="evenodd" fill-opacity="1" /><path clip-path="url(#clip140)" d="M2344.28 1088.55 L2344.28 1085.09 Q2345.71 1085.77 2347.18 1086.13 Q2348.65 1086.49 2350.06 1086.49 Q2353.82 1086.49 2355.8 1083.96 Q2357.79 1081.43 2358.07 1076.27 Q2356.98 1077.89 2355.31 1078.76 Q2353.63 1079.62 2351.6 1079.62 Q2347.39 1079.62 2344.92 1077.08 Q2342.48 1074.52 2342.48 1070.1 Q2342.48 1065.78 2345.04 1063.16 Q2347.59 1060.55 2351.85 1060.55 Q2356.72 1060.55 2359.27 1064.29 Q2361.85 1068.02 2361.85 1075.13 Q2361.85 1081.76 2358.69 1085.73 Q2355.55 1089.68 2350.23 1089.68 Q2348.8 1089.68 2347.33 1089.4 Q2345.86 1089.12 2344.28 1088.55 M2351.85 1076.65 Q2354.4 1076.65 2355.89 1074.9 Q2357.39 1073.15 2357.39 1070.1 Q2357.39 1067.08 2355.89 1065.33 Q2354.4 1063.56 2351.85 1063.56 Q2349.29 1063.56 2347.78 1065.33 Q2346.3 1067.08 2346.3 1070.1 Q2346.3 1073.15 2347.78 1074.9 Q2349.29 1076.65 2351.85 1076.65 Z" fill="#000000" fill-rule="evenodd" fill-opacity="1" /><path clip-path="url(#clip140)" d="M1898.2 1180.26 L1898.2 1201.78 L1892.35 1201.78 L1892.35 1180.45 Q1892.35 1175.39 1890.37 1172.88 Q1888.4 1170.36 1884.45 1170.36 Q1879.71 1170.36 1876.97 1173.39 Q1874.24 1176.41 1874.24 1181.63 L1874.24 1201.78 L1868.35 1201.78 L1868.35 1166.13 L1874.24 1166.13 L1874.24 1171.67 Q1876.34 1168.45 1879.17 1166.86 Q1882.04 1165.27 1885.76 1165.27 Q1891.9 1165.27 1895.05 1169.09 Q1898.2 1172.88 1898.2 1180.26 Z" fill="#000000" fill-rule="evenodd" fill-opacity="1" /><polyline clip-path="url(#clip143)" style="stroke:#000000; stroke-linecap:butt; stroke-linejoin:round; stroke-width:2; stroke-opacity:0.1; fill:none" points="
  1413.8,847.215 2352.76,847.215 
  "/>
<polyline clip-path="url(#clip143)" style="stroke:#000000; stroke-linecap:butt; stroke-linejoin:round; stroke-width:2; stroke-opacity:0.1; fill:none" points="
  1413.8,675.354 2352.76,675.354 
  "/>
<polyline clip-path="url(#clip143)" style="stroke:#000000; stroke-linecap:butt; stroke-linejoin:round; stroke-width:2; stroke-opacity:0.1; fill:none" points="
  1413.8,503.494 2352.76,503.494 
  "/>
<polyline clip-path="url(#clip143)" style="stroke:#000000; stroke-linecap:butt; stroke-linejoin:round; stroke-width:2; stroke-opacity:0.1; fill:none" points="
  1413.8,331.633 2352.76,331.633 
  "/>
<polyline clip-path="url(#clip140)" style="stroke:#000000; stroke-linecap:butt; stroke-linejoin:round; stroke-width:4; stroke-opacity:1; fill:none" points="
  1413.8,1038.49 1413.8,215.392 
  "/>
<polyline clip-path="url(#clip140)" style="stroke:#000000; stroke-linecap:butt; stroke-linejoin:round; stroke-width:4; stroke-opacity:1; fill:none" points="
  1413.8,847.215 1432.7,847.215 
  "/>
<polyline clip-path="url(#clip140)" style="stroke:#000000; stroke-linecap:butt; stroke-linejoin:round; stroke-width:4; stroke-opacity:1; fill:none" points="
  1413.8,675.354 1432.7,675.354 
  "/>
<polyline clip-path="url(#clip140)" style="stroke:#000000; stroke-linecap:butt; stroke-linejoin:round; stroke-width:4; stroke-opacity:1; fill:none" points="
  1413.8,503.494 1432.7,503.494 
  "/>
<polyline clip-path="url(#clip140)" style="stroke:#000000; stroke-linecap:butt; stroke-linejoin:round; stroke-width:4; stroke-opacity:1; fill:none" points="
  1413.8,331.633 1432.7,331.633 
  "/>
<path clip-path="url(#clip140)" d="M1277.66 867.007 L1285.3 867.007 L1285.3 840.642 L1276.99 842.308 L1276.99 838.049 L1285.25 836.382 L1289.93 836.382 L1289.93 867.007 L1297.57 867.007 L1297.57 870.942 L1277.66 870.942 L1277.66 867.007 Z" fill="#000000" fill-rule="evenodd" fill-opacity="1" /><path clip-path="url(#clip140)" d="M1317.01 839.461 Q1313.4 839.461 1311.57 843.026 Q1309.76 846.567 1309.76 853.697 Q1309.76 860.803 1311.57 864.368 Q1313.4 867.91 1317.01 867.91 Q1320.64 867.91 1322.45 864.368 Q1324.28 860.803 1324.28 853.697 Q1324.28 846.567 1322.45 843.026 Q1320.64 839.461 1317.01 839.461 M1317.01 835.757 Q1322.82 835.757 1325.88 840.364 Q1328.95 844.947 1328.95 853.697 Q1328.95 862.424 1325.88 867.03 Q1322.82 871.614 1317.01 871.614 Q1311.2 871.614 1308.12 867.03 Q1305.07 862.424 1305.07 853.697 Q1305.07 844.947 1308.12 840.364 Q1311.2 835.757 1317.01 835.757 Z" fill="#000000" fill-rule="evenodd" fill-opacity="1" /><path clip-path="url(#clip140)" d="M1328.95 829.859 L1353.07 829.859 L1353.07 833.056 L1328.95 833.056 L1328.95 829.859 Z" fill="#000000" fill-rule="evenodd" fill-opacity="1" /><path clip-path="url(#clip140)" d="M1364.54 840.335 L1377.8 840.335 L1377.8 843.532 L1359.97 843.532 L1359.97 840.335 Q1362.13 838.096 1365.86 834.335 Q1369.6 830.555 1370.56 829.464 Q1372.38 827.414 1373.1 826.003 Q1373.83 824.574 1373.83 823.201 Q1373.83 820.963 1372.25 819.552 Q1370.69 818.141 1368.17 818.141 Q1366.38 818.141 1364.39 818.762 Q1362.41 819.383 1360.16 820.643 L1360.16 816.806 Q1362.45 815.884 1364.44 815.414 Q1366.44 814.944 1368.09 814.944 Q1372.46 814.944 1375.05 817.126 Q1377.65 819.307 1377.65 822.956 Q1377.65 824.686 1376.99 826.248 Q1376.35 827.79 1374.64 829.896 Q1374.17 830.442 1371.65 833.056 Q1369.13 835.651 1364.54 840.335 Z" fill="#000000" fill-rule="evenodd" fill-opacity="1" /><path clip-path="url(#clip140)" d="M1277.36 695.147 L1285 695.147 L1285 668.781 L1276.69 670.448 L1276.69 666.188 L1284.95 664.522 L1289.63 664.522 L1289.63 695.147 L1297.26 695.147 L1297.26 699.082 L1277.36 699.082 L1277.36 695.147 Z" fill="#000000" fill-rule="evenodd" fill-opacity="1" /><path clip-path="url(#clip140)" d="M1316.71 667.6 Q1313.1 667.6 1311.27 671.165 Q1309.46 674.707 1309.46 681.836 Q1309.46 688.943 1311.27 692.508 Q1313.1 696.049 1316.71 696.049 Q1320.34 696.049 1322.15 692.508 Q1323.98 688.943 1323.98 681.836 Q1323.98 674.707 1322.15 671.165 Q1320.34 667.6 1316.71 667.6 M1316.71 663.897 Q1322.52 663.897 1325.57 668.503 Q1328.65 673.087 1328.65 681.836 Q1328.65 690.563 1325.57 695.17 Q1322.52 699.753 1316.71 699.753 Q1310.9 699.753 1307.82 695.17 Q1304.76 690.563 1304.76 681.836 Q1304.76 673.087 1307.82 668.503 Q1310.9 663.897 1316.71 663.897 Z" fill="#000000" fill-rule="evenodd" fill-opacity="1" /><path clip-path="url(#clip140)" d="M1328.65 657.998 L1352.77 657.998 L1352.77 661.195 L1328.65 661.195 L1328.65 657.998 Z" fill="#000000" fill-rule="evenodd" fill-opacity="1" /><path clip-path="url(#clip140)" d="M1361.62 668.474 L1367.83 668.474 L1367.83 647.052 L1361.08 648.406 L1361.08 644.946 L1367.79 643.591 L1371.59 643.591 L1371.59 668.474 L1377.8 668.474 L1377.8 671.671 L1361.62 671.671 L1361.62 668.474 Z" fill="#000000" fill-rule="evenodd" fill-opacity="1" /><path clip-path="url(#clip140)" d="M1307.09 523.286 L1314.73 523.286 L1314.73 496.92 L1306.42 498.587 L1306.42 494.328 L1314.69 492.661 L1319.36 492.661 L1319.36 523.286 L1327 523.286 L1327 527.221 L1307.09 527.221 L1307.09 523.286 Z" fill="#000000" fill-rule="evenodd" fill-opacity="1" /><path clip-path="url(#clip140)" d="M1346.44 495.74 Q1342.83 495.74 1341 499.305 Q1339.2 502.846 1339.2 509.976 Q1339.2 517.082 1341 520.647 Q1342.83 524.189 1346.44 524.189 Q1350.08 524.189 1351.88 520.647 Q1353.71 517.082 1353.71 509.976 Q1353.71 502.846 1351.88 499.305 Q1350.08 495.74 1346.44 495.74 M1346.44 492.036 Q1352.25 492.036 1355.31 496.643 Q1358.39 501.226 1358.39 509.976 Q1358.39 518.703 1355.31 523.309 Q1352.25 527.893 1346.44 527.893 Q1340.63 527.893 1337.56 523.309 Q1334.5 518.703 1334.5 509.976 Q1334.5 501.226 1337.56 496.643 Q1340.63 492.036 1346.44 492.036 Z" fill="#000000" fill-rule="evenodd" fill-opacity="1" /><path clip-path="url(#clip140)" d="M1368.09 474.232 Q1365.16 474.232 1363.67 477.129 Q1362.21 480.006 1362.21 485.799 Q1362.21 491.573 1363.67 494.469 Q1365.16 497.347 1368.09 497.347 Q1371.05 497.347 1372.51 494.469 Q1374 491.573 1374 485.799 Q1374 480.006 1372.51 477.129 Q1371.05 474.232 1368.09 474.232 M1368.09 471.223 Q1372.81 471.223 1375.3 474.966 Q1377.8 478.69 1377.8 485.799 Q1377.8 492.89 1375.3 496.632 Q1372.81 500.356 1368.09 500.356 Q1363.37 500.356 1360.87 496.632 Q1358.39 492.89 1358.39 485.799 Q1358.39 478.69 1360.87 474.966 Q1363.37 471.223 1368.09 471.223 Z" fill="#000000" fill-rule="evenodd" fill-opacity="1" /><path clip-path="url(#clip140)" d="M1309.78 351.426 L1317.42 351.426 L1317.42 325.06 L1309.11 326.727 L1309.11 322.467 L1317.37 320.801 L1322.05 320.801 L1322.05 351.426 L1329.69 351.426 L1329.69 355.361 L1309.78 355.361 L1309.78 351.426 Z" fill="#000000" fill-rule="evenodd" fill-opacity="1" /><path clip-path="url(#clip140)" d="M1349.13 323.879 Q1345.52 323.879 1343.69 327.444 Q1341.89 330.986 1341.89 338.115 Q1341.89 345.222 1343.69 348.787 Q1345.52 352.328 1349.13 352.328 Q1352.77 352.328 1354.57 348.787 Q1356.4 345.222 1356.4 338.115 Q1356.4 330.986 1354.57 327.444 Q1352.77 323.879 1349.13 323.879 M1349.13 320.176 Q1354.94 320.176 1358 324.782 Q1361.08 329.365 1361.08 338.115 Q1361.08 346.842 1358 351.449 Q1354.94 356.032 1349.13 356.032 Q1343.32 356.032 1340.24 351.449 Q1337.19 346.842 1337.19 338.115 Q1337.19 329.365 1340.24 324.782 Q1343.32 320.176 1349.13 320.176 Z" fill="#000000" fill-rule="evenodd" fill-opacity="1" /><path clip-path="url(#clip140)" d="M1361.62 324.753 L1367.83 324.753 L1367.83 303.331 L1361.08 304.685 L1361.08 301.224 L1367.79 299.87 L1371.59 299.87 L1371.59 324.753 L1377.8 324.753 L1377.8 327.95 L1361.62 327.95 L1361.62 324.753 Z" fill="#000000" fill-rule="evenodd" fill-opacity="1" /><path clip-path="url(#clip140)" d="M1690.51 140.677 L1690.51 145.654 Q1688.25 144.41 1685.97 143.802 Q1683.71 143.165 1681.4 143.165 Q1676.22 143.165 1673.35 146.464 Q1670.49 149.734 1670.49 155.665 Q1670.49 161.597 1673.35 164.896 Q1676.22 168.165 1681.4 168.165 Q1683.71 168.165 1685.97 167.558 Q1688.25 166.921 1690.51 165.677 L1690.51 170.596 Q1688.28 171.637 1685.88 172.158 Q1683.51 172.679 1680.82 172.679 Q1673.5 172.679 1669.19 168.078 Q1664.88 163.478 1664.88 155.665 Q1664.88 147.737 1669.22 143.194 Q1673.58 138.652 1681.17 138.652 Q1683.63 138.652 1685.97 139.172 Q1688.31 139.664 1690.51 140.677 Z" fill="#000000" fill-rule="evenodd" fill-opacity="1" /><path clip-path="url(#clip140)" d="M1726.71 152.28 L1726.71 171.84 L1721.39 171.84 L1721.39 152.454 Q1721.39 147.853 1719.59 145.567 Q1717.8 143.281 1714.21 143.281 Q1709.9 143.281 1707.41 146.03 Q1704.92 148.779 1704.92 153.524 L1704.92 171.84 L1699.57 171.84 L1699.57 126.817 L1704.92 126.817 L1704.92 144.467 Q1706.83 141.545 1709.41 140.098 Q1712.01 138.652 1715.4 138.652 Q1720.98 138.652 1723.85 142.124 Q1726.71 145.567 1726.71 152.28 Z" fill="#000000" fill-rule="evenodd" fill-opacity="1" /><path clip-path="url(#clip140)" d="M1736.78 159.051 L1736.78 139.433 L1742.1 139.433 L1742.1 158.848 Q1742.1 163.449 1743.9 165.764 Q1745.69 168.05 1749.28 168.05 Q1753.59 168.05 1756.08 165.301 Q1758.6 162.552 1758.6 157.807 L1758.6 139.433 L1763.92 139.433 L1763.92 171.84 L1758.6 171.84 L1758.6 166.863 Q1756.66 169.815 1754.08 171.261 Q1751.54 172.679 1748.15 172.679 Q1742.57 172.679 1739.67 169.207 Q1736.78 165.735 1736.78 159.051 M1750.18 138.652 L1750.18 138.652 Z" fill="#000000" fill-rule="evenodd" fill-opacity="1" /><path clip-path="url(#clip140)" d="M1801.82 152.28 L1801.82 171.84 L1796.5 171.84 L1796.5 152.454 Q1796.5 147.853 1794.71 145.567 Q1792.91 143.281 1789.32 143.281 Q1785.01 143.281 1782.53 146.03 Q1780.04 148.779 1780.04 153.524 L1780.04 171.84 L1774.68 171.84 L1774.68 139.433 L1780.04 139.433 L1780.04 144.467 Q1781.95 141.545 1784.52 140.098 Q1787.13 138.652 1790.51 138.652 Q1796.1 138.652 1798.96 142.124 Q1801.82 145.567 1801.82 152.28 Z" fill="#000000" fill-rule="evenodd" fill-opacity="1" /><path clip-path="url(#clip140)" d="M1812.24 126.817 L1817.59 126.817 L1817.59 153.408 L1833.48 139.433 L1840.28 139.433 L1823.09 154.595 L1841 171.84 L1834.06 171.84 L1817.59 156.013 L1817.59 171.84 L1812.24 171.84 L1812.24 126.817 Z" fill="#000000" fill-rule="evenodd" fill-opacity="1" /><path clip-path="url(#clip140)" d="M1867.42 140.388 L1867.42 145.422 Q1865.16 144.265 1862.73 143.686 Q1860.3 143.108 1857.7 143.108 Q1853.73 143.108 1851.74 144.323 Q1849.77 145.538 1849.77 147.969 Q1849.77 149.82 1851.19 150.891 Q1852.61 151.933 1856.89 152.888 L1858.71 153.293 Q1864.38 154.508 1866.76 156.736 Q1869.16 158.935 1869.16 162.899 Q1869.16 167.413 1865.57 170.046 Q1862.01 172.679 1855.76 172.679 Q1853.16 172.679 1850.32 172.158 Q1847.51 171.666 1844.39 170.654 L1844.39 165.156 Q1847.34 166.69 1850.2 167.471 Q1853.07 168.223 1855.88 168.223 Q1859.64 168.223 1861.66 166.95 Q1863.69 165.648 1863.69 163.304 Q1863.69 161.134 1862.21 159.977 Q1860.77 158.819 1855.82 157.749 L1853.97 157.315 Q1849.02 156.273 1846.82 154.132 Q1844.62 151.962 1844.62 148.2 Q1844.62 143.628 1847.86 141.14 Q1851.1 138.652 1857.06 138.652 Q1860.01 138.652 1862.62 139.086 Q1865.22 139.52 1867.42 140.388 Z" fill="#000000" fill-rule="evenodd" fill-opacity="1" /><path clip-path="url(#clip140)" d="M1877.63 139.433 L1882.96 139.433 L1882.96 171.84 L1877.63 171.84 L1877.63 139.433 M1877.63 126.817 L1882.96 126.817 L1882.96 133.559 L1877.63 133.559 L1877.63 126.817 Z" fill="#000000" fill-rule="evenodd" fill-opacity="1" /><path clip-path="url(#clip140)" d="M1891.78 139.433 L1917.07 139.433 L1917.07 144.294 L1897.05 167.587 L1917.07 167.587 L1917.07 171.84 L1891.06 171.84 L1891.06 166.979 L1911.08 143.686 L1891.78 143.686 L1891.78 139.433 Z" fill="#000000" fill-rule="evenodd" fill-opacity="1" /><path clip-path="url(#clip140)" d="M1952.92 154.305 L1952.92 156.91 L1928.44 156.91 Q1928.79 162.407 1931.74 165.301 Q1934.72 168.165 1940.02 168.165 Q1943.09 168.165 1945.95 167.413 Q1948.84 166.661 1951.68 165.156 L1951.68 170.191 Q1948.81 171.406 1945.81 172.043 Q1942.8 172.679 1939.7 172.679 Q1931.95 172.679 1927.4 168.165 Q1922.89 163.651 1922.89 155.955 Q1922.89 147.998 1927.17 143.339 Q1931.48 138.652 1938.77 138.652 Q1945.31 138.652 1949.1 142.876 Q1952.92 147.072 1952.92 154.305 M1947.6 152.743 Q1947.54 148.374 1945.14 145.77 Q1942.77 143.165 1938.83 143.165 Q1934.38 143.165 1931.69 145.683 Q1929.02 148.2 1928.62 152.772 L1947.6 152.743 Z" fill="#000000" fill-rule="evenodd" fill-opacity="1" /><path clip-path="url(#clip140)" d="M1963.02 164.491 L1969.13 164.491 L1969.13 171.84 L1963.02 171.84 L1963.02 164.491 M1963.02 141.198 L1969.13 141.198 L1969.13 148.547 L1963.02 148.547 L1963.02 141.198 Z" fill="#000000" fill-rule="evenodd" fill-opacity="1" /><path clip-path="url(#clip140)" d="M2002.23 166.921 L2011.78 166.921 L2011.78 133.964 L2001.39 136.047 L2001.39 130.723 L2011.72 128.64 L2017.56 128.64 L2017.56 166.921 L2027.11 166.921 L2027.11 171.84 L2002.23 171.84 L2002.23 166.921 Z" fill="#000000" fill-rule="evenodd" fill-opacity="1" /><path clip-path="url(#clip140)" d="M2065.89 154.305 L2065.89 156.91 L2041.41 156.91 Q2041.75 162.407 2044.71 165.301 Q2047.69 168.165 2052.98 168.165 Q2056.05 168.165 2058.91 167.413 Q2061.81 166.661 2064.64 165.156 L2064.64 170.191 Q2061.78 171.406 2058.77 172.043 Q2055.76 172.679 2052.66 172.679 Q2044.91 172.679 2040.37 168.165 Q2035.85 163.651 2035.85 155.955 Q2035.85 147.998 2040.13 143.339 Q2044.45 138.652 2051.74 138.652 Q2058.28 138.652 2062.07 142.876 Q2065.89 147.072 2065.89 154.305 M2060.56 152.743 Q2060.5 148.374 2058.1 145.77 Q2055.73 143.165 2051.79 143.165 Q2047.34 143.165 2044.65 145.683 Q2041.99 148.2 2041.58 152.772 L2060.56 152.743 Z" fill="#000000" fill-rule="evenodd" fill-opacity="1" /><path clip-path="url(#clip140)" d="M2073.9 128.64 L2101.68 128.64 L2101.68 131.128 L2086 171.84 L2079.89 171.84 L2094.65 133.559 L2073.9 133.559 L2073.9 128.64 Z" fill="#000000" fill-rule="evenodd" fill-opacity="1" /><polyline clip-path="url(#clip143)" style="stroke:#009af9; stroke-linecap:butt; stroke-linejoin:round; stroke-width:4; stroke-opacity:1; fill:none" points="
  1440.37,968.905 1735.64,815.97 2030.91,603.13 2237.3,444.312 2326.18,380.618 
  "/>
<polyline clip-path="url(#clip143)" style="stroke:#e26f46; stroke-linecap:butt; stroke-linejoin:round; stroke-width:4; stroke-opacity:1; fill:none" points="
  1440.37,809.043 1735.64,752.004 2030.91,640.949 2237.3,521.447 2326.18,238.687 
  "/>
<polyline clip-path="url(#clip143)" style="stroke:#3da44d; stroke-linecap:butt; stroke-linejoin:round; stroke-width:4; stroke-opacity:1; fill:none" points="
  1440.37,1015.19 1735.64,854.836 2030.91,686.276 2237.3,566.176 2326.18,490.756 
  "/>
<path clip-path="url(#clip140)" d="
M239.492 120 L2352.76 120 L2352.76 0 L239.492 0  Z
  " fill="#ffffff" fill-rule="evenodd" fill-opacity="1"/>
<defs>
  <clipPath id="clip144">
    <rect x="239" y="0" width="2114" height="121"/>
  </clipPath>
</defs>
<path clip-path="url(#clip140)" d="M587.841 13.824 L601.776 13.824 L619.415 60.8608 L637.146 13.824 L651.081 13.824 L651.081 82.944 L641.961 82.944 L641.961 22.2499 L624.137 69.657 L614.739 69.657 L596.915 22.2499 L596.915 82.944 L587.841 82.944 L587.841 13.824 Z" fill="#000000" fill-rule="evenodd" fill-opacity="1" /><path clip-path="url(#clip140)" d="M692.84 56.8793 Q682.516 56.8793 678.535 59.2404 Q674.553 61.6015 674.553 67.2959 Q674.553 71.8329 677.516 74.5181 Q680.525 77.157 685.664 77.157 Q692.748 77.157 697.007 72.157 Q701.312 67.1108 701.312 58.7775 L701.312 56.8793 L692.84 56.8793 M709.831 53.3608 L709.831 82.944 L701.312 82.944 L701.312 75.0737 Q698.396 79.7959 694.044 82.0644 Q689.692 84.2866 683.396 84.2866 Q675.433 84.2866 670.711 79.8422 Q666.035 75.3514 666.035 67.8515 Q666.035 59.1015 671.868 54.6571 Q677.748 50.2127 689.368 50.2127 L701.312 50.2127 L701.312 49.3794 Q701.312 43.4998 697.424 40.3053 Q693.581 37.0646 686.59 37.0646 Q682.146 37.0646 677.933 38.1294 Q673.72 39.1942 669.831 41.3239 L669.831 33.4535 Q674.507 31.648 678.905 30.7684 Q683.303 29.8424 687.47 29.8424 Q698.72 29.8424 704.275 35.6757 Q709.831 41.509 709.831 53.3608 Z" fill="#000000" fill-rule="evenodd" fill-opacity="1" /><path clip-path="url(#clip140)" d="M735.618 75.1663 L735.618 102.666 L727.053 102.666 L727.053 31.0924 L735.618 31.0924 L735.618 38.9628 Q738.303 34.3331 742.377 32.1109 Q746.497 29.8424 752.192 29.8424 Q761.636 29.8424 767.516 37.3424 Q773.442 44.8424 773.442 57.0645 Q773.442 69.2867 767.516 76.7866 Q761.636 84.2866 752.192 84.2866 Q746.497 84.2866 742.377 82.0644 Q738.303 79.7959 735.618 75.1663 M764.599 57.0645 Q764.599 47.6664 760.71 42.3424 Q756.868 36.972 750.108 36.972 Q743.349 36.972 739.46 42.3424 Q735.618 47.6664 735.618 57.0645 Q735.618 66.4626 739.46 71.8329 Q743.349 77.157 750.108 77.157 Q756.868 77.157 760.71 71.8329 Q764.599 66.4626 764.599 57.0645 Z" fill="#000000" fill-rule="evenodd" fill-opacity="1" /><path clip-path="url(#clip140)" d="M789.738 71.1848 L799.506 71.1848 L799.506 82.944 L789.738 82.944 L789.738 71.1848 M789.738 33.9165 L799.506 33.9165 L799.506 45.6757 L789.738 45.6757 L789.738 33.9165 Z" fill="#000000" fill-rule="evenodd" fill-opacity="1" /><path clip-path="url(#clip140)" d="M849.645 31.0924 L858.163 31.0924 L858.163 82.944 L849.645 82.944 L849.645 31.0924 M849.645 10.9073 L858.163 10.9073 L858.163 21.6943 L849.645 21.6943 L849.645 10.9073 Z" fill="#000000" fill-rule="evenodd" fill-opacity="1" /><path clip-path="url(#clip140)" d="M919.089 51.6479 L919.089 82.944 L910.571 82.944 L910.571 51.9256 Q910.571 44.5646 907.7 40.9072 Q904.83 37.2498 899.089 37.2498 Q892.191 37.2498 888.21 41.6479 Q884.228 46.046 884.228 53.6386 L884.228 82.944 L875.663 82.944 L875.663 31.0924 L884.228 31.0924 L884.228 39.1479 Q887.284 34.472 891.404 32.1572 Q895.571 29.8424 900.987 29.8424 Q909.922 29.8424 914.506 35.398 Q919.089 40.9072 919.089 51.6479 Z" fill="#000000" fill-rule="evenodd" fill-opacity="1" /><path clip-path="url(#clip140)" d="M973.394 33.0832 L973.394 41.0461 Q969.783 39.0553 966.126 38.0831 Q962.515 37.0646 958.811 37.0646 Q950.524 37.0646 945.941 42.3424 Q941.357 47.5738 941.357 57.0645 Q941.357 66.5552 945.941 71.8329 Q950.524 77.0644 958.811 77.0644 Q962.515 77.0644 966.126 76.0922 Q969.783 75.0737 973.394 73.0829 L973.394 80.9533 Q969.829 82.6199 965.987 83.4533 Q962.191 84.2866 957.885 84.2866 Q946.172 84.2866 939.274 76.9255 Q932.376 69.5644 932.376 57.0645 Q932.376 44.3794 939.32 37.1109 Q946.311 29.8424 958.441 29.8424 Q962.376 29.8424 966.126 30.6758 Q969.876 31.4628 973.394 33.0832 Z" fill="#000000" fill-rule="evenodd" fill-opacity="1" /><path clip-path="url(#clip140)" d="M1018.26 39.0553 Q1016.82 38.222 1015.11 37.8516 Q1013.44 37.435 1011.4 37.435 Q1004.18 37.435 1000.29 42.1572 Q996.45 46.8331 996.45 55.6293 L996.45 82.944 L987.885 82.944 L987.885 31.0924 L996.45 31.0924 L996.45 39.1479 Q999.135 34.4257 1003.44 32.1572 Q1007.75 29.8424 1013.9 29.8424 Q1014.78 29.8424 1015.85 29.9813 Q1016.91 30.0739 1018.21 30.3054 L1018.26 39.0553 Z" fill="#000000" fill-rule="evenodd" fill-opacity="1" /><path clip-path="url(#clip140)" d="M1069.46 54.8886 L1069.46 59.0552 L1030.29 59.0552 Q1030.85 67.8515 1035.57 72.4811 Q1040.34 77.0644 1048.81 77.0644 Q1053.72 77.0644 1058.3 75.8607 Q1062.93 74.657 1067.47 72.2496 L1067.47 80.3051 Q1062.88 82.2496 1058.07 83.2681 Q1053.25 84.2866 1048.3 84.2866 Q1035.89 84.2866 1028.63 77.0644 Q1021.4 69.8422 1021.4 57.5275 Q1021.4 44.7961 1028.26 37.3424 Q1035.15 29.8424 1046.82 29.8424 Q1057.28 29.8424 1063.35 36.6017 Q1069.46 43.3146 1069.46 54.8886 M1060.94 52.3886 Q1060.85 45.3979 1057 41.2313 Q1053.21 37.0646 1046.91 37.0646 Q1039.78 37.0646 1035.48 41.0924 Q1031.22 45.1201 1030.57 52.4349 L1060.94 52.3886 Z" fill="#000000" fill-rule="evenodd" fill-opacity="1" /><path clip-path="url(#clip140)" d="M1123.81 41.0461 Q1127 35.3054 1131.45 32.5739 Q1135.89 29.8424 1141.91 29.8424 Q1150.01 29.8424 1154.41 35.5368 Q1158.81 41.185 1158.81 51.6479 L1158.81 82.944 L1150.25 82.944 L1150.25 51.9256 Q1150.25 44.472 1147.61 40.8609 Q1144.97 37.2498 1139.55 37.2498 Q1132.93 37.2498 1129.09 41.6479 Q1125.25 46.046 1125.25 53.6386 L1125.25 82.944 L1116.68 82.944 L1116.68 51.9256 Q1116.68 44.4257 1114.04 40.8609 Q1111.4 37.2498 1105.89 37.2498 Q1099.37 37.2498 1095.52 41.6942 Q1091.68 46.0923 1091.68 53.6386 L1091.68 82.944 L1083.12 82.944 L1083.12 31.0924 L1091.68 31.0924 L1091.68 39.1479 Q1094.6 34.3794 1098.67 32.1109 Q1102.75 29.8424 1108.35 29.8424 Q1114 29.8424 1117.93 32.7128 Q1121.91 35.5831 1123.81 41.0461 Z" fill="#000000" fill-rule="evenodd" fill-opacity="1" /><path clip-path="url(#clip140)" d="M1220.15 54.8886 L1220.15 59.0552 L1180.99 59.0552 Q1181.54 67.8515 1186.26 72.4811 Q1191.03 77.0644 1199.5 77.0644 Q1204.41 77.0644 1208.99 75.8607 Q1213.62 74.657 1218.16 72.2496 L1218.16 80.3051 Q1213.58 82.2496 1208.76 83.2681 Q1203.95 84.2866 1198.99 84.2866 Q1186.59 84.2866 1179.32 77.0644 Q1172.1 69.8422 1172.1 57.5275 Q1172.1 44.7961 1178.95 37.3424 Q1185.85 29.8424 1197.51 29.8424 Q1207.98 29.8424 1214.04 36.6017 Q1220.15 43.3146 1220.15 54.8886 M1211.63 52.3886 Q1211.54 45.3979 1207.7 41.2313 Q1203.9 37.0646 1197.61 37.0646 Q1190.48 37.0646 1186.17 41.0924 Q1181.91 45.1201 1181.26 52.4349 L1211.63 52.3886 Z" fill="#000000" fill-rule="evenodd" fill-opacity="1" /><path clip-path="url(#clip140)" d="M1277.24 51.6479 L1277.24 82.944 L1268.72 82.944 L1268.72 51.9256 Q1268.72 44.5646 1265.85 40.9072 Q1262.98 37.2498 1257.24 37.2498 Q1250.34 37.2498 1246.36 41.6479 Q1242.37 46.046 1242.37 53.6386 L1242.37 82.944 L1233.81 82.944 L1233.81 31.0924 L1242.37 31.0924 L1242.37 39.1479 Q1245.43 34.472 1249.55 32.1572 Q1253.72 29.8424 1259.13 29.8424 Q1268.07 29.8424 1272.65 35.398 Q1277.24 40.9072 1277.24 51.6479 Z" fill="#000000" fill-rule="evenodd" fill-opacity="1" /><path clip-path="url(#clip140)" d="M1302.65 16.3703 L1302.65 31.0924 L1320.2 31.0924 L1320.2 37.7128 L1302.65 37.7128 L1302.65 65.8608 Q1302.65 72.2033 1304.36 74.0089 Q1306.12 75.8144 1311.45 75.8144 L1320.2 75.8144 L1320.2 82.944 L1311.45 82.944 Q1301.59 82.944 1297.84 79.2866 Q1294.09 75.5829 1294.09 65.8608 L1294.09 37.7128 L1287.84 37.7128 L1287.84 31.0924 L1294.09 31.0924 L1294.09 16.3703 L1302.65 16.3703 Z" fill="#000000" fill-rule="evenodd" fill-opacity="1" /><path clip-path="url(#clip140)" d="M1394.6 32.6202 L1394.6 40.6757 Q1390.98 38.8239 1387.1 37.8979 Q1383.21 36.972 1379.04 36.972 Q1372.7 36.972 1369.5 38.9165 Q1366.36 40.8609 1366.36 44.7498 Q1366.36 47.7127 1368.62 49.4257 Q1370.89 51.0923 1377.74 52.6201 L1380.66 53.2682 Q1389.73 55.2127 1393.53 58.7775 Q1397.37 62.296 1397.37 68.6385 Q1397.37 75.8607 1391.63 80.0736 Q1385.94 84.2866 1375.94 84.2866 Q1371.77 84.2866 1367.23 83.4533 Q1362.74 82.6662 1357.74 81.0459 L1357.74 72.2496 Q1362.47 74.7033 1367.05 75.9533 Q1371.63 77.157 1376.12 77.157 Q1382.14 77.157 1385.38 75.12 Q1388.62 73.0366 1388.62 69.2867 Q1388.62 65.8145 1386.26 63.9626 Q1383.95 62.1108 1376.03 60.3978 L1373.07 59.7034 Q1365.15 58.0367 1361.63 54.6108 Q1358.11 51.1386 1358.11 45.1201 Q1358.11 37.8054 1363.3 33.8239 Q1368.48 29.8424 1378.02 29.8424 Q1382.74 29.8424 1386.91 30.5369 Q1391.08 31.2313 1394.6 32.6202 Z" fill="#000000" fill-rule="evenodd" fill-opacity="1" /><path clip-path="url(#clip140)" d="M1410.94 31.0924 L1419.46 31.0924 L1419.46 82.944 L1410.94 82.944 L1410.94 31.0924 M1410.94 10.9073 L1419.46 10.9073 L1419.46 21.6943 L1410.94 21.6943 L1410.94 10.9073 Z" fill="#000000" fill-rule="evenodd" fill-opacity="1" /><path clip-path="url(#clip140)" d="M1480.38 51.6479 L1480.38 82.944 L1471.86 82.944 L1471.86 51.9256 Q1471.86 44.5646 1468.99 40.9072 Q1466.12 37.2498 1460.38 37.2498 Q1453.48 37.2498 1449.5 41.6479 Q1445.52 46.046 1445.52 53.6386 L1445.52 82.944 L1436.96 82.944 L1436.96 31.0924 L1445.52 31.0924 L1445.52 39.1479 Q1448.58 34.472 1452.7 32.1572 Q1456.86 29.8424 1462.28 29.8424 Q1471.22 29.8424 1475.8 35.398 Q1480.38 40.9072 1480.38 51.6479 Z" fill="#000000" fill-rule="evenodd" fill-opacity="1" /><path clip-path="url(#clip140)" d="M1531.49 56.4164 Q1531.49 47.1572 1527.65 42.0646 Q1523.85 36.972 1516.96 36.972 Q1510.1 36.972 1506.26 42.0646 Q1502.47 47.1572 1502.47 56.4164 Q1502.47 65.6293 1506.26 70.7218 Q1510.1 75.8144 1516.96 75.8144 Q1523.85 75.8144 1527.65 70.7218 Q1531.49 65.6293 1531.49 56.4164 M1540.01 76.5088 Q1540.01 89.7495 1534.13 96.1847 Q1528.25 102.666 1516.12 102.666 Q1511.63 102.666 1507.65 101.972 Q1503.67 101.324 1499.92 99.9346 L1499.92 91.6477 Q1503.67 93.6847 1507.33 94.6569 Q1510.98 95.6291 1514.78 95.6291 Q1523.16 95.6291 1527.33 91.231 Q1531.49 86.8792 1531.49 78.0366 L1531.49 73.8237 Q1528.85 78.407 1524.73 80.6755 Q1520.61 82.944 1514.87 82.944 Q1505.34 82.944 1499.5 75.6755 Q1493.67 68.407 1493.67 56.4164 Q1493.67 44.3794 1499.5 37.1109 Q1505.34 29.8424 1514.87 29.8424 Q1520.61 29.8424 1524.73 32.1109 Q1528.85 34.3794 1531.49 38.9628 L1531.49 31.0924 L1540.01 31.0924 L1540.01 76.5088 Z" fill="#000000" fill-rule="evenodd" fill-opacity="1" /><path clip-path="url(#clip140)" d="M1557.56 10.9073 L1566.08 10.9073 L1566.08 82.944 L1557.56 82.944 L1557.56 10.9073 Z" fill="#000000" fill-rule="evenodd" fill-opacity="1" /><path clip-path="url(#clip140)" d="M1628.25 54.8886 L1628.25 59.0552 L1589.09 59.0552 Q1589.64 67.8515 1594.36 72.4811 Q1599.13 77.0644 1607.6 77.0644 Q1612.51 77.0644 1617.09 75.8607 Q1621.72 74.657 1626.26 72.2496 L1626.26 80.3051 Q1621.68 82.2496 1616.86 83.2681 Q1612.05 84.2866 1607.09 84.2866 Q1594.69 84.2866 1587.42 77.0644 Q1580.2 69.8422 1580.2 57.5275 Q1580.2 44.7961 1587.05 37.3424 Q1593.95 29.8424 1605.61 29.8424 Q1616.08 29.8424 1622.14 36.6017 Q1628.25 43.3146 1628.25 54.8886 M1619.73 52.3886 Q1619.64 45.3979 1615.8 41.2313 Q1612 37.0646 1605.71 37.0646 Q1598.58 37.0646 1594.27 41.0924 Q1590.01 45.1201 1589.36 52.4349 L1619.73 52.3886 Z" fill="#000000" fill-rule="evenodd" fill-opacity="1" /><path clip-path="url(#clip140)" d="M1709.69 33.0832 L1709.69 41.0461 Q1706.08 39.0553 1702.42 38.0831 Q1698.81 37.0646 1695.1 37.0646 Q1686.82 37.0646 1682.23 42.3424 Q1677.65 47.5738 1677.65 57.0645 Q1677.65 66.5552 1682.23 71.8329 Q1686.82 77.0644 1695.1 77.0644 Q1698.81 77.0644 1702.42 76.0922 Q1706.08 75.0737 1709.69 73.0829 L1709.69 80.9533 Q1706.12 82.6199 1702.28 83.4533 Q1698.48 84.2866 1694.18 84.2866 Q1682.46 84.2866 1675.57 76.9255 Q1668.67 69.5644 1668.67 57.0645 Q1668.67 44.3794 1675.61 37.1109 Q1682.6 29.8424 1694.73 29.8424 Q1698.67 29.8424 1702.42 30.6758 Q1706.17 31.4628 1709.69 33.0832 Z" fill="#000000" fill-rule="evenodd" fill-opacity="1" /><path clip-path="url(#clip140)" d="M1744.59 37.0646 Q1737.74 37.0646 1733.76 42.435 Q1729.78 47.759 1729.78 57.0645 Q1729.78 66.37 1733.71 71.7404 Q1737.7 77.0644 1744.59 77.0644 Q1751.4 77.0644 1755.38 71.6941 Q1759.36 66.3237 1759.36 57.0645 Q1759.36 47.8516 1755.38 42.4813 Q1751.4 37.0646 1744.59 37.0646 M1744.59 29.8424 Q1755.7 29.8424 1762.05 37.0646 Q1768.39 44.2868 1768.39 57.0645 Q1768.39 69.7959 1762.05 77.0644 Q1755.7 84.2866 1744.59 84.2866 Q1733.44 84.2866 1727.09 77.0644 Q1720.8 69.7959 1720.8 57.0645 Q1720.8 44.2868 1727.09 37.0646 Q1733.44 29.8424 1744.59 29.8424 Z" fill="#000000" fill-rule="evenodd" fill-opacity="1" /><path clip-path="url(#clip140)" d="M1782.51 10.9073 L1791.03 10.9073 L1791.03 82.944 L1782.51 82.944 L1782.51 10.9073 Z" fill="#000000" fill-rule="evenodd" fill-opacity="1" /><path clip-path="url(#clip140)" d="M1807.97 62.4811 L1807.97 31.0924 L1816.49 31.0924 L1816.49 62.1571 Q1816.49 69.5181 1819.36 73.2218 Q1822.23 76.8792 1827.97 76.8792 Q1834.87 76.8792 1838.85 72.4811 Q1842.88 68.083 1842.88 60.4904 L1842.88 31.0924 L1851.4 31.0924 L1851.4 82.944 L1842.88 82.944 L1842.88 74.9811 Q1839.78 79.7033 1835.66 82.0181 Q1831.58 84.2866 1826.17 84.2866 Q1817.23 84.2866 1812.6 78.7311 Q1807.97 73.1755 1807.97 62.4811 M1829.41 29.8424 L1829.41 29.8424 Z" fill="#000000" fill-rule="evenodd" fill-opacity="1" /><path clip-path="url(#clip140)" d="M1909.32 41.0461 Q1912.51 35.3054 1916.95 32.5739 Q1921.4 29.8424 1927.42 29.8424 Q1935.52 29.8424 1939.92 35.5368 Q1944.32 41.185 1944.32 51.6479 L1944.32 82.944 L1935.75 82.944 L1935.75 51.9256 Q1935.75 44.472 1933.11 40.8609 Q1930.47 37.2498 1925.06 37.2498 Q1918.44 37.2498 1914.59 41.6479 Q1910.75 46.046 1910.75 53.6386 L1910.75 82.944 L1902.19 82.944 L1902.19 51.9256 Q1902.19 44.4257 1899.55 40.8609 Q1896.91 37.2498 1891.4 37.2498 Q1884.87 37.2498 1881.03 41.6942 Q1877.19 46.0923 1877.19 53.6386 L1877.19 82.944 L1868.62 82.944 L1868.62 31.0924 L1877.19 31.0924 L1877.19 39.1479 Q1880.1 34.3794 1884.18 32.1109 Q1888.25 29.8424 1893.85 29.8424 Q1899.5 29.8424 1903.44 32.7128 Q1907.42 35.5831 1909.32 41.0461 Z" fill="#000000" fill-rule="evenodd" fill-opacity="1" /><path clip-path="url(#clip140)" d="M2004.41 51.6479 L2004.41 82.944 L1995.89 82.944 L1995.89 51.9256 Q1995.89 44.5646 1993.02 40.9072 Q1990.15 37.2498 1984.41 37.2498 Q1977.51 37.2498 1973.53 41.6479 Q1969.55 46.046 1969.55 53.6386 L1969.55 82.944 L1960.98 82.944 L1960.98 31.0924 L1969.55 31.0924 L1969.55 39.1479 Q1972.6 34.472 1976.72 32.1572 Q1980.89 29.8424 1986.31 29.8424 Q1995.24 29.8424 1999.82 35.398 Q2004.41 40.9072 2004.41 51.6479 Z" fill="#000000" fill-rule="evenodd" fill-opacity="1" /></svg>
