<?xml version="1.0" encoding="utf-8"?>
<svg xmlns="http://www.w3.org/2000/svg" xmlns:xlink="http://www.w3.org/1999/xlink" width="600" height="400" viewBox="0 0 2400 1600">
<defs>
  <clipPath id="clip060">
    <rect x="0" y="0" width="2400" height="1600"/>
  </clipPath>
</defs>
<path clip-path="url(#clip060)" d="
M0 1600 L2400 1600 L2400 0 L0 0  Z
  " fill="#ffffff" fill-rule="evenodd" fill-opacity="1"/>
<defs>
  <clipPath id="clip061">
    <rect x="480" y="0" width="1681" height="1600"/>
  </clipPath>
</defs>
<path clip-path="url(#clip060)" d="
M251.372 1410.9 L1184.39 1410.9 L1184.39 266.192 L251.372 266.192  Z
  " fill="#ffffff" fill-rule="evenodd" fill-opacity="1"/>
<defs>
  <clipPath id="clip062">
    <rect x="251" y="266" width="934" height="1146"/>
  </clipPath>
</defs>
<polyline clip-path="url(#clip062)" style="stroke:#000000; stroke-linecap:butt; stroke-linejoin:round; stroke-width:2; stroke-opacity:0.1; fill:none" points="
  277.778,1410.9 277.778,266.192 
  "/>
<polyline clip-path="url(#clip062)" style="stroke:#000000; stroke-linecap:butt; stroke-linejoin:round; stroke-width:2; stroke-opacity:0.1; fill:none" points="
  571.18,1410.9 571.18,266.192 
  "/>
<polyline clip-path="url(#clip062)" style="stroke:#000000; stroke-linecap:butt; stroke-linejoin:round; stroke-width:2; stroke-opacity:0.1; fill:none" points="
  864.582,1410.9 864.582,266.192 
  "/>
<polyline clip-path="url(#clip062)" style="stroke:#000000; stroke-linecap:butt; stroke-linejoin:round; stroke-width:2; stroke-opacity:0.1; fill:none" points="
  1157.98,1410.9 1157.98,266.192 
  "/>
<polyline clip-path="url(#clip060)" style="stroke:#000000; stroke-linecap:butt; stroke-linejoin:round; stroke-width:4; stroke-opacity:1; fill:none" points="
  251.372,1410.9 1184.39,1410.9 
  "/>
<polyline clip-path="url(#clip060)" style="stroke:#000000; stroke-linecap:butt; stroke-linejoin:round; stroke-width:4; stroke-opacity:1; fill:none" points="
  277.778,1410.9 277.778,1392 
  "/>
<polyline clip-path="url(#clip060)" style="stroke:#000000; stroke-linecap:butt; stroke-linejoin:round; stroke-width:4; stroke-opacity:1; fill:none" points="
  571.18,1410.9 571.18,1392 
  "/>
<polyline clip-path="url(#clip060)" style="stroke:#000000; stroke-linecap:butt; stroke-linejoin:round; stroke-width:4; stroke-opacity:1; fill:none" points="
  864.582,1410.9 864.582,1392 
  "/>
<polyline clip-path="url(#clip060)" style="stroke:#000000; stroke-linecap:butt; stroke-linejoin:round; stroke-width:4; stroke-opacity:1; fill:none" points="
  1157.98,1410.9 1157.98,1392 
  "/>
<path clip-path="url(#clip060)" d="M242.771 1485.02 L250.409 1485.02 L250.409 1458.66 L242.099 1460.32 L242.099 1456.06 L250.363 1454.4 L255.039 1454.4 L255.039 1485.02 L262.678 1485.02 L262.678 1488.96 L242.771 1488.96 L242.771 1485.02 Z" fill="#000000" fill-rule="evenodd" fill-opacity="1" /><path clip-path="url(#clip060)" d="M282.122 1457.48 Q278.511 1457.48 276.682 1461.04 Q274.877 1464.58 274.877 1471.71 Q274.877 1478.82 276.682 1482.38 Q278.511 1485.92 282.122 1485.92 Q285.756 1485.92 287.562 1482.38 Q289.391 1478.82 289.391 1471.71 Q289.391 1464.58 287.562 1461.04 Q285.756 1457.48 282.122 1457.48 M282.122 1453.77 Q287.932 1453.77 290.988 1458.38 Q294.067 1462.96 294.067 1471.71 Q294.067 1480.44 290.988 1485.04 Q287.932 1489.63 282.122 1489.63 Q276.312 1489.63 273.233 1485.04 Q270.178 1480.44 270.178 1471.71 Q270.178 1462.96 273.233 1458.38 Q276.312 1453.77 282.122 1453.77 Z" fill="#000000" fill-rule="evenodd" fill-opacity="1" /><path clip-path="url(#clip060)" d="M304.091 1445.99 Q301.533 1445.99 300.029 1447.74 Q298.543 1449.49 298.543 1452.54 Q298.543 1455.57 300.029 1457.33 Q301.533 1459.08 304.091 1459.08 Q306.649 1459.08 308.135 1457.33 Q309.639 1455.57 309.639 1452.54 Q309.639 1449.49 308.135 1447.74 Q306.649 1445.99 304.091 1445.99 M311.633 1434.09 L311.633 1437.55 Q310.204 1436.87 308.737 1436.51 Q307.288 1436.16 305.859 1436.16 Q302.098 1436.16 300.104 1438.69 Q298.129 1441.23 297.847 1446.37 Q298.957 1444.73 300.63 1443.87 Q302.304 1442.98 304.317 1442.98 Q308.549 1442.98 310.994 1445.56 Q313.457 1448.12 313.457 1452.54 Q313.457 1456.86 310.9 1459.48 Q308.342 1462.09 304.091 1462.09 Q299.22 1462.09 296.643 1458.37 Q294.067 1454.62 294.067 1447.53 Q294.067 1440.88 297.226 1436.93 Q300.386 1432.96 305.709 1432.96 Q307.138 1432.96 308.586 1433.24 Q310.053 1433.52 311.633 1434.09 Z" fill="#000000" fill-rule="evenodd" fill-opacity="1" /><path clip-path="url(#clip060)" d="M536.84 1485.02 L544.479 1485.02 L544.479 1458.66 L536.169 1460.32 L536.169 1456.06 L544.433 1454.4 L549.109 1454.4 L549.109 1485.02 L556.747 1485.02 L556.747 1488.96 L536.84 1488.96 L536.84 1485.02 Z" fill="#000000" fill-rule="evenodd" fill-opacity="1" /><path clip-path="url(#clip060)" d="M576.192 1457.48 Q572.581 1457.48 570.752 1461.04 Q568.946 1464.58 568.946 1471.71 Q568.946 1478.82 570.752 1482.38 Q572.581 1485.92 576.192 1485.92 Q579.826 1485.92 581.631 1482.38 Q583.46 1478.82 583.46 1471.71 Q583.46 1464.58 581.631 1461.04 Q579.826 1457.48 576.192 1457.48 M576.192 1453.77 Q582.002 1453.77 585.057 1458.38 Q588.136 1462.96 588.136 1471.71 Q588.136 1480.44 585.057 1485.04 Q582.002 1489.63 576.192 1489.63 Q570.382 1489.63 567.303 1485.04 Q564.247 1480.44 564.247 1471.71 Q564.247 1462.96 567.303 1458.38 Q570.382 1453.77 576.192 1453.77 Z" fill="#000000" fill-rule="evenodd" fill-opacity="1" /><path clip-path="url(#clip060)" d="M588.136 1433.47 L606.192 1433.47 L606.192 1435.08 L595.998 1461.55 L592.029 1461.55 L601.621 1436.66 L588.136 1436.66 L588.136 1433.47 Z" fill="#000000" fill-rule="evenodd" fill-opacity="1" /><path clip-path="url(#clip060)" d="M829.64 1485.02 L837.279 1485.02 L837.279 1458.66 L828.969 1460.32 L828.969 1456.06 L837.233 1454.4 L841.908 1454.4 L841.908 1485.02 L849.547 1485.02 L849.547 1488.96 L829.64 1488.96 L829.64 1485.02 Z" fill="#000000" fill-rule="evenodd" fill-opacity="1" /><path clip-path="url(#clip060)" d="M868.992 1457.48 Q865.381 1457.48 863.552 1461.04 Q861.746 1464.58 861.746 1471.71 Q861.746 1478.82 863.552 1482.38 Q865.381 1485.92 868.992 1485.92 Q872.626 1485.92 874.431 1482.38 Q876.26 1478.82 876.26 1471.71 Q876.26 1464.58 874.431 1461.04 Q872.626 1457.48 868.992 1457.48 M868.992 1453.77 Q874.802 1453.77 877.857 1458.38 Q880.936 1462.96 880.936 1471.71 Q880.936 1480.44 877.857 1485.04 Q874.802 1489.63 868.992 1489.63 Q863.181 1489.63 860.103 1485.04 Q857.047 1480.44 857.047 1471.71 Q857.047 1462.96 860.103 1458.38 Q863.181 1453.77 868.992 1453.77 Z" fill="#000000" fill-rule="evenodd" fill-opacity="1" /><path clip-path="url(#clip060)" d="M890.566 1448.21 Q887.857 1448.21 886.296 1449.66 Q884.754 1451.11 884.754 1453.65 Q884.754 1456.19 886.296 1457.63 Q887.857 1459.08 890.566 1459.08 Q893.274 1459.08 894.835 1457.63 Q896.396 1456.17 896.396 1453.65 Q896.396 1451.11 894.835 1449.66 Q893.293 1448.21 890.566 1448.21 M886.766 1446.59 Q884.321 1445.99 882.948 1444.32 Q881.594 1442.64 881.594 1440.24 Q881.594 1436.87 883.983 1434.91 Q886.39 1432.96 890.566 1432.96 Q894.76 1432.96 897.148 1434.91 Q899.537 1436.87 899.537 1440.24 Q899.537 1442.64 898.164 1444.32 Q896.81 1445.99 894.384 1446.59 Q897.13 1447.23 898.653 1449.1 Q900.195 1450.96 900.195 1453.65 Q900.195 1457.73 897.694 1459.91 Q895.211 1462.09 890.566 1462.09 Q885.92 1462.09 883.419 1459.91 Q880.936 1457.73 880.936 1453.65 Q880.936 1450.96 882.478 1449.1 Q884.021 1447.23 886.766 1446.59 M885.375 1440.59 Q885.375 1442.78 886.729 1444 Q888.102 1445.22 890.566 1445.22 Q893.011 1445.22 894.384 1444 Q895.775 1442.78 895.775 1440.59 Q895.775 1438.41 894.384 1437.19 Q893.011 1435.97 890.566 1435.97 Q888.102 1435.97 886.729 1437.19 Q885.375 1438.41 885.375 1440.59 Z" fill="#000000" fill-rule="evenodd" fill-opacity="1" /><path clip-path="url(#clip060)" d="M1122.99 1485.02 L1130.62 1485.02 L1130.62 1458.66 L1122.31 1460.32 L1122.31 1456.06 L1130.58 1454.4 L1135.25 1454.4 L1135.25 1485.02 L1142.89 1485.02 L1142.89 1488.96 L1122.99 1488.96 L1122.99 1485.02 Z" fill="#000000" fill-rule="evenodd" fill-opacity="1" /><path clip-path="url(#clip060)" d="M1162.34 1457.48 Q1158.73 1457.48 1156.9 1461.04 Q1155.09 1464.58 1155.09 1471.71 Q1155.09 1478.82 1156.9 1482.38 Q1158.73 1485.92 1162.34 1485.92 Q1165.97 1485.92 1167.78 1482.38 Q1169.61 1478.82 1169.61 1471.71 Q1169.61 1464.58 1167.78 1461.04 Q1165.97 1457.48 1162.34 1457.48 M1162.34 1453.77 Q1168.15 1453.77 1171.2 1458.38 Q1174.28 1462.96 1174.28 1471.71 Q1174.28 1480.44 1171.2 1485.04 Q1168.15 1489.63 1162.34 1489.63 Q1156.53 1489.63 1153.45 1485.04 Q1150.39 1480.44 1150.39 1471.71 Q1150.39 1462.96 1153.45 1458.38 Q1156.53 1453.77 1162.34 1453.77 Z" fill="#000000" fill-rule="evenodd" fill-opacity="1" /><path clip-path="url(#clip060)" d="M1176.09 1460.96 L1176.09 1457.5 Q1177.52 1458.18 1178.98 1458.54 Q1180.45 1458.89 1181.86 1458.89 Q1185.62 1458.89 1187.6 1456.37 Q1189.59 1453.84 1189.87 1448.68 Q1188.78 1450.3 1187.11 1451.16 Q1185.43 1452.03 1183.4 1452.03 Q1179.19 1452.03 1176.73 1449.49 Q1174.28 1446.93 1174.28 1442.51 Q1174.28 1438.19 1176.84 1435.57 Q1179.4 1432.96 1183.65 1432.96 Q1188.52 1432.96 1191.08 1436.7 Q1193.65 1440.43 1193.65 1447.53 Q1193.65 1454.17 1190.49 1458.14 Q1187.35 1462.09 1182.03 1462.09 Q1180.6 1462.09 1179.13 1461.81 Q1177.67 1461.53 1176.09 1460.96 M1183.65 1449.06 Q1186.21 1449.06 1187.69 1447.31 Q1189.2 1445.56 1189.2 1442.51 Q1189.2 1439.48 1187.69 1437.74 Q1186.21 1435.97 1183.65 1435.97 Q1181.09 1435.97 1179.59 1437.74 Q1178.1 1439.48 1178.1 1442.51 Q1178.1 1445.56 1179.59 1447.31 Q1181.09 1449.06 1183.65 1449.06 Z" fill="#000000" fill-rule="evenodd" fill-opacity="1" /><path clip-path="url(#clip060)" d="M732.809 1552.67 L732.809 1574.19 L726.952 1574.19 L726.952 1552.86 Q726.952 1547.8 724.979 1545.29 Q723.005 1542.77 719.059 1542.77 Q714.316 1542.77 711.579 1545.79 Q708.842 1548.82 708.842 1554.04 L708.842 1574.19 L702.953 1574.19 L702.953 1538.54 L708.842 1538.54 L708.842 1544.08 Q710.942 1540.86 713.775 1539.27 Q716.64 1537.68 720.364 1537.68 Q726.507 1537.68 729.658 1541.5 Q732.809 1545.29 732.809 1552.67 Z" fill="#000000" fill-rule="evenodd" fill-opacity="1" /><polyline clip-path="url(#clip062)" style="stroke:#000000; stroke-linecap:butt; stroke-linejoin:round; stroke-width:2; stroke-opacity:0.1; fill:none" points="
  251.372,1144.89 1184.39,1144.89 
  "/>
<polyline clip-path="url(#clip062)" style="stroke:#000000; stroke-linecap:butt; stroke-linejoin:round; stroke-width:2; stroke-opacity:0.1; fill:none" points="
  251.372,905.876 1184.39,905.876 
  "/>
<polyline clip-path="url(#clip062)" style="stroke:#000000; stroke-linecap:butt; stroke-linejoin:round; stroke-width:2; stroke-opacity:0.1; fill:none" points="
  251.372,666.864 1184.39,666.864 
  "/>
<polyline clip-path="url(#clip062)" style="stroke:#000000; stroke-linecap:butt; stroke-linejoin:round; stroke-width:2; stroke-opacity:0.1; fill:none" points="
  251.372,427.852 1184.39,427.852 
  "/>
<polyline clip-path="url(#clip060)" style="stroke:#000000; stroke-linecap:butt; stroke-linejoin:round; stroke-width:4; stroke-opacity:1; fill:none" points="
  251.372,1410.9 251.372,266.192 
  "/>
<polyline clip-path="url(#clip060)" style="stroke:#000000; stroke-linecap:butt; stroke-linejoin:round; stroke-width:4; stroke-opacity:1; fill:none" points="
  251.372,1144.89 270.27,1144.89 
  "/>
<polyline clip-path="url(#clip060)" style="stroke:#000000; stroke-linecap:butt; stroke-linejoin:round; stroke-width:4; stroke-opacity:1; fill:none" points="
  251.372,905.876 270.27,905.876 
  "/>
<polyline clip-path="url(#clip060)" style="stroke:#000000; stroke-linecap:butt; stroke-linejoin:round; stroke-width:4; stroke-opacity:1; fill:none" points="
  251.372,666.864 270.27,666.864 
  "/>
<polyline clip-path="url(#clip060)" style="stroke:#000000; stroke-linecap:butt; stroke-linejoin:round; stroke-width:4; stroke-opacity:1; fill:none" points="
  251.372,427.852 270.27,427.852 
  "/>
<path clip-path="url(#clip060)" d="M115.232 1164.68 L122.871 1164.68 L122.871 1138.31 L114.561 1139.98 L114.561 1135.72 L122.825 1134.06 L127.501 1134.06 L127.501 1164.68 L135.14 1164.68 L135.14 1168.62 L115.232 1168.62 L115.232 1164.68 Z" fill="#000000" fill-rule="evenodd" fill-opacity="1" /><path clip-path="url(#clip060)" d="M154.584 1137.13 Q150.973 1137.13 149.144 1140.7 Q147.339 1144.24 147.339 1151.37 Q147.339 1158.48 149.144 1162.04 Q150.973 1165.58 154.584 1165.58 Q158.218 1165.58 160.024 1162.04 Q161.852 1158.48 161.852 1151.37 Q161.852 1144.24 160.024 1140.7 Q158.218 1137.13 154.584 1137.13 M154.584 1133.43 Q160.394 1133.43 163.45 1138.04 Q166.528 1142.62 166.528 1151.37 Q166.528 1160.1 163.45 1164.7 Q160.394 1169.29 154.584 1169.29 Q148.774 1169.29 145.695 1164.7 Q142.64 1160.1 142.64 1151.37 Q142.64 1142.62 145.695 1138.04 Q148.774 1133.43 154.584 1133.43 Z" fill="#000000" fill-rule="evenodd" fill-opacity="1" /><path clip-path="url(#clip060)" d="M166.528 1127.53 L190.64 1127.53 L190.64 1130.73 L166.528 1130.73 L166.528 1127.53 Z" fill="#000000" fill-rule="evenodd" fill-opacity="1" /><path clip-path="url(#clip060)" d="M202.113 1138.01 L215.372 1138.01 L215.372 1141.2 L197.542 1141.2 L197.542 1138.01 Q199.705 1135.77 203.429 1132.01 Q207.172 1128.23 208.131 1127.14 Q209.956 1125.09 210.67 1123.68 Q211.404 1122.25 211.404 1120.87 Q211.404 1118.64 209.824 1117.22 Q208.263 1115.81 205.743 1115.81 Q203.956 1115.81 201.962 1116.43 Q199.987 1117.06 197.73 1118.32 L197.73 1114.48 Q200.025 1113.56 202.019 1113.09 Q204.012 1112.62 205.667 1112.62 Q210.031 1112.62 212.626 1114.8 Q215.222 1116.98 215.222 1120.63 Q215.222 1122.36 214.563 1123.92 Q213.924 1125.46 212.212 1127.57 Q211.742 1128.11 209.222 1130.73 Q206.702 1133.32 202.113 1138.01 Z" fill="#000000" fill-rule="evenodd" fill-opacity="1" /><path clip-path="url(#clip060)" d="M114.931 925.668 L122.57 925.668 L122.57 899.303 L114.26 900.969 L114.26 896.71 L122.524 895.043 L127.2 895.043 L127.2 925.668 L134.839 925.668 L134.839 929.603 L114.931 929.603 L114.931 925.668 Z" fill="#000000" fill-rule="evenodd" fill-opacity="1" /><path clip-path="url(#clip060)" d="M154.283 898.122 Q150.672 898.122 148.843 901.687 Q147.038 905.229 147.038 912.358 Q147.038 919.465 148.843 923.029 Q150.672 926.571 154.283 926.571 Q157.917 926.571 159.723 923.029 Q161.552 919.465 161.552 912.358 Q161.552 905.229 159.723 901.687 Q157.917 898.122 154.283 898.122 M154.283 894.418 Q160.093 894.418 163.149 899.025 Q166.227 903.608 166.227 912.358 Q166.227 921.085 163.149 925.691 Q160.093 930.275 154.283 930.275 Q148.473 930.275 145.394 925.691 Q142.339 921.085 142.339 912.358 Q142.339 903.608 145.394 899.025 Q148.473 894.418 154.283 894.418 Z" fill="#000000" fill-rule="evenodd" fill-opacity="1" /><path clip-path="url(#clip060)" d="M166.227 888.52 L190.339 888.52 L190.339 891.717 L166.227 891.717 L166.227 888.52 Z" fill="#000000" fill-rule="evenodd" fill-opacity="1" /><path clip-path="url(#clip060)" d="M199.197 898.996 L205.404 898.996 L205.404 877.574 L198.652 878.928 L198.652 875.467 L205.366 874.113 L209.166 874.113 L209.166 898.996 L215.372 898.996 L215.372 902.193 L199.197 902.193 L199.197 898.996 Z" fill="#000000" fill-rule="evenodd" fill-opacity="1" /><path clip-path="url(#clip060)" d="M144.667 686.656 L152.305 686.656 L152.305 660.291 L143.995 661.957 L143.995 657.698 L152.259 656.032 L156.935 656.032 L156.935 686.656 L164.574 686.656 L164.574 690.592 L144.667 690.592 L144.667 686.656 Z" fill="#000000" fill-rule="evenodd" fill-opacity="1" /><path clip-path="url(#clip060)" d="M184.018 659.11 Q180.407 659.11 178.578 662.675 Q176.773 666.217 176.773 673.346 Q176.773 680.453 178.578 684.018 Q180.407 687.559 184.018 687.559 Q187.652 687.559 189.458 684.018 Q191.287 680.453 191.287 673.346 Q191.287 666.217 189.458 662.675 Q187.652 659.11 184.018 659.11 M184.018 655.407 Q189.828 655.407 192.884 660.013 Q195.963 664.596 195.963 673.346 Q195.963 682.073 192.884 686.68 Q189.828 691.263 184.018 691.263 Q178.208 691.263 175.129 686.68 Q172.074 682.073 172.074 673.346 Q172.074 664.596 175.129 660.013 Q178.208 655.407 184.018 655.407 Z" fill="#000000" fill-rule="evenodd" fill-opacity="1" /><path clip-path="url(#clip060)" d="M205.667 637.603 Q202.733 637.603 201.248 640.499 Q199.781 643.377 199.781 649.169 Q199.781 654.943 201.248 657.84 Q202.733 660.717 205.667 660.717 Q208.62 660.717 210.087 657.84 Q211.573 654.943 211.573 649.169 Q211.573 643.377 210.087 640.499 Q208.62 637.603 205.667 637.603 M205.667 634.593 Q210.388 634.593 212.871 638.336 Q215.372 642.06 215.372 649.169 Q215.372 656.26 212.871 660.003 Q210.388 663.727 205.667 663.727 Q200.947 663.727 198.445 660.003 Q195.963 656.26 195.963 649.169 Q195.963 642.06 198.445 638.336 Q200.947 634.593 205.667 634.593 Z" fill="#000000" fill-rule="evenodd" fill-opacity="1" /><path clip-path="url(#clip060)" d="M147.356 447.645 L154.995 447.645 L154.995 421.279 L146.685 422.946 L146.685 418.686 L154.949 417.02 L159.624 417.02 L159.624 447.645 L167.263 447.645 L167.263 451.58 L147.356 451.58 L147.356 447.645 Z" fill="#000000" fill-rule="evenodd" fill-opacity="1" /><path clip-path="url(#clip060)" d="M186.708 420.098 Q183.097 420.098 181.268 423.663 Q179.462 427.205 179.462 434.334 Q179.462 441.441 181.268 445.006 Q183.097 448.547 186.708 448.547 Q190.342 448.547 192.147 445.006 Q193.976 441.441 193.976 434.334 Q193.976 427.205 192.147 423.663 Q190.342 420.098 186.708 420.098 M186.708 416.395 Q192.518 416.395 195.573 421.001 Q198.652 425.585 198.652 434.334 Q198.652 443.061 195.573 447.668 Q192.518 452.251 186.708 452.251 Q180.898 452.251 177.819 447.668 Q174.763 443.061 174.763 434.334 Q174.763 425.585 177.819 421.001 Q180.898 416.395 186.708 416.395 Z" fill="#000000" fill-rule="evenodd" fill-opacity="1" /><path clip-path="url(#clip060)" d="M199.197 420.972 L205.404 420.972 L205.404 399.55 L198.652 400.904 L198.652 397.443 L205.366 396.089 L209.166 396.089 L209.166 420.972 L215.372 420.972 L215.372 424.169 L199.197 424.169 L199.197 420.972 Z" fill="#000000" fill-rule="evenodd" fill-opacity="1" /><path clip-path="url(#clip060)" d="M18.2347 951.09 L28.3562 951.09 L28.3562 939.027 L32.9077 939.027 L32.9077 951.09 L52.2594 951.09 Q56.6199 951.09 57.8613 949.912 Q59.1026 948.703 59.1026 945.043 L59.1026 939.027 L64.0042 939.027 L64.0042 945.043 Q64.0042 951.822 61.4897 954.4 Q58.9434 956.978 52.2594 956.978 L32.9077 956.978 L32.9077 961.275 L28.3562 961.275 L28.3562 956.978 L18.2347 956.978 L18.2347 951.09 Z" fill="#000000" fill-rule="evenodd" fill-opacity="1" /><path clip-path="url(#clip060)" d="M28.3562 931.325 L28.3562 925.468 L64.0042 925.468 L64.0042 931.325 L28.3562 931.325 M14.479 931.325 L14.479 925.468 L21.895 925.468 L21.895 931.325 L14.479 931.325 Z" fill="#000000" fill-rule="evenodd" fill-opacity="1" /><path clip-path="url(#clip060)" d="M35.1993 885.46 Q31.2526 883.263 29.3747 880.208 Q27.4968 877.152 27.4968 873.015 Q27.4968 867.445 31.4117 864.421 Q35.2948 861.397 42.4881 861.397 L64.0042 861.397 L64.0042 867.286 L42.679 867.286 Q37.5546 867.286 35.072 869.1 Q32.5894 870.914 32.5894 874.638 Q32.5894 879.189 35.6131 881.831 Q38.6368 884.473 43.8567 884.473 L64.0042 884.473 L64.0042 890.361 L42.679 890.361 Q37.5228 890.361 35.072 892.175 Q32.5894 893.99 32.5894 897.777 Q32.5894 902.265 35.6449 904.907 Q38.6686 907.549 43.8567 907.549 L64.0042 907.549 L64.0042 913.437 L28.3562 913.437 L28.3562 907.549 L33.8944 907.549 Q30.616 905.543 29.0564 902.743 Q27.4968 899.942 27.4968 896.09 Q27.4968 892.207 29.4702 889.502 Q31.4436 886.765 35.1993 885.46 Z" fill="#000000" fill-rule="evenodd" fill-opacity="1" /><path clip-path="url(#clip060)" d="M44.7161 819.224 L47.5806 819.224 L47.5806 846.151 Q53.6281 845.769 56.8109 842.523 Q59.9619 839.245 59.9619 833.42 Q59.9619 830.046 59.1344 826.895 Q58.3069 823.712 56.6518 820.593 L62.1899 820.593 Q63.5267 823.744 64.227 827.054 Q64.9272 830.364 64.9272 833.77 Q64.9272 842.3 59.9619 847.297 Q54.9967 852.262 46.5303 852.262 Q37.7774 852.262 32.6531 847.552 Q27.4968 842.809 27.4968 834.789 Q27.4968 827.595 32.1438 823.426 Q36.7589 819.224 44.7161 819.224 M42.9973 825.081 Q38.1912 825.145 35.3266 827.786 Q32.4621 830.396 32.4621 834.725 Q32.4621 839.627 35.2312 842.587 Q38.0002 845.515 43.0292 845.96 L42.9973 825.081 Z" fill="#000000" fill-rule="evenodd" fill-opacity="1" /><path clip-path="url(#clip060)" d="M14.479 789.433 L14.479 775.938 L19.0304 775.938 L19.0304 783.577 L68.0464 783.577 L68.0464 775.938 L72.5979 775.938 L72.5979 789.433 L14.479 789.433 Z" fill="#000000" fill-rule="evenodd" fill-opacity="1" /><path clip-path="url(#clip060)" d="M29.4065 740.735 L34.9447 740.735 Q33.6716 743.218 33.035 745.892 Q32.3984 748.565 32.3984 751.43 Q32.3984 755.79 33.7352 757.986 Q35.072 760.151 37.7456 760.151 Q39.7826 760.151 40.9603 758.591 Q42.1061 757.032 43.1565 752.321 L43.6021 750.316 Q44.9389 744.077 47.3897 741.467 Q49.8086 738.826 54.1691 738.826 Q59.1344 738.826 62.0308 742.772 Q64.9272 746.687 64.9272 753.562 Q64.9272 756.427 64.3543 759.546 Q63.8132 762.633 62.6992 766.071 L56.6518 766.071 Q58.3387 762.824 59.198 759.673 Q60.0256 756.522 60.0256 753.435 Q60.0256 749.297 58.6251 747.069 Q57.1929 744.841 54.6147 744.841 Q52.2276 744.841 50.9545 746.464 Q49.6813 748.056 48.5037 753.499 L48.0262 755.536 Q46.8804 760.978 44.5251 763.397 Q42.138 765.816 38.0002 765.816 Q32.9713 765.816 30.2341 762.251 Q27.4968 758.687 27.4968 752.13 Q27.4968 748.883 27.9743 746.019 Q28.4517 743.154 29.4065 740.735 Z" fill="#000000" fill-rule="evenodd" fill-opacity="1" /><path clip-path="url(#clip060)" d="M14.479 715.814 L72.5979 715.814 L72.5979 729.309 L68.0464 729.309 L68.0464 721.702 L19.0304 721.702 L19.0304 729.309 L14.479 729.309 L14.479 715.814 Z" fill="#000000" fill-rule="evenodd" fill-opacity="1" /><path clip-path="url(#clip060)" d="M524.45 180.677 L524.45 185.654 Q522.193 184.41 519.908 183.802 Q517.651 183.165 515.336 183.165 Q510.156 183.165 507.292 186.464 Q504.427 189.734 504.427 195.665 Q504.427 201.597 507.292 204.896 Q510.156 208.165 515.336 208.165 Q517.651 208.165 519.908 207.558 Q522.193 206.921 524.45 205.677 L524.45 210.596 Q522.222 211.637 519.821 212.158 Q517.448 212.679 514.757 212.679 Q507.437 212.679 503.125 208.078 Q498.814 203.478 498.814 195.665 Q498.814 187.737 503.154 183.194 Q507.523 178.652 515.104 178.652 Q517.564 178.652 519.908 179.172 Q522.251 179.664 524.45 180.677 Z" fill="#000000" fill-rule="evenodd" fill-opacity="1" /><path clip-path="url(#clip060)" d="M560.648 192.28 L560.648 211.84 L555.324 211.84 L555.324 192.454 Q555.324 187.853 553.53 185.567 Q551.736 183.281 548.148 183.281 Q543.837 183.281 541.348 186.03 Q538.86 188.779 538.86 193.524 L538.86 211.84 L533.507 211.84 L533.507 166.817 L538.86 166.817 L538.86 184.467 Q540.77 181.545 543.345 180.098 Q545.949 178.652 549.334 178.652 Q554.919 178.652 557.784 182.124 Q560.648 185.567 560.648 192.28 Z" fill="#000000" fill-rule="evenodd" fill-opacity="1" /><path clip-path="url(#clip060)" d="M570.717 199.051 L570.717 179.433 L576.042 179.433 L576.042 198.848 Q576.042 203.449 577.836 205.764 Q579.629 208.05 583.217 208.05 Q587.529 208.05 590.017 205.301 Q592.534 202.552 592.534 197.807 L592.534 179.433 L597.859 179.433 L597.859 211.84 L592.534 211.84 L592.534 206.863 Q590.596 209.815 588.021 211.261 Q585.474 212.679 582.089 212.679 Q576.504 212.679 573.611 209.207 Q570.717 205.735 570.717 199.051 M584.114 178.652 L584.114 178.652 Z" fill="#000000" fill-rule="evenodd" fill-opacity="1" /><path clip-path="url(#clip060)" d="M635.763 192.28 L635.763 211.84 L630.439 211.84 L630.439 192.454 Q630.439 187.853 628.645 185.567 Q626.851 183.281 623.263 183.281 Q618.952 183.281 616.464 186.03 Q613.975 188.779 613.975 193.524 L613.975 211.84 L608.622 211.84 L608.622 179.433 L613.975 179.433 L613.975 184.467 Q615.885 181.545 618.46 180.098 Q621.064 178.652 624.45 178.652 Q630.034 178.652 632.899 182.124 Q635.763 185.567 635.763 192.28 Z" fill="#000000" fill-rule="evenodd" fill-opacity="1" /><path clip-path="url(#clip060)" d="M646.18 166.817 L651.533 166.817 L651.533 193.408 L667.418 179.433 L674.218 179.433 L657.031 194.595 L674.941 211.84 L667.997 211.84 L651.533 196.013 L651.533 211.84 L646.18 211.84 L646.18 166.817 Z" fill="#000000" fill-rule="evenodd" fill-opacity="1" /><path clip-path="url(#clip060)" d="M701.359 180.388 L701.359 185.422 Q699.102 184.265 696.672 183.686 Q694.241 183.108 691.637 183.108 Q687.673 183.108 685.676 184.323 Q683.709 185.538 683.709 187.969 Q683.709 189.82 685.127 190.891 Q686.544 191.933 690.827 192.888 L692.65 193.293 Q698.321 194.508 700.694 196.736 Q703.095 198.935 703.095 202.899 Q703.095 207.413 699.507 210.046 Q695.948 212.679 689.698 212.679 Q687.094 212.679 684.259 212.158 Q681.452 211.666 678.327 210.654 L678.327 205.156 Q681.278 206.69 684.143 207.471 Q687.007 208.223 689.814 208.223 Q693.576 208.223 695.601 206.95 Q697.627 205.648 697.627 203.304 Q697.627 201.134 696.151 199.977 Q694.704 198.819 689.756 197.749 L687.904 197.315 Q682.956 196.273 680.757 194.132 Q678.558 191.962 678.558 188.2 Q678.558 183.628 681.799 181.14 Q685.04 178.652 691 178.652 Q693.952 178.652 696.556 179.086 Q699.16 179.52 701.359 180.388 Z" fill="#000000" fill-rule="evenodd" fill-opacity="1" /><path clip-path="url(#clip060)" d="M711.573 179.433 L716.897 179.433 L716.897 211.84 L711.573 211.84 L711.573 179.433 M711.573 166.817 L716.897 166.817 L716.897 173.559 L711.573 173.559 L711.573 166.817 Z" fill="#000000" fill-rule="evenodd" fill-opacity="1" /><path clip-path="url(#clip060)" d="M725.722 179.433 L751.012 179.433 L751.012 184.294 L730.989 207.587 L751.012 207.587 L751.012 211.84 L724.999 211.84 L724.999 206.979 L745.022 183.686 L725.722 183.686 L725.722 179.433 Z" fill="#000000" fill-rule="evenodd" fill-opacity="1" /><path clip-path="url(#clip060)" d="M786.862 194.305 L786.862 196.91 L762.383 196.91 Q762.73 202.407 765.682 205.301 Q768.662 208.165 773.957 208.165 Q777.024 208.165 779.889 207.413 Q782.782 206.661 785.618 205.156 L785.618 210.191 Q782.753 211.406 779.744 212.043 Q776.735 212.679 773.639 212.679 Q765.884 212.679 761.341 208.165 Q756.828 203.651 756.828 195.955 Q756.828 187.998 761.11 183.339 Q765.421 178.652 772.713 178.652 Q779.252 178.652 783.043 182.876 Q786.862 187.072 786.862 194.305 M781.538 192.743 Q781.48 188.374 779.079 185.77 Q776.706 183.165 772.771 183.165 Q768.315 183.165 765.624 185.683 Q762.962 188.2 762.557 192.772 L781.538 192.743 Z" fill="#000000" fill-rule="evenodd" fill-opacity="1" /><path clip-path="url(#clip060)" d="M796.96 204.491 L803.066 204.491 L803.066 211.84 L796.96 211.84 L796.96 204.491 M796.96 181.198 L803.066 181.198 L803.066 188.547 L796.96 188.547 L796.96 181.198 Z" fill="#000000" fill-rule="evenodd" fill-opacity="1" /><path clip-path="url(#clip060)" d="M836.167 206.921 L845.716 206.921 L845.716 173.964 L835.328 176.047 L835.328 170.723 L845.658 168.64 L851.503 168.64 L851.503 206.921 L861.052 206.921 L861.052 211.84 L836.167 211.84 L836.167 206.921 Z" fill="#000000" fill-rule="evenodd" fill-opacity="1" /><path clip-path="url(#clip060)" d="M899.825 194.305 L899.825 196.91 L875.345 196.91 Q875.693 202.407 878.644 205.301 Q881.624 208.165 886.919 208.165 Q889.987 208.165 892.851 207.413 Q895.745 206.661 898.58 205.156 L898.58 210.191 Q895.716 211.406 892.706 212.043 Q889.697 212.679 886.601 212.679 Q878.847 212.679 874.304 208.165 Q869.79 203.651 869.79 195.955 Q869.79 187.998 874.072 183.339 Q878.384 178.652 885.675 178.652 Q892.215 178.652 896.005 182.876 Q899.825 187.072 899.825 194.305 M894.5 192.743 Q894.443 188.374 892.041 185.77 Q889.668 183.165 885.733 183.165 Q881.277 183.165 878.586 185.683 Q875.924 188.2 875.519 192.772 L894.5 192.743 Z" fill="#000000" fill-rule="evenodd" fill-opacity="1" /><path clip-path="url(#clip060)" d="M922.539 187.911 Q918.603 187.911 916.289 190.602 Q914.003 193.293 914.003 197.98 Q914.003 202.639 916.289 205.359 Q918.603 208.05 922.539 208.05 Q926.474 208.05 928.76 205.359 Q931.074 202.639 931.074 197.98 Q931.074 193.293 928.76 190.602 Q926.474 187.911 922.539 187.911 M934.141 169.595 L934.141 174.919 Q931.942 173.877 929.685 173.327 Q927.457 172.778 925.258 172.778 Q919.471 172.778 916.404 176.684 Q913.366 180.59 912.932 188.489 Q914.639 185.972 917.214 184.641 Q919.79 183.281 922.886 183.281 Q929.396 183.281 933.158 187.245 Q936.948 191.18 936.948 197.98 Q936.948 204.635 933.013 208.657 Q929.078 212.679 922.539 212.679 Q915.044 212.679 911.08 206.95 Q907.116 201.192 907.116 190.283 Q907.116 180.04 911.977 173.964 Q916.838 167.859 925.027 167.859 Q927.226 167.859 929.454 168.293 Q931.711 168.727 934.141 169.595 Z" fill="#000000" fill-rule="evenodd" fill-opacity="1" /><polyline clip-path="url(#clip062)" style="stroke:#009af9; stroke-linecap:butt; stroke-linejoin:round; stroke-width:4; stroke-opacity:1; fill:none" points="
  277.778,1309.67 571.18,1138.24 864.582,908 1069.66,692.514 1157.98,581.939 
  "/>
<polyline clip-path="url(#clip062)" style="stroke:#e26f46; stroke-linecap:butt; stroke-linejoin:round; stroke-width:4; stroke-opacity:1; fill:none" points="
  277.778,1090.71 571.18,985.368 864.582,818.743 1069.66,641.352 1157.98,306.53 
  "/>
<polyline clip-path="url(#clip062)" style="stroke:#3da44d; stroke-linecap:butt; stroke-linejoin:round; stroke-width:4; stroke-opacity:1; fill:none" points="
  277.778,1378.5 571.18,1155.49 864.582,921.066 1069.66,754.039 1157.98,649.15 
  "/>
<path clip-path="url(#clip060)" d="
M282.473 511.709 L704.056 511.709 L704.056 304.349 L282.473 304.349  Z
  " fill="#ffffff" fill-rule="evenodd" fill-opacity="1"/>
<polyline clip-path="url(#clip060)" style="stroke:#000000; stroke-linecap:butt; stroke-linejoin:round; stroke-width:4; stroke-opacity:1; fill:none" points="
  282.473,511.709 704.056,511.709 704.056,304.349 282.473,304.349 282.473,511.709 
  "/>
<polyline clip-path="url(#clip060)" style="stroke:#009af9; stroke-linecap:butt; stroke-linejoin:round; stroke-width:4; stroke-opacity:1; fill:none" points="
  292.84,356.189 355.041,356.189 
  "/>
<path clip-path="url(#clip060)" d="M370.084 342.752 L370.084 369.626 L375.732 369.626 Q382.884 369.626 386.195 366.386 Q389.528 363.145 389.528 356.154 Q389.528 349.21 386.195 345.992 Q382.884 342.752 375.732 342.752 L370.084 342.752 M365.408 338.909 L375.014 338.909 Q385.06 338.909 389.759 343.099 Q394.458 347.265 394.458 356.154 Q394.458 365.089 389.736 369.279 Q385.014 373.469 375.014 373.469 L365.408 373.469 L365.408 338.909 Z" fill="#000000" fill-rule="evenodd" fill-opacity="1" /><path clip-path="url(#clip060)" d="M397.12 338.909 L426.356 338.909 L426.356 342.844 L414.088 342.844 L414.088 373.469 L409.389 373.469 L409.389 342.844 L397.12 342.844 L397.12 338.909 Z" fill="#000000" fill-rule="evenodd" fill-opacity="1" /><path clip-path="url(#clip060)" d="M434.62 360.437 Q429.458 360.437 427.468 361.617 Q425.477 362.798 425.477 365.645 Q425.477 367.913 426.958 369.256 Q428.463 370.575 431.032 370.575 Q434.574 370.575 436.704 368.075 Q438.856 365.552 438.856 361.386 L438.856 360.437 L434.62 360.437 M443.116 358.677 L443.116 373.469 L438.856 373.469 L438.856 369.534 Q437.398 371.895 435.222 373.029 Q433.046 374.14 429.898 374.14 Q425.917 374.14 423.556 371.918 Q421.218 369.673 421.218 365.923 Q421.218 361.548 424.134 359.326 Q427.074 357.103 432.884 357.103 L438.856 357.103 L438.856 356.687 Q438.856 353.747 436.912 352.15 Q434.991 350.529 431.495 350.529 Q429.273 350.529 427.167 351.062 Q425.06 351.594 423.116 352.659 L423.116 348.724 Q425.454 347.821 427.653 347.381 Q429.852 346.918 431.935 346.918 Q437.56 346.918 440.338 349.835 Q443.116 352.751 443.116 358.677 Z" fill="#000000" fill-rule="evenodd" fill-opacity="1" /><path clip-path="url(#clip060)" d="M470.5 360.529 Q470.5 355.83 468.555 353.168 Q466.634 350.483 463.254 350.483 Q459.875 350.483 457.93 353.168 Q456.009 355.83 456.009 360.529 Q456.009 365.228 457.93 367.913 Q459.875 370.575 463.254 370.575 Q466.634 370.575 468.555 367.913 Q470.5 365.228 470.5 360.529 M456.009 351.478 Q457.352 349.164 459.389 348.052 Q461.449 346.918 464.296 346.918 Q469.018 346.918 471.958 350.668 Q474.921 354.418 474.921 360.529 Q474.921 366.64 471.958 370.39 Q469.018 374.14 464.296 374.14 Q461.449 374.14 459.389 373.029 Q457.352 371.895 456.009 369.58 L456.009 373.469 L451.727 373.469 L451.727 337.451 L456.009 337.451 L456.009 351.478 Z" fill="#000000" fill-rule="evenodd" fill-opacity="1" /><path clip-path="url(#clip060)" d="M481.981 337.451 L486.24 337.451 L486.24 373.469 L481.981 373.469 L481.981 337.451 Z" fill="#000000" fill-rule="evenodd" fill-opacity="1" /><path clip-path="url(#clip060)" d="M517.328 359.441 L517.328 361.525 L497.745 361.525 Q498.023 365.923 500.384 368.237 Q502.768 370.529 507.004 370.529 Q509.458 370.529 511.749 369.927 Q514.064 369.325 516.333 368.122 L516.333 372.15 Q514.041 373.122 511.634 373.631 Q509.226 374.14 506.75 374.14 Q500.546 374.14 496.912 370.529 Q493.301 366.918 493.301 360.761 Q493.301 354.395 496.726 350.668 Q500.175 346.918 506.009 346.918 Q511.24 346.918 514.273 350.298 Q517.328 353.654 517.328 359.441 M513.069 358.191 Q513.023 354.696 511.101 352.613 Q509.203 350.529 506.055 350.529 Q502.49 350.529 500.338 352.543 Q498.208 354.557 497.884 358.214 L513.069 358.191 Z" fill="#000000" fill-rule="evenodd" fill-opacity="1" /><polyline clip-path="url(#clip060)" style="stroke:#e26f46; stroke-linecap:butt; stroke-linejoin:round; stroke-width:4; stroke-opacity:1; fill:none" points="
  292.84,408.029 355.041,408.029 
  "/>
<path clip-path="url(#clip060)" d="M370.084 394.592 L370.084 421.466 L375.732 421.466 Q382.884 421.466 386.195 418.226 Q389.528 414.985 389.528 407.994 Q389.528 401.05 386.195 397.832 Q382.884 394.592 375.732 394.592 L370.084 394.592 M365.408 390.749 L375.014 390.749 Q385.06 390.749 389.759 394.939 Q394.458 399.105 394.458 407.994 Q394.458 416.929 389.736 421.119 Q385.014 425.309 375.014 425.309 L365.408 425.309 L365.408 390.749 Z" fill="#000000" fill-rule="evenodd" fill-opacity="1" /><path clip-path="url(#clip060)" d="M413.509 412.277 Q408.347 412.277 406.357 413.457 Q404.366 414.638 404.366 417.485 Q404.366 419.753 405.847 421.096 Q407.352 422.415 409.921 422.415 Q413.463 422.415 415.593 419.915 Q417.745 417.392 417.745 413.226 L417.745 412.277 L413.509 412.277 M422.005 410.517 L422.005 425.309 L417.745 425.309 L417.745 421.374 Q416.287 423.735 414.111 424.869 Q411.935 425.98 408.787 425.98 Q404.806 425.98 402.445 423.758 Q400.107 421.513 400.107 417.763 Q400.107 413.388 403.023 411.166 Q405.963 408.943 411.773 408.943 L417.745 408.943 L417.745 408.527 Q417.745 405.587 415.801 403.99 Q413.88 402.369 410.384 402.369 Q408.162 402.369 406.056 402.902 Q403.949 403.434 402.005 404.499 L402.005 400.564 Q404.343 399.661 406.542 399.221 Q408.741 398.758 410.824 398.758 Q416.449 398.758 419.227 401.675 Q422.005 404.591 422.005 410.517 Z" fill="#000000" fill-rule="evenodd" fill-opacity="1" /><path clip-path="url(#clip060)" d="M447.305 400.147 L447.305 404.175 Q445.5 403.249 443.555 402.786 Q441.611 402.323 439.528 402.323 Q436.356 402.323 434.759 403.295 Q433.185 404.267 433.185 406.212 Q433.185 407.693 434.319 408.55 Q435.454 409.383 438.88 410.147 L440.338 410.471 Q444.875 411.443 446.773 413.226 Q448.694 414.985 448.694 418.156 Q448.694 421.767 445.824 423.874 Q442.977 425.98 437.977 425.98 Q435.893 425.98 433.625 425.564 Q431.38 425.17 428.88 424.36 L428.88 419.962 Q431.241 421.189 433.532 421.814 Q435.824 422.415 438.069 422.415 Q441.079 422.415 442.699 421.397 Q444.319 420.355 444.319 418.48 Q444.319 416.744 443.139 415.818 Q441.981 414.892 438.023 414.036 L436.542 413.689 Q432.583 412.855 430.824 411.142 Q429.065 409.406 429.065 406.397 Q429.065 402.74 431.657 400.749 Q434.25 398.758 439.018 398.758 Q441.379 398.758 443.463 399.105 Q445.546 399.453 447.305 400.147 Z" fill="#000000" fill-rule="evenodd" fill-opacity="1" /><path clip-path="url(#clip060)" d="M455.315 389.291 L459.597 389.291 L459.597 410.564 L472.305 399.383 L477.745 399.383 L463.995 411.513 L478.324 425.309 L472.768 425.309 L459.597 412.647 L459.597 425.309 L455.315 425.309 L455.315 389.291 Z" fill="#000000" fill-rule="evenodd" fill-opacity="1" /><polyline clip-path="url(#clip060)" style="stroke:#3da44d; stroke-linecap:butt; stroke-linejoin:round; stroke-width:4; stroke-opacity:1; fill:none" points="
  292.84,459.869 355.041,459.869 
  "/>
<path clip-path="url(#clip060)" d="M370.084 446.432 L370.084 473.306 L375.732 473.306 Q382.884 473.306 386.195 470.066 Q389.528 466.825 389.528 459.834 Q389.528 452.89 386.195 449.672 Q382.884 446.432 375.732 446.432 L370.084 446.432 M365.408 442.589 L375.014 442.589 Q385.06 442.589 389.759 446.779 Q394.458 450.945 394.458 459.834 Q394.458 468.769 389.736 472.959 Q385.014 477.149 375.014 477.149 L365.408 477.149 L365.408 442.589 Z" fill="#000000" fill-rule="evenodd" fill-opacity="1" /><path clip-path="url(#clip060)" d="M413.509 464.117 Q408.347 464.117 406.357 465.297 Q404.366 466.478 404.366 469.325 Q404.366 471.593 405.847 472.936 Q407.352 474.255 409.921 474.255 Q413.463 474.255 415.593 471.755 Q417.745 469.232 417.745 465.066 L417.745 464.117 L413.509 464.117 M422.005 462.357 L422.005 477.149 L417.745 477.149 L417.745 473.214 Q416.287 475.575 414.111 476.709 Q411.935 477.82 408.787 477.82 Q404.806 477.82 402.445 475.598 Q400.107 473.353 400.107 469.603 Q400.107 465.228 403.023 463.006 Q405.963 460.783 411.773 460.783 L417.745 460.783 L417.745 460.367 Q417.745 457.427 415.801 455.83 Q413.88 454.209 410.384 454.209 Q408.162 454.209 406.056 454.742 Q403.949 455.274 402.005 456.339 L402.005 452.404 Q404.343 451.501 406.542 451.061 Q408.741 450.598 410.824 450.598 Q416.449 450.598 419.227 453.515 Q422.005 456.431 422.005 462.357 Z" fill="#000000" fill-rule="evenodd" fill-opacity="1" /><path clip-path="url(#clip060)" d="M434.991 443.862 L434.991 451.223 L443.764 451.223 L443.764 454.533 L434.991 454.533 L434.991 468.607 Q434.991 471.779 435.847 472.681 Q436.727 473.584 439.389 473.584 L443.764 473.584 L443.764 477.149 L439.389 477.149 Q434.458 477.149 432.583 475.32 Q430.708 473.468 430.708 468.607 L430.708 454.533 L427.583 454.533 L427.583 451.223 L430.708 451.223 L430.708 443.862 L434.991 443.862 Z" fill="#000000" fill-rule="evenodd" fill-opacity="1" /><path clip-path="url(#clip060)" d="M461.148 464.117 Q455.986 464.117 453.995 465.297 Q452.004 466.478 452.004 469.325 Q452.004 471.593 453.486 472.936 Q454.991 474.255 457.56 474.255 Q461.102 474.255 463.231 471.755 Q465.384 469.232 465.384 465.066 L465.384 464.117 L461.148 464.117 M469.643 462.357 L469.643 477.149 L465.384 477.149 L465.384 473.214 Q463.926 475.575 461.75 476.709 Q459.574 477.82 456.426 477.82 Q452.444 477.82 450.083 475.598 Q447.745 473.353 447.745 469.603 Q447.745 465.228 450.662 463.006 Q453.602 460.783 459.412 460.783 L465.384 460.783 L465.384 460.367 Q465.384 457.427 463.44 455.83 Q461.518 454.209 458.023 454.209 Q455.801 454.209 453.694 454.742 Q451.588 455.274 449.643 456.339 L449.643 452.404 Q451.981 451.501 454.18 451.061 Q456.379 450.598 458.463 450.598 Q464.088 450.598 466.865 453.515 Q469.643 456.431 469.643 462.357 Z" fill="#000000" fill-rule="evenodd" fill-opacity="1" /><path clip-path="url(#clip060)" d="M478.602 442.589 L498.463 442.589 L498.463 446.524 L483.277 446.524 L483.277 456.709 L496.981 456.709 L496.981 460.644 L483.277 460.644 L483.277 477.149 L478.602 477.149 L478.602 442.589 Z" fill="#000000" fill-rule="evenodd" fill-opacity="1" /><path clip-path="url(#clip060)" d="M517.259 455.205 Q516.541 454.788 515.685 454.603 Q514.851 454.394 513.833 454.394 Q510.222 454.394 508.277 456.756 Q506.356 459.093 506.356 463.492 L506.356 477.149 L502.074 477.149 L502.074 451.223 L506.356 451.223 L506.356 455.251 Q507.699 452.89 509.851 451.756 Q512.004 450.598 515.083 450.598 Q515.523 450.598 516.055 450.668 Q516.587 450.714 517.236 450.83 L517.259 455.205 Z" fill="#000000" fill-rule="evenodd" fill-opacity="1" /><path clip-path="url(#clip060)" d="M533.509 464.117 Q528.347 464.117 526.356 465.297 Q524.365 466.478 524.365 469.325 Q524.365 471.593 525.847 472.936 Q527.351 474.255 529.921 474.255 Q533.462 474.255 535.592 471.755 Q537.745 469.232 537.745 465.066 L537.745 464.117 L533.509 464.117 M542.004 462.357 L542.004 477.149 L537.745 477.149 L537.745 473.214 Q536.286 475.575 534.11 476.709 Q531.935 477.82 528.786 477.82 Q524.805 477.82 522.444 475.598 Q520.106 473.353 520.106 469.603 Q520.106 465.228 523.023 463.006 Q525.962 460.783 531.773 460.783 L537.745 460.783 L537.745 460.367 Q537.745 457.427 535.8 455.83 Q533.879 454.209 530.384 454.209 Q528.161 454.209 526.055 454.742 Q523.948 455.274 522.004 456.339 L522.004 452.404 Q524.342 451.501 526.541 451.061 Q528.74 450.598 530.823 450.598 Q536.448 450.598 539.226 453.515 Q542.004 456.431 542.004 462.357 Z" fill="#000000" fill-rule="evenodd" fill-opacity="1" /><path clip-path="url(#clip060)" d="M570.962 456.2 Q572.559 453.33 574.782 451.964 Q577.004 450.598 580.013 450.598 Q584.064 450.598 586.263 453.445 Q588.462 456.269 588.462 461.501 L588.462 477.149 L584.18 477.149 L584.18 461.64 Q584.18 457.913 582.86 456.107 Q581.541 454.302 578.832 454.302 Q575.522 454.302 573.601 456.501 Q571.68 458.7 571.68 462.496 L571.68 477.149 L567.397 477.149 L567.397 461.64 Q567.397 457.89 566.078 456.107 Q564.758 454.302 562.004 454.302 Q558.74 454.302 556.819 456.524 Q554.897 458.723 554.897 462.496 L554.897 477.149 L550.615 477.149 L550.615 451.223 L554.897 451.223 L554.897 455.251 Q556.356 452.867 558.393 451.732 Q560.43 450.598 563.231 450.598 Q566.055 450.598 568.022 452.033 Q570.013 453.469 570.962 456.2 Z" fill="#000000" fill-rule="evenodd" fill-opacity="1" /><path clip-path="url(#clip060)" d="M619.133 463.121 L619.133 465.205 L599.55 465.205 Q599.828 469.603 602.189 471.917 Q604.573 474.209 608.809 474.209 Q611.263 474.209 613.554 473.607 Q615.869 473.005 618.138 471.802 L618.138 475.83 Q615.846 476.802 613.439 477.311 Q611.031 477.82 608.555 477.82 Q602.351 477.82 598.717 474.209 Q595.106 470.598 595.106 464.441 Q595.106 458.075 598.531 454.348 Q601.98 450.598 607.814 450.598 Q613.045 450.598 616.078 453.978 Q619.133 457.334 619.133 463.121 M614.874 461.871 Q614.828 458.376 612.906 456.293 Q611.008 454.209 607.86 454.209 Q604.295 454.209 602.143 456.223 Q600.013 458.237 599.689 461.894 L614.874 461.871 Z" fill="#000000" fill-rule="evenodd" fill-opacity="1" /><path clip-path="url(#clip060)" d="M642.652 451.987 L642.652 456.015 Q640.846 455.089 638.902 454.626 Q636.957 454.163 634.874 454.163 Q631.703 454.163 630.105 455.135 Q628.531 456.107 628.531 458.052 Q628.531 459.533 629.666 460.39 Q630.8 461.223 634.226 461.987 L635.684 462.311 Q640.221 463.283 642.119 465.066 Q644.04 466.825 644.04 469.996 Q644.04 473.607 641.17 475.714 Q638.323 477.82 633.323 477.82 Q631.24 477.82 628.971 477.404 Q626.726 477.01 624.226 476.2 L624.226 471.802 Q626.587 473.029 628.878 473.654 Q631.17 474.255 633.415 474.255 Q636.425 474.255 638.045 473.237 Q639.665 472.195 639.665 470.32 Q639.665 468.584 638.485 467.658 Q637.328 466.732 633.369 465.876 L631.888 465.529 Q627.929 464.695 626.17 462.982 Q624.411 461.246 624.411 458.237 Q624.411 454.58 627.003 452.589 Q629.596 450.598 634.365 450.598 Q636.726 450.598 638.809 450.945 Q640.892 451.293 642.652 451.987 Z" fill="#000000" fill-rule="evenodd" fill-opacity="1" /><path clip-path="url(#clip060)" d="M651.425 471.269 L656.309 471.269 L656.309 477.149 L651.425 477.149 L651.425 471.269 Z" fill="#000000" fill-rule="evenodd" fill-opacity="1" /><path clip-path="url(#clip060)" d="M665.892 451.223 L670.151 451.223 L670.151 477.612 Q670.151 482.566 668.253 484.788 Q666.378 487.01 662.188 487.01 L660.568 487.01 L660.568 483.399 L661.702 483.399 Q664.133 483.399 665.013 482.265 Q665.892 481.154 665.892 477.612 L665.892 451.223 M665.892 441.131 L670.151 441.131 L670.151 446.524 L665.892 446.524 L665.892 441.131 Z" fill="#000000" fill-rule="evenodd" fill-opacity="1" /><path clip-path="url(#clip060)" d="M679.063 441.131 L683.323 441.131 L683.323 477.149 L679.063 477.149 L679.063 441.131 Z" fill="#000000" fill-rule="evenodd" fill-opacity="1" /><path clip-path="url(#clip060)" d="
M1419.74 1410.9 L2352.76 1410.9 L2352.76 266.192 L1419.74 266.192  Z
  " fill="#ffffff" fill-rule="evenodd" fill-opacity="1"/>
<defs>
  <clipPath id="clip063">
    <rect x="1419" y="266" width="934" height="1146"/>
  </clipPath>
</defs>
<polyline clip-path="url(#clip063)" style="stroke:#000000; stroke-linecap:butt; stroke-linejoin:round; stroke-width:2; stroke-opacity:0.1; fill:none" points="
  1446.14,1410.9 1446.14,266.192 
  "/>
<polyline clip-path="url(#clip063)" style="stroke:#000000; stroke-linecap:butt; stroke-linejoin:round; stroke-width:2; stroke-opacity:0.1; fill:none" points="
  1739.55,1410.9 1739.55,266.192 
  "/>
<polyline clip-path="url(#clip063)" style="stroke:#000000; stroke-linecap:butt; stroke-linejoin:round; stroke-width:2; stroke-opacity:0.1; fill:none" points="
  2032.95,1410.9 2032.95,266.192 
  "/>
<polyline clip-path="url(#clip063)" style="stroke:#000000; stroke-linecap:butt; stroke-linejoin:round; stroke-width:2; stroke-opacity:0.1; fill:none" points="
  2326.35,1410.9 2326.35,266.192 
  "/>
<polyline clip-path="url(#clip060)" style="stroke:#000000; stroke-linecap:butt; stroke-linejoin:round; stroke-width:4; stroke-opacity:1; fill:none" points="
  1419.74,1410.9 2352.76,1410.9 
  "/>
<polyline clip-path="url(#clip060)" style="stroke:#000000; stroke-linecap:butt; stroke-linejoin:round; stroke-width:4; stroke-opacity:1; fill:none" points="
  1446.14,1410.9 1446.14,1392 
  "/>
<polyline clip-path="url(#clip060)" style="stroke:#000000; stroke-linecap:butt; stroke-linejoin:round; stroke-width:4; stroke-opacity:1; fill:none" points="
  1739.55,1410.9 1739.55,1392 
  "/>
<polyline clip-path="url(#clip060)" style="stroke:#000000; stroke-linecap:butt; stroke-linejoin:round; stroke-width:4; stroke-opacity:1; fill:none" points="
  2032.95,1410.9 2032.95,1392 
  "/>
<polyline clip-path="url(#clip060)" style="stroke:#000000; stroke-linecap:butt; stroke-linejoin:round; stroke-width:4; stroke-opacity:1; fill:none" points="
  2326.35,1410.9 2326.35,1392 
  "/>
<path clip-path="url(#clip060)" d="M1411.14 1485.02 L1418.78 1485.02 L1418.78 1458.66 L1410.47 1460.32 L1410.47 1456.06 L1418.73 1454.4 L1423.41 1454.4 L1423.41 1485.02 L1431.04 1485.02 L1431.04 1488.96 L1411.14 1488.96 L1411.14 1485.02 Z" fill="#000000" fill-rule="evenodd" fill-opacity="1" /><path clip-path="url(#clip060)" d="M1450.49 1457.48 Q1446.88 1457.48 1445.05 1461.04 Q1443.24 1464.58 1443.24 1471.71 Q1443.24 1478.82 1445.05 1482.38 Q1446.88 1485.92 1450.49 1485.92 Q1454.12 1485.92 1455.93 1482.38 Q1457.76 1478.82 1457.76 1471.71 Q1457.76 1464.58 1455.93 1461.04 Q1454.12 1457.48 1450.49 1457.48 M1450.49 1453.77 Q1456.3 1453.77 1459.35 1458.38 Q1462.43 1462.96 1462.43 1471.71 Q1462.43 1480.44 1459.35 1485.04 Q1456.3 1489.63 1450.49 1489.63 Q1444.68 1489.63 1441.6 1485.04 Q1438.54 1480.44 1438.54 1471.71 Q1438.54 1462.96 1441.6 1458.38 Q1444.68 1453.77 1450.49 1453.77 Z" fill="#000000" fill-rule="evenodd" fill-opacity="1" /><path clip-path="url(#clip060)" d="M1472.46 1445.99 Q1469.9 1445.99 1468.39 1447.74 Q1466.91 1449.49 1466.91 1452.54 Q1466.91 1455.57 1468.39 1457.33 Q1469.9 1459.08 1472.46 1459.08 Q1475.01 1459.08 1476.5 1457.33 Q1478.01 1455.57 1478.01 1452.54 Q1478.01 1449.49 1476.5 1447.74 Q1475.01 1445.99 1472.46 1445.99 M1480 1434.09 L1480 1437.55 Q1478.57 1436.87 1477.1 1436.51 Q1475.65 1436.16 1474.23 1436.16 Q1470.46 1436.16 1468.47 1438.69 Q1466.5 1441.23 1466.21 1446.37 Q1467.32 1444.73 1469 1443.87 Q1470.67 1442.98 1472.68 1442.98 Q1476.91 1442.98 1479.36 1445.56 Q1481.82 1448.12 1481.82 1452.54 Q1481.82 1456.86 1479.27 1459.48 Q1476.71 1462.09 1472.46 1462.09 Q1467.59 1462.09 1465.01 1458.37 Q1462.43 1454.62 1462.43 1447.53 Q1462.43 1440.88 1465.59 1436.93 Q1468.75 1432.96 1474.07 1432.96 Q1475.5 1432.96 1476.95 1433.24 Q1478.42 1433.52 1480 1434.09 Z" fill="#000000" fill-rule="evenodd" fill-opacity="1" /><path clip-path="url(#clip060)" d="M1705.21 1485.02 L1712.84 1485.02 L1712.84 1458.66 L1704.53 1460.32 L1704.53 1456.06 L1712.8 1454.4 L1717.47 1454.4 L1717.47 1485.02 L1725.11 1485.02 L1725.11 1488.96 L1705.21 1488.96 L1705.21 1485.02 Z" fill="#000000" fill-rule="evenodd" fill-opacity="1" /><path clip-path="url(#clip060)" d="M1744.56 1457.48 Q1740.95 1457.48 1739.12 1461.04 Q1737.31 1464.58 1737.31 1471.71 Q1737.31 1478.82 1739.12 1482.38 Q1740.95 1485.92 1744.56 1485.92 Q1748.19 1485.92 1750 1482.38 Q1751.83 1478.82 1751.83 1471.71 Q1751.83 1464.58 1750 1461.04 Q1748.19 1457.48 1744.56 1457.48 M1744.56 1453.77 Q1750.37 1453.77 1753.42 1458.38 Q1756.5 1462.96 1756.5 1471.71 Q1756.5 1480.44 1753.42 1485.04 Q1750.37 1489.63 1744.56 1489.63 Q1738.75 1489.63 1735.67 1485.04 Q1732.61 1480.44 1732.61 1471.71 Q1732.61 1462.96 1735.67 1458.38 Q1738.75 1453.77 1744.56 1453.77 Z" fill="#000000" fill-rule="evenodd" fill-opacity="1" /><path clip-path="url(#clip060)" d="M1756.5 1433.47 L1774.56 1433.47 L1774.56 1435.08 L1764.36 1461.55 L1760.4 1461.55 L1769.99 1436.66 L1756.5 1436.66 L1756.5 1433.47 Z" fill="#000000" fill-rule="evenodd" fill-opacity="1" /><path clip-path="url(#clip060)" d="M1998.01 1485.02 L2005.64 1485.02 L2005.64 1458.66 L1997.33 1460.32 L1997.33 1456.06 L2005.6 1454.4 L2010.27 1454.4 L2010.27 1485.02 L2017.91 1485.02 L2017.91 1488.96 L1998.01 1488.96 L1998.01 1485.02 Z" fill="#000000" fill-rule="evenodd" fill-opacity="1" /><path clip-path="url(#clip060)" d="M2037.36 1457.48 Q2033.75 1457.48 2031.92 1461.04 Q2030.11 1464.58 2030.11 1471.71 Q2030.11 1478.82 2031.92 1482.38 Q2033.75 1485.92 2037.36 1485.92 Q2040.99 1485.92 2042.8 1482.38 Q2044.63 1478.82 2044.63 1471.71 Q2044.63 1464.58 2042.8 1461.04 Q2040.99 1457.48 2037.36 1457.48 M2037.36 1453.77 Q2043.17 1453.77 2046.22 1458.38 Q2049.3 1462.96 2049.3 1471.71 Q2049.3 1480.44 2046.22 1485.04 Q2043.17 1489.63 2037.36 1489.63 Q2031.55 1489.63 2028.47 1485.04 Q2025.41 1480.44 2025.41 1471.71 Q2025.41 1462.96 2028.47 1458.38 Q2031.55 1453.77 2037.36 1453.77 Z" fill="#000000" fill-rule="evenodd" fill-opacity="1" /><path clip-path="url(#clip060)" d="M2058.93 1448.21 Q2056.22 1448.21 2054.66 1449.66 Q2053.12 1451.11 2053.12 1453.65 Q2053.12 1456.19 2054.66 1457.63 Q2056.22 1459.08 2058.93 1459.08 Q2061.64 1459.08 2063.2 1457.63 Q2064.76 1456.17 2064.76 1453.65 Q2064.76 1451.11 2063.2 1449.66 Q2061.66 1448.21 2058.93 1448.21 M2055.13 1446.59 Q2052.69 1445.99 2051.31 1444.32 Q2049.96 1442.64 2049.96 1440.24 Q2049.96 1436.87 2052.35 1434.91 Q2054.76 1432.96 2058.93 1432.96 Q2063.13 1432.96 2065.51 1434.91 Q2067.9 1436.87 2067.9 1440.24 Q2067.9 1442.64 2066.53 1444.32 Q2065.18 1445.99 2062.75 1446.59 Q2065.5 1447.23 2067.02 1449.1 Q2068.56 1450.96 2068.56 1453.65 Q2068.56 1457.73 2066.06 1459.91 Q2063.58 1462.09 2058.93 1462.09 Q2054.29 1462.09 2051.78 1459.91 Q2049.3 1457.73 2049.3 1453.65 Q2049.3 1450.96 2050.84 1449.1 Q2052.39 1447.23 2055.13 1446.59 M2053.74 1440.59 Q2053.74 1442.78 2055.09 1444 Q2056.47 1445.22 2058.93 1445.22 Q2061.38 1445.22 2062.75 1444 Q2064.14 1442.78 2064.14 1440.59 Q2064.14 1438.41 2062.75 1437.19 Q2061.38 1435.97 2058.93 1435.97 Q2056.47 1435.97 2055.09 1437.19 Q2053.74 1438.41 2053.74 1440.59 Z" fill="#000000" fill-rule="evenodd" fill-opacity="1" /><path clip-path="url(#clip060)" d="M2291.35 1485.02 L2298.99 1485.02 L2298.99 1458.66 L2290.68 1460.32 L2290.68 1456.06 L2298.94 1454.4 L2303.62 1454.4 L2303.62 1485.02 L2311.26 1485.02 L2311.26 1488.96 L2291.35 1488.96 L2291.35 1485.02 Z" fill="#000000" fill-rule="evenodd" fill-opacity="1" /><path clip-path="url(#clip060)" d="M2330.7 1457.48 Q2327.09 1457.48 2325.26 1461.04 Q2323.46 1464.58 2323.46 1471.71 Q2323.46 1478.82 2325.26 1482.38 Q2327.09 1485.92 2330.7 1485.92 Q2334.34 1485.92 2336.14 1482.38 Q2337.97 1478.82 2337.97 1471.71 Q2337.97 1464.58 2336.14 1461.04 Q2334.34 1457.48 2330.7 1457.48 M2330.7 1453.77 Q2336.51 1453.77 2339.57 1458.38 Q2342.65 1462.96 2342.65 1471.71 Q2342.65 1480.44 2339.57 1485.04 Q2336.51 1489.63 2330.7 1489.63 Q2324.89 1489.63 2321.81 1485.04 Q2318.76 1480.44 2318.76 1471.71 Q2318.76 1462.96 2321.81 1458.38 Q2324.89 1453.77 2330.7 1453.77 Z" fill="#000000" fill-rule="evenodd" fill-opacity="1" /><path clip-path="url(#clip060)" d="M2344.45 1460.96 L2344.45 1457.5 Q2345.88 1458.18 2347.35 1458.54 Q2348.82 1458.89 2350.23 1458.89 Q2353.99 1458.89 2355.96 1456.37 Q2357.96 1453.84 2358.24 1448.68 Q2357.15 1450.3 2355.47 1451.16 Q2353.8 1452.03 2351.77 1452.03 Q2347.56 1452.03 2345.09 1449.49 Q2342.65 1446.93 2342.65 1442.51 Q2342.65 1438.19 2345.21 1435.57 Q2347.76 1432.96 2352.01 1432.96 Q2356.88 1432.96 2359.44 1436.7 Q2362.02 1440.43 2362.02 1447.53 Q2362.02 1454.17 2358.86 1458.14 Q2355.72 1462.09 2350.4 1462.09 Q2348.97 1462.09 2347.5 1461.81 Q2346.03 1461.53 2344.45 1460.96 M2352.01 1449.06 Q2354.57 1449.06 2356.06 1447.31 Q2357.56 1445.56 2357.56 1442.51 Q2357.56 1439.48 2356.06 1437.74 Q2354.57 1435.97 2352.01 1435.97 Q2349.46 1435.97 2347.95 1437.74 Q2346.47 1439.48 2346.47 1442.51 Q2346.47 1445.56 2347.95 1447.31 Q2349.46 1449.06 2352.01 1449.06 Z" fill="#000000" fill-rule="evenodd" fill-opacity="1" /><path clip-path="url(#clip060)" d="M1901.17 1552.67 L1901.17 1574.19 L1895.32 1574.19 L1895.32 1552.86 Q1895.32 1547.8 1893.34 1545.29 Q1891.37 1542.77 1887.42 1542.77 Q1882.68 1542.77 1879.94 1545.79 Q1877.21 1548.82 1877.21 1554.04 L1877.21 1574.19 L1871.32 1574.19 L1871.32 1538.54 L1877.21 1538.54 L1877.21 1544.08 Q1879.31 1540.86 1882.14 1539.27 Q1885.01 1537.68 1888.73 1537.68 Q1894.87 1537.68 1898.02 1541.5 Q1901.17 1545.29 1901.17 1552.67 Z" fill="#000000" fill-rule="evenodd" fill-opacity="1" /><polyline clip-path="url(#clip063)" style="stroke:#000000; stroke-linecap:butt; stroke-linejoin:round; stroke-width:2; stroke-opacity:0.1; fill:none" points="
  1419.74,1144.89 2352.76,1144.89 
  "/>
<polyline clip-path="url(#clip063)" style="stroke:#000000; stroke-linecap:butt; stroke-linejoin:round; stroke-width:2; stroke-opacity:0.1; fill:none" points="
  1419.74,905.876 2352.76,905.876 
  "/>
<polyline clip-path="url(#clip063)" style="stroke:#000000; stroke-linecap:butt; stroke-linejoin:round; stroke-width:2; stroke-opacity:0.1; fill:none" points="
  1419.74,666.864 2352.76,666.864 
  "/>
<polyline clip-path="url(#clip063)" style="stroke:#000000; stroke-linecap:butt; stroke-linejoin:round; stroke-width:2; stroke-opacity:0.1; fill:none" points="
  1419.74,427.852 2352.76,427.852 
  "/>
<polyline clip-path="url(#clip060)" style="stroke:#000000; stroke-linecap:butt; stroke-linejoin:round; stroke-width:4; stroke-opacity:1; fill:none" points="
  1419.74,1410.9 1419.74,266.192 
  "/>
<polyline clip-path="url(#clip060)" style="stroke:#000000; stroke-linecap:butt; stroke-linejoin:round; stroke-width:4; stroke-opacity:1; fill:none" points="
  1419.74,1144.89 1438.64,1144.89 
  "/>
<polyline clip-path="url(#clip060)" style="stroke:#000000; stroke-linecap:butt; stroke-linejoin:round; stroke-width:4; stroke-opacity:1; fill:none" points="
  1419.74,905.876 1438.64,905.876 
  "/>
<polyline clip-path="url(#clip060)" style="stroke:#000000; stroke-linecap:butt; stroke-linejoin:round; stroke-width:4; stroke-opacity:1; fill:none" points="
  1419.74,666.864 1438.64,666.864 
  "/>
<polyline clip-path="url(#clip060)" style="stroke:#000000; stroke-linecap:butt; stroke-linejoin:round; stroke-width:4; stroke-opacity:1; fill:none" points="
  1419.74,427.852 1438.64,427.852 
  "/>
<path clip-path="url(#clip060)" d="M1283.6 1164.68 L1291.24 1164.68 L1291.24 1138.31 L1282.93 1139.98 L1282.93 1135.72 L1291.19 1134.06 L1295.87 1134.06 L1295.87 1164.68 L1303.51 1164.68 L1303.51 1168.62 L1283.6 1168.62 L1283.6 1164.68 Z" fill="#000000" fill-rule="evenodd" fill-opacity="1" /><path clip-path="url(#clip060)" d="M1322.95 1137.13 Q1319.34 1137.13 1317.51 1140.7 Q1315.7 1144.24 1315.7 1151.37 Q1315.7 1158.48 1317.51 1162.04 Q1319.34 1165.58 1322.95 1165.58 Q1326.58 1165.58 1328.39 1162.04 Q1330.22 1158.48 1330.22 1151.37 Q1330.22 1144.24 1328.39 1140.7 Q1326.58 1137.13 1322.95 1137.13 M1322.95 1133.43 Q1328.76 1133.43 1331.82 1138.04 Q1334.89 1142.62 1334.89 1151.37 Q1334.89 1160.1 1331.82 1164.7 Q1328.76 1169.29 1322.95 1169.29 Q1317.14 1169.29 1314.06 1164.7 Q1311.01 1160.1 1311.01 1151.37 Q1311.01 1142.62 1314.06 1138.04 Q1317.14 1133.43 1322.95 1133.43 Z" fill="#000000" fill-rule="evenodd" fill-opacity="1" /><path clip-path="url(#clip060)" d="M1334.89 1127.53 L1359.01 1127.53 L1359.01 1130.73 L1334.89 1130.73 L1334.89 1127.53 Z" fill="#000000" fill-rule="evenodd" fill-opacity="1" /><path clip-path="url(#clip060)" d="M1370.48 1138.01 L1383.74 1138.01 L1383.74 1141.2 L1365.91 1141.2 L1365.91 1138.01 Q1368.07 1135.77 1371.8 1132.01 Q1375.54 1128.23 1376.5 1127.14 Q1378.32 1125.09 1379.04 1123.68 Q1379.77 1122.25 1379.77 1120.87 Q1379.77 1118.64 1378.19 1117.22 Q1376.63 1115.81 1374.11 1115.81 Q1372.32 1115.81 1370.33 1116.43 Q1368.35 1117.06 1366.1 1118.32 L1366.1 1114.48 Q1368.39 1113.56 1370.38 1113.09 Q1372.38 1112.62 1374.03 1112.62 Q1378.4 1112.62 1380.99 1114.8 Q1383.59 1116.98 1383.59 1120.63 Q1383.59 1122.36 1382.93 1123.92 Q1382.29 1125.46 1380.58 1127.57 Q1380.11 1128.11 1377.59 1130.73 Q1375.07 1133.32 1370.48 1138.01 Z" fill="#000000" fill-rule="evenodd" fill-opacity="1" /><path clip-path="url(#clip060)" d="M1283.3 925.668 L1290.94 925.668 L1290.94 899.303 L1282.63 900.969 L1282.63 896.71 L1290.89 895.043 L1295.57 895.043 L1295.57 925.668 L1303.2 925.668 L1303.2 929.603 L1283.3 929.603 L1283.3 925.668 Z" fill="#000000" fill-rule="evenodd" fill-opacity="1" /><path clip-path="url(#clip060)" d="M1322.65 898.122 Q1319.04 898.122 1317.21 901.687 Q1315.4 905.229 1315.4 912.358 Q1315.4 919.465 1317.21 923.029 Q1319.04 926.571 1322.65 926.571 Q1326.28 926.571 1328.09 923.029 Q1329.92 919.465 1329.92 912.358 Q1329.92 905.229 1328.09 901.687 Q1326.28 898.122 1322.65 898.122 M1322.65 894.418 Q1328.46 894.418 1331.51 899.025 Q1334.59 903.608 1334.59 912.358 Q1334.59 921.085 1331.51 925.691 Q1328.46 930.275 1322.65 930.275 Q1316.84 930.275 1313.76 925.691 Q1310.7 921.085 1310.7 912.358 Q1310.7 903.608 1313.76 899.025 Q1316.84 894.418 1322.65 894.418 Z" fill="#000000" fill-rule="evenodd" fill-opacity="1" /><path clip-path="url(#clip060)" d="M1334.59 888.52 L1358.71 888.52 L1358.71 891.717 L1334.59 891.717 L1334.59 888.52 Z" fill="#000000" fill-rule="evenodd" fill-opacity="1" /><path clip-path="url(#clip060)" d="M1367.56 898.996 L1373.77 898.996 L1373.77 877.574 L1367.02 878.928 L1367.02 875.467 L1373.73 874.113 L1377.53 874.113 L1377.53 898.996 L1383.74 898.996 L1383.74 902.193 L1367.56 902.193 L1367.56 898.996 Z" fill="#000000" fill-rule="evenodd" fill-opacity="1" /><path clip-path="url(#clip060)" d="M1313.03 686.656 L1320.67 686.656 L1320.67 660.291 L1312.36 661.957 L1312.36 657.698 L1320.63 656.032 L1325.3 656.032 L1325.3 686.656 L1332.94 686.656 L1332.94 690.592 L1313.03 690.592 L1313.03 686.656 Z" fill="#000000" fill-rule="evenodd" fill-opacity="1" /><path clip-path="url(#clip060)" d="M1352.38 659.11 Q1348.77 659.11 1346.94 662.675 Q1345.14 666.217 1345.14 673.346 Q1345.14 680.453 1346.94 684.018 Q1348.77 687.559 1352.38 687.559 Q1356.02 687.559 1357.82 684.018 Q1359.65 680.453 1359.65 673.346 Q1359.65 666.217 1357.82 662.675 Q1356.02 659.11 1352.38 659.11 M1352.38 655.407 Q1358.19 655.407 1361.25 660.013 Q1364.33 664.596 1364.33 673.346 Q1364.33 682.073 1361.25 686.68 Q1358.19 691.263 1352.38 691.263 Q1346.57 691.263 1343.5 686.68 Q1340.44 682.073 1340.44 673.346 Q1340.44 664.596 1343.5 660.013 Q1346.57 655.407 1352.38 655.407 Z" fill="#000000" fill-rule="evenodd" fill-opacity="1" /><path clip-path="url(#clip060)" d="M1374.03 637.603 Q1371.1 637.603 1369.61 640.499 Q1368.15 643.377 1368.15 649.169 Q1368.15 654.943 1369.61 657.84 Q1371.1 660.717 1374.03 660.717 Q1376.99 660.717 1378.45 657.84 Q1379.94 654.943 1379.94 649.169 Q1379.94 643.377 1378.45 640.499 Q1376.99 637.603 1374.03 637.603 M1374.03 634.593 Q1378.75 634.593 1381.24 638.336 Q1383.74 642.06 1383.74 649.169 Q1383.74 656.26 1381.24 660.003 Q1378.75 663.727 1374.03 663.727 Q1369.31 663.727 1366.81 660.003 Q1364.33 656.26 1364.33 649.169 Q1364.33 642.06 1366.81 638.336 Q1369.31 634.593 1374.03 634.593 Z" fill="#000000" fill-rule="evenodd" fill-opacity="1" /><path clip-path="url(#clip060)" d="M1315.72 447.645 L1323.36 447.645 L1323.36 421.279 L1315.05 422.946 L1315.05 418.686 L1323.31 417.02 L1327.99 417.02 L1327.99 447.645 L1335.63 447.645 L1335.63 451.58 L1315.72 451.58 L1315.72 447.645 Z" fill="#000000" fill-rule="evenodd" fill-opacity="1" /><path clip-path="url(#clip060)" d="M1355.07 420.098 Q1351.46 420.098 1349.63 423.663 Q1347.83 427.205 1347.83 434.334 Q1347.83 441.441 1349.63 445.006 Q1351.46 448.547 1355.07 448.547 Q1358.71 448.547 1360.51 445.006 Q1362.34 441.441 1362.34 434.334 Q1362.34 427.205 1360.51 423.663 Q1358.71 420.098 1355.07 420.098 M1355.07 416.395 Q1360.88 416.395 1363.94 421.001 Q1367.02 425.585 1367.02 434.334 Q1367.02 443.061 1363.94 447.668 Q1360.88 452.251 1355.07 452.251 Q1349.26 452.251 1346.18 447.668 Q1343.13 443.061 1343.13 434.334 Q1343.13 425.585 1346.18 421.001 Q1349.26 416.395 1355.07 416.395 Z" fill="#000000" fill-rule="evenodd" fill-opacity="1" /><path clip-path="url(#clip060)" d="M1367.56 420.972 L1373.77 420.972 L1373.77 399.55 L1367.02 400.904 L1367.02 397.443 L1373.73 396.089 L1377.53 396.089 L1377.53 420.972 L1383.74 420.972 L1383.74 424.169 L1367.56 424.169 L1367.56 420.972 Z" fill="#000000" fill-rule="evenodd" fill-opacity="1" /><path clip-path="url(#clip060)" d="M1693.48 180.677 L1693.48 185.654 Q1691.22 184.41 1688.94 183.802 Q1686.68 183.165 1684.37 183.165 Q1679.19 183.165 1676.32 186.464 Q1673.46 189.734 1673.46 195.665 Q1673.46 201.597 1676.32 204.896 Q1679.19 208.165 1684.37 208.165 Q1686.68 208.165 1688.94 207.558 Q1691.22 206.921 1693.48 205.677 L1693.48 210.596 Q1691.25 211.637 1688.85 212.158 Q1686.48 212.679 1683.79 212.679 Q1676.47 212.679 1672.16 208.078 Q1667.85 203.478 1667.85 195.665 Q1667.85 187.737 1672.19 183.194 Q1676.55 178.652 1684.14 178.652 Q1686.6 178.652 1688.94 179.172 Q1691.28 179.664 1693.48 180.677 Z" fill="#000000" fill-rule="evenodd" fill-opacity="1" /><path clip-path="url(#clip060)" d="M1729.68 192.28 L1729.68 211.84 L1724.36 211.84 L1724.36 192.454 Q1724.36 187.853 1722.56 185.567 Q1720.77 183.281 1717.18 183.281 Q1712.87 183.281 1710.38 186.03 Q1707.89 188.779 1707.89 193.524 L1707.89 211.84 L1702.54 211.84 L1702.54 166.817 L1707.89 166.817 L1707.89 184.467 Q1709.8 181.545 1712.38 180.098 Q1714.98 178.652 1718.37 178.652 Q1723.95 178.652 1726.82 182.124 Q1729.68 185.567 1729.68 192.28 Z" fill="#000000" fill-rule="evenodd" fill-opacity="1" /><path clip-path="url(#clip060)" d="M1739.75 199.051 L1739.75 179.433 L1745.07 179.433 L1745.07 198.848 Q1745.07 203.449 1746.87 205.764 Q1748.66 208.05 1752.25 208.05 Q1756.56 208.05 1759.05 205.301 Q1761.57 202.552 1761.57 197.807 L1761.57 179.433 L1766.89 179.433 L1766.89 211.84 L1761.57 211.84 L1761.57 206.863 Q1759.63 209.815 1757.05 211.261 Q1754.51 212.679 1751.12 212.679 Q1745.54 212.679 1742.64 209.207 Q1739.75 205.735 1739.75 199.051 M1753.15 178.652 L1753.15 178.652 Z" fill="#000000" fill-rule="evenodd" fill-opacity="1" /><path clip-path="url(#clip060)" d="M1804.79 192.28 L1804.79 211.84 L1799.47 211.84 L1799.47 192.454 Q1799.47 187.853 1797.68 185.567 Q1795.88 183.281 1792.29 183.281 Q1787.98 183.281 1785.5 186.03 Q1783.01 188.779 1783.01 193.524 L1783.01 211.84 L1777.65 211.84 L1777.65 179.433 L1783.01 179.433 L1783.01 184.467 Q1784.92 181.545 1787.49 180.098 Q1790.1 178.652 1793.48 178.652 Q1799.07 178.652 1801.93 182.124 Q1804.79 185.567 1804.79 192.28 Z" fill="#000000" fill-rule="evenodd" fill-opacity="1" /><path clip-path="url(#clip060)" d="M1815.21 166.817 L1820.56 166.817 L1820.56 193.408 L1836.45 179.433 L1843.25 179.433 L1826.06 194.595 L1843.97 211.84 L1837.03 211.84 L1820.56 196.013 L1820.56 211.84 L1815.21 211.84 L1815.21 166.817 Z" fill="#000000" fill-rule="evenodd" fill-opacity="1" /><path clip-path="url(#clip060)" d="M1870.39 180.388 L1870.39 185.422 Q1868.13 184.265 1865.7 183.686 Q1863.27 183.108 1860.67 183.108 Q1856.7 183.108 1854.71 184.323 Q1852.74 185.538 1852.74 187.969 Q1852.74 189.82 1854.16 190.891 Q1855.58 191.933 1859.86 192.888 L1861.68 193.293 Q1867.35 194.508 1869.73 196.736 Q1872.13 198.935 1872.13 202.899 Q1872.13 207.413 1868.54 210.046 Q1864.98 212.679 1858.73 212.679 Q1856.13 212.679 1853.29 212.158 Q1850.48 211.666 1847.36 210.654 L1847.36 205.156 Q1850.31 206.69 1853.17 207.471 Q1856.04 208.223 1858.85 208.223 Q1862.61 208.223 1864.63 206.95 Q1866.66 205.648 1866.66 203.304 Q1866.66 201.134 1865.18 199.977 Q1863.74 198.819 1858.79 197.749 L1856.94 197.315 Q1851.99 196.273 1849.79 194.132 Q1847.59 191.962 1847.59 188.2 Q1847.59 183.628 1850.83 181.14 Q1854.07 178.652 1860.03 178.652 Q1862.98 178.652 1865.59 179.086 Q1868.19 179.52 1870.39 180.388 Z" fill="#000000" fill-rule="evenodd" fill-opacity="1" /><path clip-path="url(#clip060)" d="M1880.6 179.433 L1885.93 179.433 L1885.93 211.84 L1880.6 211.84 L1880.6 179.433 M1880.6 166.817 L1885.93 166.817 L1885.93 173.559 L1880.6 173.559 L1880.6 166.817 Z" fill="#000000" fill-rule="evenodd" fill-opacity="1" /><path clip-path="url(#clip060)" d="M1894.75 179.433 L1920.04 179.433 L1920.04 184.294 L1900.02 207.587 L1920.04 207.587 L1920.04 211.84 L1894.03 211.84 L1894.03 206.979 L1914.05 183.686 L1894.75 183.686 L1894.75 179.433 Z" fill="#000000" fill-rule="evenodd" fill-opacity="1" /><path clip-path="url(#clip060)" d="M1955.89 194.305 L1955.89 196.91 L1931.41 196.91 Q1931.76 202.407 1934.71 205.301 Q1937.69 208.165 1942.99 208.165 Q1946.06 208.165 1948.92 207.413 Q1951.81 206.661 1954.65 205.156 L1954.65 210.191 Q1951.78 211.406 1948.78 212.043 Q1945.77 212.679 1942.67 212.679 Q1934.92 212.679 1930.37 208.165 Q1925.86 203.651 1925.86 195.955 Q1925.86 187.998 1930.14 183.339 Q1934.45 178.652 1941.74 178.652 Q1948.28 178.652 1952.07 182.876 Q1955.89 187.072 1955.89 194.305 M1950.57 192.743 Q1950.51 188.374 1948.11 185.77 Q1945.74 183.165 1941.8 183.165 Q1937.35 183.165 1934.66 185.683 Q1931.99 188.2 1931.59 192.772 L1950.57 192.743 Z" fill="#000000" fill-rule="evenodd" fill-opacity="1" /><path clip-path="url(#clip060)" d="M1965.99 204.491 L1972.1 204.491 L1972.1 211.84 L1965.99 211.84 L1965.99 204.491 M1965.99 181.198 L1972.1 181.198 L1972.1 188.547 L1965.99 188.547 L1965.99 181.198 Z" fill="#000000" fill-rule="evenodd" fill-opacity="1" /><path clip-path="url(#clip060)" d="M2005.2 206.921 L2014.75 206.921 L2014.75 173.964 L2004.36 176.047 L2004.36 170.723 L2014.69 168.64 L2020.53 168.64 L2020.53 206.921 L2030.08 206.921 L2030.08 211.84 L2005.2 211.84 L2005.2 206.921 Z" fill="#000000" fill-rule="evenodd" fill-opacity="1" /><path clip-path="url(#clip060)" d="M2068.86 194.305 L2068.86 196.91 L2044.38 196.91 Q2044.72 202.407 2047.68 205.301 Q2050.66 208.165 2055.95 208.165 Q2059.02 208.165 2061.88 207.413 Q2064.78 206.661 2067.61 205.156 L2067.61 210.191 Q2064.75 211.406 2061.74 212.043 Q2058.73 212.679 2055.63 212.679 Q2047.88 212.679 2043.34 208.165 Q2038.82 203.651 2038.82 195.955 Q2038.82 187.998 2043.1 183.339 Q2047.42 178.652 2054.71 178.652 Q2061.25 178.652 2065.04 182.876 Q2068.86 187.072 2068.86 194.305 M2063.53 192.743 Q2063.47 188.374 2061.07 185.77 Q2058.7 183.165 2054.76 183.165 Q2050.31 183.165 2047.62 185.683 Q2044.96 188.2 2044.55 192.772 L2063.53 192.743 Z" fill="#000000" fill-rule="evenodd" fill-opacity="1" /><path clip-path="url(#clip060)" d="M2076.87 168.64 L2104.65 168.64 L2104.65 171.128 L2088.97 211.84 L2082.86 211.84 L2097.62 173.559 L2076.87 173.559 L2076.87 168.64 Z" fill="#000000" fill-rule="evenodd" fill-opacity="1" /><polyline clip-path="url(#clip063)" style="stroke:#009af9; stroke-linecap:butt; stroke-linejoin:round; stroke-width:4; stroke-opacity:1; fill:none" points="
  1446.14,1314.13 1739.55,1101.43 2032.95,805.431 2238.03,584.558 2326.35,495.977 
  "/>
<polyline clip-path="url(#clip063)" style="stroke:#e26f46; stroke-linecap:butt; stroke-linejoin:round; stroke-width:4; stroke-opacity:1; fill:none" points="
  1446.14,1091.8 1739.55,1012.48 2032.95,858.028 2238.03,691.832 2326.35,298.589 
  "/>
<polyline clip-path="url(#clip063)" style="stroke:#3da44d; stroke-linecap:butt; stroke-linejoin:round; stroke-width:4; stroke-opacity:1; fill:none" points="
  1446.14,1378.5 1739.55,1155.49 2032.95,921.066 2238.03,754.039 2326.35,649.15 
  "/>
<path clip-path="url(#clip060)" d="
M251.372 160 L2352.76 160 L2352.76 0 L251.372 0  Z
  " fill="#ffffff" fill-rule="evenodd" fill-opacity="1"/>
<defs>
  <clipPath id="clip064">
    <rect x="251" y="0" width="2102" height="161"/>
  </clipPath>
</defs>
<path clip-path="url(#clip060)" d="M619.845 13.824 L633.781 13.824 L651.419 60.8608 L669.151 13.824 L683.086 13.824 L683.086 82.944 L673.966 82.944 L673.966 22.2499 L656.142 69.657 L646.743 69.657 L628.919 22.2499 L628.919 82.944 L619.845 82.944 L619.845 13.824 Z" fill="#000000" fill-rule="evenodd" fill-opacity="1" /><path clip-path="url(#clip060)" d="M724.845 56.8793 Q714.521 56.8793 710.539 59.2404 Q706.558 61.6015 706.558 67.2959 Q706.558 71.8329 709.521 74.5181 Q712.53 77.157 717.669 77.157 Q724.752 77.157 729.012 72.157 Q733.317 67.1108 733.317 58.7775 L733.317 56.8793 L724.845 56.8793 M741.836 53.3608 L741.836 82.944 L733.317 82.944 L733.317 75.0737 Q730.4 79.7959 726.049 82.0644 Q721.697 84.2866 715.401 84.2866 Q707.438 84.2866 702.715 79.8422 Q698.039 75.3514 698.039 67.8515 Q698.039 59.1015 703.873 54.6571 Q709.752 50.2127 721.373 50.2127 L733.317 50.2127 L733.317 49.3794 Q733.317 43.4998 729.428 40.3053 Q725.586 37.0646 718.595 37.0646 Q714.151 37.0646 709.938 38.1294 Q705.725 39.1942 701.836 41.3239 L701.836 33.4535 Q706.512 31.648 710.91 30.7684 Q715.308 29.8424 719.475 29.8424 Q730.725 29.8424 736.28 35.6757 Q741.836 41.509 741.836 53.3608 Z" fill="#000000" fill-rule="evenodd" fill-opacity="1" /><path clip-path="url(#clip060)" d="M767.622 75.1663 L767.622 102.666 L759.058 102.666 L759.058 31.0924 L767.622 31.0924 L767.622 38.9628 Q770.308 34.3331 774.382 32.1109 Q778.502 29.8424 784.196 29.8424 Q793.641 29.8424 799.52 37.3424 Q805.446 44.8424 805.446 57.0645 Q805.446 69.2867 799.52 76.7866 Q793.641 84.2866 784.196 84.2866 Q778.502 84.2866 774.382 82.0644 Q770.308 79.7959 767.622 75.1663 M796.604 57.0645 Q796.604 47.6664 792.715 42.3424 Q788.872 36.972 782.113 36.972 Q775.354 36.972 771.465 42.3424 Q767.622 47.6664 767.622 57.0645 Q767.622 66.4626 771.465 71.8329 Q775.354 77.157 782.113 77.157 Q788.872 77.157 792.715 71.8329 Q796.604 66.4626 796.604 57.0645 Z" fill="#000000" fill-rule="evenodd" fill-opacity="1" /><path clip-path="url(#clip060)" d="M821.743 71.1848 L831.511 71.1848 L831.511 82.944 L821.743 82.944 L821.743 71.1848 M821.743 33.9165 L831.511 33.9165 L831.511 45.6757 L821.743 45.6757 L821.743 33.9165 Z" fill="#000000" fill-rule="evenodd" fill-opacity="1" /><path clip-path="url(#clip060)" d="M881.65 31.0924 L890.168 31.0924 L890.168 82.944 L881.65 82.944 L881.65 31.0924 M881.65 10.9073 L890.168 10.9073 L890.168 21.6943 L881.65 21.6943 L881.65 10.9073 Z" fill="#000000" fill-rule="evenodd" fill-opacity="1" /><path clip-path="url(#clip060)" d="M951.094 51.6479 L951.094 82.944 L942.575 82.944 L942.575 51.9256 Q942.575 44.5646 939.705 40.9072 Q936.835 37.2498 931.094 37.2498 Q924.196 37.2498 920.214 41.6479 Q916.233 46.046 916.233 53.6386 L916.233 82.944 L907.668 82.944 L907.668 31.0924 L916.233 31.0924 L916.233 39.1479 Q919.288 34.472 923.409 32.1572 Q927.575 29.8424 932.992 29.8424 Q941.927 29.8424 946.51 35.398 Q951.094 40.9072 951.094 51.6479 Z" fill="#000000" fill-rule="evenodd" fill-opacity="1" /><path clip-path="url(#clip060)" d="M998.13 39.0553 Q996.695 38.222 994.982 37.8516 Q993.316 37.435 991.279 37.435 Q984.056 37.435 980.168 42.1572 Q976.325 46.8331 976.325 55.6293 L976.325 82.944 L967.76 82.944 L967.76 31.0924 L976.325 31.0924 L976.325 39.1479 Q979.01 34.4257 983.316 32.1572 Q987.621 29.8424 993.779 29.8424 Q994.658 29.8424 995.723 29.9813 Q996.788 30.0739 998.084 30.3054 L998.13 39.0553 Z" fill="#000000" fill-rule="evenodd" fill-opacity="1" /><path clip-path="url(#clip060)" d="M1049.33 54.8886 L1049.33 59.0552 L1010.17 59.0552 Q1010.72 67.8515 1015.45 72.4811 Q1020.21 77.0644 1028.69 77.0644 Q1033.59 77.0644 1038.18 75.8607 Q1042.81 74.657 1047.34 72.2496 L1047.34 80.3051 Q1042.76 82.2496 1037.95 83.2681 Q1033.13 84.2866 1028.18 84.2866 Q1015.77 84.2866 1008.5 77.0644 Q1001.28 69.8422 1001.28 57.5275 Q1001.28 44.7961 1008.13 37.3424 Q1015.03 29.8424 1026.7 29.8424 Q1037.16 29.8424 1043.22 36.6017 Q1049.33 43.3146 1049.33 54.8886 M1040.82 52.3886 Q1040.72 45.3979 1036.88 41.2313 Q1033.08 37.0646 1026.79 37.0646 Q1019.66 37.0646 1015.35 41.0924 Q1011.09 45.1201 1010.45 52.4349 L1040.82 52.3886 Z" fill="#000000" fill-rule="evenodd" fill-opacity="1" /><path clip-path="url(#clip060)" d="M1103.69 41.0461 Q1106.88 35.3054 1111.32 32.5739 Q1115.77 29.8424 1121.79 29.8424 Q1129.89 29.8424 1134.29 35.5368 Q1138.69 41.185 1138.69 51.6479 L1138.69 82.944 L1130.12 82.944 L1130.12 51.9256 Q1130.12 44.472 1127.48 40.8609 Q1124.84 37.2498 1119.43 37.2498 Q1112.81 37.2498 1108.96 41.6479 Q1105.12 46.046 1105.12 53.6386 L1105.12 82.944 L1096.56 82.944 L1096.56 51.9256 Q1096.56 44.4257 1093.92 40.8609 Q1091.28 37.2498 1085.77 37.2498 Q1079.24 37.2498 1075.4 41.6942 Q1071.56 46.0923 1071.56 53.6386 L1071.56 82.944 L1062.99 82.944 L1062.99 31.0924 L1071.56 31.0924 L1071.56 39.1479 Q1074.47 34.3794 1078.55 32.1109 Q1082.62 29.8424 1088.22 29.8424 Q1093.87 29.8424 1097.81 32.7128 Q1101.79 35.5831 1103.69 41.0461 Z" fill="#000000" fill-rule="evenodd" fill-opacity="1" /><path clip-path="url(#clip060)" d="M1200.03 54.8886 L1200.03 59.0552 L1160.86 59.0552 Q1161.42 67.8515 1166.14 72.4811 Q1170.91 77.0644 1179.38 77.0644 Q1184.29 77.0644 1188.87 75.8607 Q1193.5 74.657 1198.04 72.2496 L1198.04 80.3051 Q1193.45 82.2496 1188.64 83.2681 Q1183.82 84.2866 1178.87 84.2866 Q1166.46 84.2866 1159.19 77.0644 Q1151.97 69.8422 1151.97 57.5275 Q1151.97 44.7961 1158.82 37.3424 Q1165.72 29.8424 1177.39 29.8424 Q1187.85 29.8424 1193.92 36.6017 Q1200.03 43.3146 1200.03 54.8886 M1191.51 52.3886 Q1191.42 45.3979 1187.57 41.2313 Q1183.78 37.0646 1177.48 37.0646 Q1170.35 37.0646 1166.05 41.0924 Q1161.79 45.1201 1161.14 52.4349 L1191.51 52.3886 Z" fill="#000000" fill-rule="evenodd" fill-opacity="1" /><path clip-path="url(#clip060)" d="M1257.11 51.6479 L1257.11 82.944 L1248.59 82.944 L1248.59 51.9256 Q1248.59 44.5646 1245.72 40.9072 Q1242.85 37.2498 1237.11 37.2498 Q1230.21 37.2498 1226.23 41.6479 Q1222.25 46.046 1222.25 53.6386 L1222.25 82.944 L1213.68 82.944 L1213.68 31.0924 L1222.25 31.0924 L1222.25 39.1479 Q1225.31 34.472 1229.43 32.1572 Q1233.59 29.8424 1239.01 29.8424 Q1247.94 29.8424 1252.53 35.398 Q1257.11 40.9072 1257.11 51.6479 Z" fill="#000000" fill-rule="evenodd" fill-opacity="1" /><path clip-path="url(#clip060)" d="M1282.53 16.3703 L1282.53 31.0924 L1300.07 31.0924 L1300.07 37.7128 L1282.53 37.7128 L1282.53 65.8608 Q1282.53 72.2033 1284.24 74.0089 Q1286 75.8144 1291.32 75.8144 L1300.07 75.8144 L1300.07 82.944 L1291.32 82.944 Q1281.46 82.944 1277.71 79.2866 Q1273.96 75.5829 1273.96 65.8608 L1273.96 37.7128 L1267.71 37.7128 L1267.71 31.0924 L1273.96 31.0924 L1273.96 16.3703 L1282.53 16.3703 Z" fill="#000000" fill-rule="evenodd" fill-opacity="1" /><path clip-path="url(#clip060)" d="M1374.47 32.6202 L1374.47 40.6757 Q1370.86 38.8239 1366.97 37.8979 Q1363.08 36.972 1358.92 36.972 Q1352.57 36.972 1349.38 38.9165 Q1346.23 40.8609 1346.23 44.7498 Q1346.23 47.7127 1348.5 49.4257 Q1350.77 51.0923 1357.62 52.6201 L1360.54 53.2682 Q1369.61 55.2127 1373.41 58.7775 Q1377.25 62.296 1377.25 68.6385 Q1377.25 75.8607 1371.51 80.0736 Q1365.81 84.2866 1355.81 84.2866 Q1351.65 84.2866 1347.11 83.4533 Q1342.62 82.6662 1337.62 81.0459 L1337.62 72.2496 Q1342.34 74.7033 1346.92 75.9533 Q1351.51 77.157 1356 77.157 Q1362.02 77.157 1365.26 75.12 Q1368.5 73.0366 1368.5 69.2867 Q1368.5 65.8145 1366.14 63.9626 Q1363.82 62.1108 1355.91 60.3978 L1352.94 59.7034 Q1345.03 58.0367 1341.51 54.6108 Q1337.99 51.1386 1337.99 45.1201 Q1337.99 37.8054 1343.17 33.8239 Q1348.36 29.8424 1357.9 29.8424 Q1362.62 29.8424 1366.79 30.5369 Q1370.95 31.2313 1374.47 32.6202 Z" fill="#000000" fill-rule="evenodd" fill-opacity="1" /><path clip-path="url(#clip060)" d="M1390.81 31.0924 L1399.33 31.0924 L1399.33 82.944 L1390.81 82.944 L1390.81 31.0924 M1390.81 10.9073 L1399.33 10.9073 L1399.33 21.6943 L1390.81 21.6943 L1390.81 10.9073 Z" fill="#000000" fill-rule="evenodd" fill-opacity="1" /><path clip-path="url(#clip060)" d="M1460.26 51.6479 L1460.26 82.944 L1451.74 82.944 L1451.74 51.9256 Q1451.74 44.5646 1448.87 40.9072 Q1446 37.2498 1440.26 37.2498 Q1433.36 37.2498 1429.38 41.6479 Q1425.4 46.046 1425.4 53.6386 L1425.4 82.944 L1416.83 82.944 L1416.83 31.0924 L1425.4 31.0924 L1425.4 39.1479 Q1428.45 34.472 1432.57 32.1572 Q1436.74 29.8424 1442.16 29.8424 Q1451.09 29.8424 1455.67 35.398 Q1460.26 40.9072 1460.26 51.6479 Z" fill="#000000" fill-rule="evenodd" fill-opacity="1" /><path clip-path="url(#clip060)" d="M1511.37 56.4164 Q1511.37 47.1572 1507.53 42.0646 Q1503.73 36.972 1496.83 36.972 Q1489.98 36.972 1486.14 42.0646 Q1482.34 47.1572 1482.34 56.4164 Q1482.34 65.6293 1486.14 70.7218 Q1489.98 75.8144 1496.83 75.8144 Q1503.73 75.8144 1507.53 70.7218 Q1511.37 65.6293 1511.37 56.4164 M1519.89 76.5088 Q1519.89 89.7495 1514.01 96.1847 Q1508.13 102.666 1496 102.666 Q1491.51 102.666 1487.53 101.972 Q1483.54 101.324 1479.79 99.9346 L1479.79 91.6477 Q1483.54 93.6847 1487.2 94.6569 Q1490.86 95.6291 1494.66 95.6291 Q1503.04 95.6291 1507.2 91.231 Q1511.37 86.8792 1511.37 78.0366 L1511.37 73.8237 Q1508.73 78.407 1504.61 80.6755 Q1500.49 82.944 1494.75 82.944 Q1485.21 82.944 1479.38 75.6755 Q1473.54 68.407 1473.54 56.4164 Q1473.54 44.3794 1479.38 37.1109 Q1485.21 29.8424 1494.75 29.8424 Q1500.49 29.8424 1504.61 32.1109 Q1508.73 34.3794 1511.37 38.9628 L1511.37 31.0924 L1519.89 31.0924 L1519.89 76.5088 Z" fill="#000000" fill-rule="evenodd" fill-opacity="1" /><path clip-path="url(#clip060)" d="M1537.43 10.9073 L1545.95 10.9073 L1545.95 82.944 L1537.43 82.944 L1537.43 10.9073 Z" fill="#000000" fill-rule="evenodd" fill-opacity="1" /><path clip-path="url(#clip060)" d="M1608.13 54.8886 L1608.13 59.0552 L1568.96 59.0552 Q1569.52 67.8515 1574.24 72.4811 Q1579.01 77.0644 1587.48 77.0644 Q1592.39 77.0644 1596.97 75.8607 Q1601.6 74.657 1606.14 72.2496 L1606.14 80.3051 Q1601.55 82.2496 1596.74 83.2681 Q1591.92 84.2866 1586.97 84.2866 Q1574.56 84.2866 1567.29 77.0644 Q1560.07 69.8422 1560.07 57.5275 Q1560.07 44.7961 1566.92 37.3424 Q1573.82 29.8424 1585.49 29.8424 Q1595.95 29.8424 1602.02 36.6017 Q1608.13 43.3146 1608.13 54.8886 M1599.61 52.3886 Q1599.52 45.3979 1595.67 41.2313 Q1591.88 37.0646 1585.58 37.0646 Q1578.45 37.0646 1574.15 41.0924 Q1569.89 45.1201 1569.24 52.4349 L1599.61 52.3886 Z" fill="#000000" fill-rule="evenodd" fill-opacity="1" /><path clip-path="url(#clip060)" d="M1689.56 33.0832 L1689.56 41.0461 Q1685.95 39.0553 1682.29 38.0831 Q1678.68 37.0646 1674.98 37.0646 Q1666.69 37.0646 1662.11 42.3424 Q1657.53 47.5738 1657.53 57.0645 Q1657.53 66.5552 1662.11 71.8329 Q1666.69 77.0644 1674.98 77.0644 Q1678.68 77.0644 1682.29 76.0922 Q1685.95 75.0737 1689.56 73.0829 L1689.56 80.9533 Q1686 82.6199 1682.15 83.4533 Q1678.36 84.2866 1674.05 84.2866 Q1662.34 84.2866 1655.44 76.9255 Q1648.54 69.5644 1648.54 57.0645 Q1648.54 44.3794 1655.49 37.1109 Q1662.48 29.8424 1674.61 29.8424 Q1678.54 29.8424 1682.29 30.6758 Q1686.04 31.4628 1689.56 33.0832 Z" fill="#000000" fill-rule="evenodd" fill-opacity="1" /><path clip-path="url(#clip060)" d="M1724.47 37.0646 Q1717.62 37.0646 1713.64 42.435 Q1709.65 47.759 1709.65 57.0645 Q1709.65 66.37 1713.59 71.7404 Q1717.57 77.0644 1724.47 77.0644 Q1731.27 77.0644 1735.26 71.6941 Q1739.24 66.3237 1739.24 57.0645 Q1739.24 47.8516 1735.26 42.4813 Q1731.27 37.0646 1724.47 37.0646 M1724.47 29.8424 Q1735.58 29.8424 1741.92 37.0646 Q1748.27 44.2868 1748.27 57.0645 Q1748.27 69.7959 1741.92 77.0644 Q1735.58 84.2866 1724.47 84.2866 Q1713.31 84.2866 1706.97 77.0644 Q1700.67 69.7959 1700.67 57.0645 Q1700.67 44.2868 1706.97 37.0646 Q1713.31 29.8424 1724.47 29.8424 Z" fill="#000000" fill-rule="evenodd" fill-opacity="1" /><path clip-path="url(#clip060)" d="M1762.39 10.9073 L1770.9 10.9073 L1770.9 82.944 L1762.39 82.944 L1762.39 10.9073 Z" fill="#000000" fill-rule="evenodd" fill-opacity="1" /><path clip-path="url(#clip060)" d="M1787.85 62.4811 L1787.85 31.0924 L1796.37 31.0924 L1796.37 62.1571 Q1796.37 69.5181 1799.24 73.2218 Q1802.11 76.8792 1807.85 76.8792 Q1814.75 76.8792 1818.73 72.4811 Q1822.76 68.083 1822.76 60.4904 L1822.76 31.0924 L1831.27 31.0924 L1831.27 82.944 L1822.76 82.944 L1822.76 74.9811 Q1819.65 79.7033 1815.53 82.0181 Q1811.46 84.2866 1806.04 84.2866 Q1797.11 84.2866 1792.48 78.7311 Q1787.85 73.1755 1787.85 62.4811 M1809.28 29.8424 L1809.28 29.8424 Z" fill="#000000" fill-rule="evenodd" fill-opacity="1" /><path clip-path="url(#clip060)" d="M1889.19 41.0461 Q1892.38 35.3054 1896.83 32.5739 Q1901.27 29.8424 1907.29 29.8424 Q1915.39 29.8424 1919.79 35.5368 Q1924.19 41.185 1924.19 51.6479 L1924.19 82.944 L1915.63 82.944 L1915.63 51.9256 Q1915.63 44.472 1912.99 40.8609 Q1910.35 37.2498 1904.93 37.2498 Q1898.31 37.2498 1894.47 41.6479 Q1890.63 46.046 1890.63 53.6386 L1890.63 82.944 L1882.06 82.944 L1882.06 51.9256 Q1882.06 44.4257 1879.42 40.8609 Q1876.78 37.2498 1871.27 37.2498 Q1864.75 37.2498 1860.9 41.6942 Q1857.06 46.0923 1857.06 53.6386 L1857.06 82.944 L1848.5 82.944 L1848.5 31.0924 L1857.06 31.0924 L1857.06 39.1479 Q1859.98 34.3794 1864.05 32.1109 Q1868.13 29.8424 1873.73 29.8424 Q1879.38 29.8424 1883.31 32.7128 Q1887.29 35.5831 1889.19 41.0461 Z" fill="#000000" fill-rule="evenodd" fill-opacity="1" /><path clip-path="url(#clip060)" d="M1984.28 51.6479 L1984.28 82.944 L1975.76 82.944 L1975.76 51.9256 Q1975.76 44.5646 1972.89 40.9072 Q1970.02 37.2498 1964.28 37.2498 Q1957.38 37.2498 1953.4 41.6479 Q1949.42 46.046 1949.42 53.6386 L1949.42 82.944 L1940.86 82.944 L1940.86 31.0924 L1949.42 31.0924 L1949.42 39.1479 Q1952.48 34.472 1956.6 32.1572 Q1960.76 29.8424 1966.18 29.8424 Q1975.12 29.8424 1979.7 35.398 Q1984.28 40.9072 1984.28 51.6479 Z" fill="#000000" fill-rule="evenodd" fill-opacity="1" /></svg>
