<?xml version="1.0" encoding="utf-8"?>
<svg xmlns="http://www.w3.org/2000/svg" xmlns:xlink="http://www.w3.org/1999/xlink" width="600" height="300" viewBox="0 0 2400 1200">
<defs>
  <clipPath id="clip060">
    <rect x="0" y="0" width="2400" height="1200"/>
  </clipPath>
</defs>
<path clip-path="url(#clip060)" d="
M0 1200 L2400 1200 L2400 0 L0 0  Z
  " fill="#ffffff" fill-rule="evenodd" fill-opacity="1"/>
<defs>
  <clipPath id="clip061">
    <rect x="480" y="0" width="1681" height="1200"/>
  </clipPath>
</defs>
<path clip-path="url(#clip060)" d="
M239.492 1038.49 L1178.45 1038.49 L1178.45 215.392 L239.492 215.392  Z
  " fill="#ffffff" fill-rule="evenodd" fill-opacity="1"/>
<defs>
  <clipPath id="clip062">
    <rect x="239" y="215" width="940" height="824"/>
  </clipPath>
</defs>
<polyline clip-path="url(#clip062)" style="stroke:#000000; stroke-linecap:butt; stroke-linejoin:round; stroke-width:2; stroke-opacity:0.1; fill:none" points="
  266.066,1038.49 266.066,215.392 
  "/>
<polyline clip-path="url(#clip062)" style="stroke:#000000; stroke-linecap:butt; stroke-linejoin:round; stroke-width:2; stroke-opacity:0.1; fill:none" points="
  561.336,1038.49 561.336,215.392 
  "/>
<polyline clip-path="url(#clip062)" style="stroke:#000000; stroke-linecap:butt; stroke-linejoin:round; stroke-width:2; stroke-opacity:0.1; fill:none" points="
  856.606,1038.49 856.606,215.392 
  "/>
<polyline clip-path="url(#clip062)" style="stroke:#000000; stroke-linecap:butt; stroke-linejoin:round; stroke-width:2; stroke-opacity:0.1; fill:none" points="
  1151.88,1038.49 1151.88,215.392 
  "/>
<polyline clip-path="url(#clip060)" style="stroke:#000000; stroke-linecap:butt; stroke-linejoin:round; stroke-width:4; stroke-opacity:1; fill:none" points="
  239.492,1038.49 1178.45,1038.49 
  "/>
<polyline clip-path="url(#clip060)" style="stroke:#000000; stroke-linecap:butt; stroke-linejoin:round; stroke-width:4; stroke-opacity:1; fill:none" points="
  266.066,1038.49 266.066,1019.59 
  "/>
<polyline clip-path="url(#clip060)" style="stroke:#000000; stroke-linecap:butt; stroke-linejoin:round; stroke-width:4; stroke-opacity:1; fill:none" points="
  561.336,1038.49 561.336,1019.59 
  "/>
<polyline clip-path="url(#clip060)" style="stroke:#000000; stroke-linecap:butt; stroke-linejoin:round; stroke-width:4; stroke-opacity:1; fill:none" points="
  856.606,1038.49 856.606,1019.59 
  "/>
<polyline clip-path="url(#clip060)" style="stroke:#000000; stroke-linecap:butt; stroke-linejoin:round; stroke-width:4; stroke-opacity:1; fill:none" points="
  1151.88,1038.49 1151.88,1019.59 
  "/>
<path clip-path="url(#clip060)" d="M231.059 1112.61 L238.698 1112.61 L238.698 1086.25 L230.387 1087.91 L230.387 1083.65 L238.651 1081.99 L243.327 1081.99 L243.327 1112.61 L250.966 1112.61 L250.966 1116.55 L231.059 1116.55 L231.059 1112.61 Z" fill="#000000" fill-rule="evenodd" fill-opacity="1" /><path clip-path="url(#clip060)" d="M270.41 1085.07 Q266.799 1085.07 264.971 1088.63 Q263.165 1092.17 263.165 1099.3 Q263.165 1106.41 264.971 1109.97 Q266.799 1113.52 270.41 1113.52 Q274.045 1113.52 275.85 1109.97 Q277.679 1106.41 277.679 1099.3 Q277.679 1092.17 275.85 1088.63 Q274.045 1085.07 270.41 1085.07 M270.41 1081.36 Q276.22 1081.36 279.276 1085.97 Q282.355 1090.55 282.355 1099.3 Q282.355 1108.03 279.276 1112.64 Q276.22 1117.22 270.41 1117.22 Q264.6 1117.22 261.521 1112.64 Q258.466 1108.03 258.466 1099.3 Q258.466 1090.55 261.521 1085.97 Q264.6 1081.36 270.41 1081.36 Z" fill="#000000" fill-rule="evenodd" fill-opacity="1" /><path clip-path="url(#clip060)" d="M292.379 1073.58 Q289.821 1073.58 288.317 1075.33 Q286.831 1077.08 286.831 1080.13 Q286.831 1083.16 288.317 1084.92 Q289.821 1086.67 292.379 1086.67 Q294.937 1086.67 296.423 1084.92 Q297.928 1083.16 297.928 1080.13 Q297.928 1077.08 296.423 1075.33 Q294.937 1073.58 292.379 1073.58 M299.921 1061.68 L299.921 1065.14 Q298.492 1064.46 297.025 1064.1 Q295.577 1063.75 294.147 1063.75 Q290.386 1063.75 288.392 1066.29 Q286.417 1068.82 286.135 1073.96 Q287.245 1072.32 288.919 1071.46 Q290.593 1070.57 292.605 1070.57 Q296.837 1070.57 299.282 1073.15 Q301.746 1075.71 301.746 1080.13 Q301.746 1084.45 299.188 1087.07 Q296.63 1089.68 292.379 1089.68 Q287.508 1089.68 284.931 1085.96 Q282.355 1082.22 282.355 1075.13 Q282.355 1068.47 285.514 1064.52 Q288.674 1060.55 293.997 1060.55 Q295.426 1060.55 296.874 1060.83 Q298.341 1061.11 299.921 1061.68 Z" fill="#000000" fill-rule="evenodd" fill-opacity="1" /><path clip-path="url(#clip060)" d="M526.996 1112.61 L534.635 1112.61 L534.635 1086.25 L526.325 1087.91 L526.325 1083.65 L534.589 1081.99 L539.265 1081.99 L539.265 1112.61 L546.903 1112.61 L546.903 1116.55 L526.996 1116.55 L526.996 1112.61 Z" fill="#000000" fill-rule="evenodd" fill-opacity="1" /><path clip-path="url(#clip060)" d="M566.348 1085.07 Q562.737 1085.07 560.908 1088.63 Q559.102 1092.17 559.102 1099.3 Q559.102 1106.41 560.908 1109.97 Q562.737 1113.52 566.348 1113.52 Q569.982 1113.52 571.788 1109.97 Q573.616 1106.41 573.616 1099.3 Q573.616 1092.17 571.788 1088.63 Q569.982 1085.07 566.348 1085.07 M566.348 1081.36 Q572.158 1081.36 575.213 1085.97 Q578.292 1090.55 578.292 1099.3 Q578.292 1108.03 575.213 1112.64 Q572.158 1117.22 566.348 1117.22 Q560.538 1117.22 557.459 1112.64 Q554.403 1108.03 554.403 1099.3 Q554.403 1090.55 557.459 1085.97 Q560.538 1081.36 566.348 1081.36 Z" fill="#000000" fill-rule="evenodd" fill-opacity="1" /><path clip-path="url(#clip060)" d="M578.292 1061.06 L596.348 1061.06 L596.348 1062.67 L586.154 1089.14 L582.185 1089.14 L591.777 1064.25 L578.292 1064.25 L578.292 1061.06 Z" fill="#000000" fill-rule="evenodd" fill-opacity="1" /><path clip-path="url(#clip060)" d="M821.664 1112.61 L829.303 1112.61 L829.303 1086.25 L820.993 1087.91 L820.993 1083.65 L829.257 1081.99 L833.932 1081.99 L833.932 1112.61 L841.571 1112.61 L841.571 1116.55 L821.664 1116.55 L821.664 1112.61 Z" fill="#000000" fill-rule="evenodd" fill-opacity="1" /><path clip-path="url(#clip060)" d="M861.016 1085.07 Q857.405 1085.07 855.576 1088.63 Q853.77 1092.17 853.77 1099.3 Q853.77 1106.41 855.576 1109.97 Q857.405 1113.52 861.016 1113.52 Q864.65 1113.52 866.455 1109.97 Q868.284 1106.41 868.284 1099.3 Q868.284 1092.17 866.455 1088.63 Q864.65 1085.07 861.016 1085.07 M861.016 1081.36 Q866.826 1081.36 869.881 1085.97 Q872.96 1090.55 872.96 1099.3 Q872.96 1108.03 869.881 1112.64 Q866.826 1117.22 861.016 1117.22 Q855.205 1117.22 852.127 1112.64 Q849.071 1108.03 849.071 1099.3 Q849.071 1090.55 852.127 1085.97 Q855.205 1081.36 861.016 1081.36 Z" fill="#000000" fill-rule="evenodd" fill-opacity="1" /><path clip-path="url(#clip060)" d="M882.59 1075.8 Q879.881 1075.8 878.32 1077.25 Q876.778 1078.7 876.778 1081.24 Q876.778 1083.78 878.32 1085.23 Q879.881 1086.67 882.59 1086.67 Q885.298 1086.67 886.859 1085.23 Q888.42 1083.76 888.42 1081.24 Q888.42 1078.7 886.859 1077.25 Q885.317 1075.8 882.59 1075.8 M878.79 1074.18 Q876.345 1073.58 874.972 1071.91 Q873.618 1070.24 873.618 1067.83 Q873.618 1064.46 876.007 1062.51 Q878.414 1060.55 882.59 1060.55 Q886.784 1060.55 889.172 1062.51 Q891.561 1064.46 891.561 1067.83 Q891.561 1070.24 890.188 1071.91 Q888.834 1073.58 886.408 1074.18 Q889.153 1074.82 890.677 1076.69 Q892.219 1078.55 892.219 1081.24 Q892.219 1085.32 889.718 1087.5 Q887.235 1089.68 882.59 1089.68 Q877.944 1089.68 875.443 1087.5 Q872.96 1085.32 872.96 1081.24 Q872.96 1078.55 874.502 1076.69 Q876.044 1074.82 878.79 1074.18 M877.399 1068.19 Q877.399 1070.37 878.753 1071.59 Q880.126 1072.81 882.59 1072.81 Q885.035 1072.81 886.408 1071.59 Q887.799 1070.37 887.799 1068.19 Q887.799 1066 886.408 1064.78 Q885.035 1063.56 882.59 1063.56 Q880.126 1063.56 878.753 1064.78 Q877.399 1066 877.399 1068.19 Z" fill="#000000" fill-rule="evenodd" fill-opacity="1" /><path clip-path="url(#clip060)" d="M1116.88 1112.61 L1124.52 1112.61 L1124.52 1086.25 L1116.21 1087.91 L1116.21 1083.65 L1124.47 1081.99 L1129.15 1081.99 L1129.15 1112.61 L1136.78 1112.61 L1136.78 1116.55 L1116.88 1116.55 L1116.88 1112.61 Z" fill="#000000" fill-rule="evenodd" fill-opacity="1" /><path clip-path="url(#clip060)" d="M1156.23 1085.07 Q1152.62 1085.07 1150.79 1088.63 Q1148.98 1092.17 1148.98 1099.3 Q1148.98 1106.41 1150.79 1109.97 Q1152.62 1113.52 1156.23 1113.52 Q1159.86 1113.52 1161.67 1109.97 Q1163.5 1106.41 1163.5 1099.3 Q1163.5 1092.17 1161.67 1088.63 Q1159.86 1085.07 1156.23 1085.07 M1156.23 1081.36 Q1162.04 1081.36 1165.09 1085.97 Q1168.17 1090.55 1168.17 1099.3 Q1168.17 1108.03 1165.09 1112.64 Q1162.04 1117.22 1156.23 1117.22 Q1150.42 1117.22 1147.34 1112.64 Q1144.28 1108.03 1144.28 1099.3 Q1144.28 1090.55 1147.34 1085.97 Q1150.42 1081.36 1156.23 1081.36 Z" fill="#000000" fill-rule="evenodd" fill-opacity="1" /><path clip-path="url(#clip060)" d="M1169.98 1088.55 L1169.98 1085.09 Q1171.41 1085.77 1172.88 1086.13 Q1174.34 1086.49 1175.75 1086.49 Q1179.51 1086.49 1181.49 1083.96 Q1183.48 1081.43 1183.76 1076.27 Q1182.67 1077.89 1181 1078.76 Q1179.33 1079.62 1177.3 1079.62 Q1173.08 1079.62 1170.62 1077.08 Q1168.17 1074.52 1168.17 1070.1 Q1168.17 1065.78 1170.73 1063.16 Q1173.29 1060.55 1177.54 1060.55 Q1182.41 1060.55 1184.97 1064.29 Q1187.55 1068.02 1187.55 1075.13 Q1187.55 1081.76 1184.39 1085.73 Q1181.24 1089.68 1175.92 1089.68 Q1174.49 1089.68 1173.03 1089.4 Q1171.56 1089.12 1169.98 1088.55 M1177.54 1076.65 Q1180.1 1076.65 1181.58 1074.9 Q1183.09 1073.15 1183.09 1070.1 Q1183.09 1067.08 1181.58 1065.33 Q1180.1 1063.56 1177.54 1063.56 Q1174.98 1063.56 1173.48 1065.33 Q1171.99 1067.08 1171.99 1070.1 Q1171.99 1073.15 1173.48 1074.9 Q1174.98 1076.65 1177.54 1076.65 Z" fill="#000000" fill-rule="evenodd" fill-opacity="1" /><path clip-path="url(#clip060)" d="M723.899 1180.26 L723.899 1201.78 L718.042 1201.78 L718.042 1180.45 Q718.042 1175.39 716.069 1172.88 Q714.095 1170.36 710.149 1170.36 Q705.406 1170.36 702.669 1173.39 Q699.932 1176.41 699.932 1181.63 L699.932 1201.78 L694.043 1201.78 L694.043 1166.13 L699.932 1166.13 L699.932 1171.67 Q702.032 1168.45 704.865 1166.86 Q707.73 1165.27 711.454 1165.27 Q717.597 1165.27 720.748 1169.09 Q723.899 1172.88 723.899 1180.26 Z" fill="#000000" fill-rule="evenodd" fill-opacity="1" /><polyline clip-path="url(#clip062)" style="stroke:#000000; stroke-linecap:butt; stroke-linejoin:round; stroke-width:2; stroke-opacity:0.1; fill:none" points="
  239.492,999.769 1178.45,999.769 
  "/>
<polyline clip-path="url(#clip062)" style="stroke:#000000; stroke-linecap:butt; stroke-linejoin:round; stroke-width:2; stroke-opacity:0.1; fill:none" points="
  239.492,805.048 1178.45,805.048 
  "/>
<polyline clip-path="url(#clip062)" style="stroke:#000000; stroke-linecap:butt; stroke-linejoin:round; stroke-width:2; stroke-opacity:0.1; fill:none" points="
  239.492,610.326 1178.45,610.326 
  "/>
<polyline clip-path="url(#clip062)" style="stroke:#000000; stroke-linecap:butt; stroke-linejoin:round; stroke-width:2; stroke-opacity:0.1; fill:none" points="
  239.492,415.605 1178.45,415.605 
  "/>
<polyline clip-path="url(#clip062)" style="stroke:#000000; stroke-linecap:butt; stroke-linejoin:round; stroke-width:2; stroke-opacity:0.1; fill:none" points="
  239.492,220.884 1178.45,220.884 
  "/>
<polyline clip-path="url(#clip060)" style="stroke:#000000; stroke-linecap:butt; stroke-linejoin:round; stroke-width:4; stroke-opacity:1; fill:none" points="
  239.492,1038.49 239.492,215.392 
  "/>
<polyline clip-path="url(#clip060)" style="stroke:#000000; stroke-linecap:butt; stroke-linejoin:round; stroke-width:4; stroke-opacity:1; fill:none" points="
  239.492,999.769 258.39,999.769 
  "/>
<polyline clip-path="url(#clip060)" style="stroke:#000000; stroke-linecap:butt; stroke-linejoin:round; stroke-width:4; stroke-opacity:1; fill:none" points="
  239.492,805.048 258.39,805.048 
  "/>
<polyline clip-path="url(#clip060)" style="stroke:#000000; stroke-linecap:butt; stroke-linejoin:round; stroke-width:4; stroke-opacity:1; fill:none" points="
  239.492,610.326 258.39,610.326 
  "/>
<polyline clip-path="url(#clip060)" style="stroke:#000000; stroke-linecap:butt; stroke-linejoin:round; stroke-width:4; stroke-opacity:1; fill:none" points="
  239.492,415.605 258.39,415.605 
  "/>
<polyline clip-path="url(#clip060)" style="stroke:#000000; stroke-linecap:butt; stroke-linejoin:round; stroke-width:4; stroke-opacity:1; fill:none" points="
  239.492,220.884 258.39,220.884 
  "/>
<path clip-path="url(#clip060)" d="M103.352 1019.56 L110.991 1019.56 L110.991 993.195 L102.681 994.862 L102.681 990.603 L110.945 988.936 L115.621 988.936 L115.621 1019.56 L123.26 1019.56 L123.26 1023.5 L103.352 1023.5 L103.352 1019.56 Z" fill="#000000" fill-rule="evenodd" fill-opacity="1" /><path clip-path="url(#clip060)" d="M142.704 992.015 Q139.093 992.015 137.264 995.58 Q135.459 999.121 135.459 1006.25 Q135.459 1013.36 137.264 1016.92 Q139.093 1020.46 142.704 1020.46 Q146.338 1020.46 148.144 1016.92 Q149.972 1013.36 149.972 1006.25 Q149.972 999.121 148.144 995.58 Q146.338 992.015 142.704 992.015 M142.704 988.311 Q148.514 988.311 151.57 992.918 Q154.648 997.501 154.648 1006.25 Q154.648 1014.98 151.57 1019.58 Q148.514 1024.17 142.704 1024.17 Q136.894 1024.17 133.815 1019.58 Q130.76 1014.98 130.76 1006.25 Q130.76 997.501 133.815 992.918 Q136.894 988.311 142.704 988.311 Z" fill="#000000" fill-rule="evenodd" fill-opacity="1" /><path clip-path="url(#clip060)" d="M154.648 982.413 L178.76 982.413 L178.76 985.61 L154.648 985.61 L154.648 982.413 Z" fill="#000000" fill-rule="evenodd" fill-opacity="1" /><path clip-path="url(#clip060)" d="M190.233 992.888 L203.492 992.888 L203.492 996.086 L185.662 996.086 L185.662 992.888 Q187.825 990.65 191.549 986.889 Q195.292 983.108 196.251 982.018 Q198.076 979.968 198.79 978.557 Q199.524 977.128 199.524 975.755 Q199.524 973.516 197.944 972.106 Q196.383 970.695 193.863 970.695 Q192.076 970.695 190.082 971.316 Q188.107 971.937 185.85 973.197 L185.85 969.36 Q188.145 968.438 190.139 967.968 Q192.132 967.498 193.787 967.498 Q198.151 967.498 200.746 969.68 Q203.342 971.861 203.342 975.51 Q203.342 977.24 202.683 978.801 Q202.044 980.344 200.332 982.45 Q199.862 982.996 197.342 985.61 Q194.822 988.205 190.233 992.888 Z" fill="#000000" fill-rule="evenodd" fill-opacity="1" /><path clip-path="url(#clip060)" d="M103.051 824.84 L110.69 824.84 L110.69 798.474 L102.38 800.141 L102.38 795.882 L110.644 794.215 L115.32 794.215 L115.32 824.84 L122.959 824.84 L122.959 828.775 L103.051 828.775 L103.051 824.84 Z" fill="#000000" fill-rule="evenodd" fill-opacity="1" /><path clip-path="url(#clip060)" d="M142.403 797.294 Q138.792 797.294 136.963 800.859 Q135.158 804.4 135.158 811.53 Q135.158 818.636 136.963 822.201 Q138.792 825.743 142.403 825.743 Q146.037 825.743 147.843 822.201 Q149.672 818.636 149.672 811.53 Q149.672 804.4 147.843 800.859 Q146.037 797.294 142.403 797.294 M142.403 793.59 Q148.213 793.59 151.269 798.197 Q154.347 802.78 154.347 811.53 Q154.347 820.257 151.269 824.863 Q148.213 829.446 142.403 829.446 Q136.593 829.446 133.514 824.863 Q130.459 820.257 130.459 811.53 Q130.459 802.78 133.514 798.197 Q136.593 793.59 142.403 793.59 Z" fill="#000000" fill-rule="evenodd" fill-opacity="1" /><path clip-path="url(#clip060)" d="M154.347 787.691 L178.459 787.691 L178.459 790.889 L154.347 790.889 L154.347 787.691 Z" fill="#000000" fill-rule="evenodd" fill-opacity="1" /><path clip-path="url(#clip060)" d="M187.317 798.167 L193.524 798.167 L193.524 776.745 L186.772 778.1 L186.772 774.639 L193.486 773.285 L197.286 773.285 L197.286 798.167 L203.492 798.167 L203.492 801.365 L187.317 801.365 L187.317 798.167 Z" fill="#000000" fill-rule="evenodd" fill-opacity="1" /><path clip-path="url(#clip060)" d="M132.787 630.119 L140.425 630.119 L140.425 603.753 L132.115 605.42 L132.115 601.161 L140.379 599.494 L145.055 599.494 L145.055 630.119 L152.694 630.119 L152.694 634.054 L132.787 634.054 L132.787 630.119 Z" fill="#000000" fill-rule="evenodd" fill-opacity="1" /><path clip-path="url(#clip060)" d="M172.138 602.573 Q168.527 602.573 166.698 606.137 Q164.893 609.679 164.893 616.809 Q164.893 623.915 166.698 627.48 Q168.527 631.022 172.138 631.022 Q175.772 631.022 177.578 627.48 Q179.407 623.915 179.407 616.809 Q179.407 609.679 177.578 606.137 Q175.772 602.573 172.138 602.573 M172.138 598.869 Q177.948 598.869 181.004 603.475 Q184.083 608.059 184.083 616.809 Q184.083 625.536 181.004 630.142 Q177.948 634.725 172.138 634.725 Q166.328 634.725 163.249 630.142 Q160.194 625.536 160.194 616.809 Q160.194 608.059 163.249 603.475 Q166.328 598.869 172.138 598.869 Z" fill="#000000" fill-rule="evenodd" fill-opacity="1" /><path clip-path="url(#clip060)" d="M193.787 581.065 Q190.853 581.065 189.368 583.961 Q187.901 586.839 187.901 592.632 Q187.901 598.406 189.368 601.302 Q190.853 604.18 193.787 604.18 Q196.74 604.18 198.207 601.302 Q199.693 598.406 199.693 592.632 Q199.693 586.839 198.207 583.961 Q196.74 581.065 193.787 581.065 M193.787 578.056 Q198.508 578.056 200.991 581.799 Q203.492 585.522 203.492 592.632 Q203.492 599.722 200.991 603.465 Q198.508 607.189 193.787 607.189 Q189.067 607.189 186.565 603.465 Q184.083 599.722 184.083 592.632 Q184.083 585.522 186.565 581.799 Q189.067 578.056 193.787 578.056 Z" fill="#000000" fill-rule="evenodd" fill-opacity="1" /><path clip-path="url(#clip060)" d="M135.476 435.398 L143.115 435.398 L143.115 409.032 L134.805 410.699 L134.805 406.44 L143.069 404.773 L147.744 404.773 L147.744 435.398 L155.383 435.398 L155.383 439.333 L135.476 439.333 L135.476 435.398 Z" fill="#000000" fill-rule="evenodd" fill-opacity="1" /><path clip-path="url(#clip060)" d="M174.828 407.852 Q171.217 407.852 169.388 411.416 Q167.582 414.958 167.582 422.088 Q167.582 429.194 169.388 432.759 Q171.217 436.301 174.828 436.301 Q178.462 436.301 180.267 432.759 Q182.096 429.194 182.096 422.088 Q182.096 414.958 180.267 411.416 Q178.462 407.852 174.828 407.852 M174.828 404.148 Q180.638 404.148 183.693 408.754 Q186.772 413.338 186.772 422.088 Q186.772 430.814 183.693 435.421 Q180.638 440.004 174.828 440.004 Q169.018 440.004 165.939 435.421 Q162.883 430.814 162.883 422.088 Q162.883 413.338 165.939 408.754 Q169.018 404.148 174.828 404.148 Z" fill="#000000" fill-rule="evenodd" fill-opacity="1" /><path clip-path="url(#clip060)" d="M187.317 408.725 L193.524 408.725 L193.524 387.303 L186.772 388.657 L186.772 385.197 L193.486 383.843 L197.286 383.843 L197.286 408.725 L203.492 408.725 L203.492 411.923 L187.317 411.923 L187.317 408.725 Z" fill="#000000" fill-rule="evenodd" fill-opacity="1" /><path clip-path="url(#clip060)" d="M134.366 240.677 L142.005 240.677 L142.005 214.311 L133.695 215.978 L133.695 211.718 L141.959 210.052 L146.635 210.052 L146.635 240.677 L154.274 240.677 L154.274 244.612 L134.366 244.612 L134.366 240.677 Z" fill="#000000" fill-rule="evenodd" fill-opacity="1" /><path clip-path="url(#clip060)" d="M173.718 213.13 Q170.107 213.13 168.278 216.695 Q166.473 220.237 166.473 227.367 Q166.473 234.473 168.278 238.038 Q170.107 241.579 173.718 241.579 Q177.352 241.579 179.158 238.038 Q180.987 234.473 180.987 227.367 Q180.987 220.237 179.158 216.695 Q177.352 213.13 173.718 213.13 M173.718 209.427 Q179.528 209.427 182.584 214.033 Q185.662 218.617 185.662 227.367 Q185.662 236.093 182.584 240.7 Q179.528 245.283 173.718 245.283 Q167.908 245.283 164.829 240.7 Q161.774 236.093 161.774 227.367 Q161.774 218.617 164.829 214.033 Q167.908 209.427 173.718 209.427 Z" fill="#000000" fill-rule="evenodd" fill-opacity="1" /><path clip-path="url(#clip060)" d="M190.233 214.004 L203.492 214.004 L203.492 217.201 L185.662 217.201 L185.662 214.004 Q187.825 211.766 191.549 208.004 Q195.292 204.224 196.251 203.133 Q198.076 201.083 198.79 199.673 Q199.524 198.243 199.524 196.87 Q199.524 194.632 197.944 193.222 Q196.383 191.811 193.863 191.811 Q192.076 191.811 190.082 192.432 Q188.107 193.052 185.85 194.312 L185.85 190.476 Q188.145 189.554 190.139 189.084 Q192.132 188.614 193.787 188.614 Q198.151 188.614 200.746 190.795 Q203.342 192.977 203.342 196.626 Q203.342 198.356 202.683 199.917 Q202.044 201.459 200.332 203.566 Q199.862 204.111 197.342 206.725 Q194.822 209.321 190.233 214.004 Z" fill="#000000" fill-rule="evenodd" fill-opacity="1" /><path clip-path="url(#clip060)" d="M6.35473 739.485 L16.4762 739.485 L16.4762 727.422 L21.0277 727.422 L21.0277 739.485 L40.3794 739.485 Q44.7399 739.485 45.9813 738.308 Q47.2226 737.098 47.2226 733.438 L47.2226 727.422 L52.1242 727.422 L52.1242 733.438 Q52.1242 740.218 49.6097 742.796 Q47.0634 745.374 40.3794 745.374 L21.0277 745.374 L21.0277 749.671 L16.4762 749.671 L16.4762 745.374 L6.35473 745.374 L6.35473 739.485 Z" fill="#000000" fill-rule="evenodd" fill-opacity="1" /><path clip-path="url(#clip060)" d="M16.4762 719.72 L16.4762 713.864 L52.1242 713.864 L52.1242 719.72 L16.4762 719.72 M2.59896 719.72 L2.59896 713.864 L10.015 713.864 L10.015 719.72 L2.59896 719.72 Z" fill="#000000" fill-rule="evenodd" fill-opacity="1" /><path clip-path="url(#clip060)" d="M23.3193 673.855 Q19.3726 671.659 17.4947 668.603 Q15.6168 665.548 15.6168 661.41 Q15.6168 655.84 19.5317 652.816 Q23.4148 649.793 30.6081 649.793 L52.1242 649.793 L52.1242 655.681 L30.799 655.681 Q25.6746 655.681 23.192 657.495 Q20.7094 659.309 20.7094 663.033 Q20.7094 667.585 23.7331 670.227 Q26.7568 672.868 31.9767 672.868 L52.1242 672.868 L52.1242 678.757 L30.799 678.757 Q25.6428 678.757 23.192 680.571 Q20.7094 682.385 20.7094 686.173 Q20.7094 690.661 23.7649 693.302 Q26.7886 695.944 31.9767 695.944 L52.1242 695.944 L52.1242 701.832 L16.4762 701.832 L16.4762 695.944 L22.0144 695.944 Q18.736 693.939 17.1764 691.138 Q15.6168 688.337 15.6168 684.486 Q15.6168 680.603 17.5902 677.897 Q19.5636 675.16 23.3193 673.855 Z" fill="#000000" fill-rule="evenodd" fill-opacity="1" /><path clip-path="url(#clip060)" d="M32.8361 607.62 L35.7006 607.62 L35.7006 634.547 Q41.7481 634.165 44.9309 630.918 Q48.0819 627.64 48.0819 621.815 Q48.0819 618.442 47.2544 615.291 Q46.4269 612.108 44.7718 608.988 L50.3099 608.988 Q51.6467 612.14 52.347 615.45 Q53.0472 618.76 53.0472 622.166 Q53.0472 630.696 48.0819 635.693 Q43.1167 640.658 34.6503 640.658 Q25.8974 640.658 20.7731 635.947 Q15.6168 631.205 15.6168 623.184 Q15.6168 615.991 20.2638 611.821 Q24.8789 607.62 32.8361 607.62 M31.1173 613.476 Q26.3112 613.54 23.4466 616.182 Q20.5821 618.792 20.5821 623.12 Q20.5821 628.022 23.3512 630.982 Q26.1202 633.91 31.1492 634.356 L31.1173 613.476 Z" fill="#000000" fill-rule="evenodd" fill-opacity="1" /><path clip-path="url(#clip060)" d="M2.59896 577.828 L2.59896 564.333 L7.15044 564.333 L7.15044 571.972 L56.1664 571.972 L56.1664 564.333 L60.7179 564.333 L60.7179 577.828 L2.59896 577.828 Z" fill="#000000" fill-rule="evenodd" fill-opacity="1" /><path clip-path="url(#clip060)" d="M17.5265 529.131 L23.0647 529.131 Q21.7916 531.613 21.155 534.287 Q20.5184 536.961 20.5184 539.825 Q20.5184 544.186 21.8552 546.382 Q23.192 548.546 25.8656 548.546 Q27.9026 548.546 29.0803 546.987 Q30.2261 545.427 31.2765 540.716 L31.7221 538.711 Q33.0589 532.473 35.5097 529.863 Q37.9286 527.221 42.2891 527.221 Q47.2544 527.221 50.1508 531.168 Q53.0472 535.083 53.0472 541.958 Q53.0472 544.822 52.4743 547.941 Q51.9332 551.029 50.8192 554.466 L44.7718 554.466 Q46.4587 551.22 47.318 548.069 Q48.1456 544.918 48.1456 541.83 Q48.1456 537.693 46.7451 535.465 Q45.3129 533.237 42.7347 533.237 Q40.3476 533.237 39.0745 534.86 Q37.8013 536.451 36.6237 541.894 L36.1462 543.931 Q35.0004 549.374 32.6451 551.793 Q30.258 554.212 26.1202 554.212 Q21.0913 554.212 18.3541 550.647 Q15.6168 547.082 15.6168 540.525 Q15.6168 537.279 16.0943 534.414 Q16.5717 531.55 17.5265 529.131 Z" fill="#000000" fill-rule="evenodd" fill-opacity="1" /><path clip-path="url(#clip060)" d="M2.59896 504.209 L60.7179 504.209 L60.7179 517.704 L56.1664 517.704 L56.1664 510.097 L7.15044 510.097 L7.15044 517.704 L2.59896 517.704 L2.59896 504.209 Z" fill="#000000" fill-rule="evenodd" fill-opacity="1" /><path clip-path="url(#clip060)" d="M515.54 140.677 L515.54 145.654 Q513.283 144.41 510.998 143.802 Q508.741 143.165 506.426 143.165 Q501.246 143.165 498.382 146.464 Q495.517 149.734 495.517 155.665 Q495.517 161.597 498.382 164.896 Q501.246 168.165 506.426 168.165 Q508.741 168.165 510.998 167.558 Q513.283 166.921 515.54 165.677 L515.54 170.596 Q513.312 171.637 510.911 172.158 Q508.538 172.679 505.847 172.679 Q498.527 172.679 494.215 168.078 Q489.904 163.478 489.904 155.665 Q489.904 147.737 494.244 143.194 Q498.613 138.652 506.194 138.652 Q508.654 138.652 510.998 139.172 Q513.341 139.664 515.54 140.677 Z" fill="#000000" fill-rule="evenodd" fill-opacity="1" /><path clip-path="url(#clip060)" d="M551.738 152.28 L551.738 171.84 L546.414 171.84 L546.414 152.454 Q546.414 147.853 544.62 145.567 Q542.826 143.281 539.238 143.281 Q534.927 143.281 532.438 146.03 Q529.95 148.779 529.95 153.524 L529.95 171.84 L524.597 171.84 L524.597 126.817 L529.95 126.817 L529.95 144.467 Q531.86 141.545 534.435 140.098 Q537.039 138.652 540.424 138.652 Q546.009 138.652 548.874 142.124 Q551.738 145.567 551.738 152.28 Z" fill="#000000" fill-rule="evenodd" fill-opacity="1" /><path clip-path="url(#clip060)" d="M561.807 159.051 L561.807 139.433 L567.132 139.433 L567.132 158.848 Q567.132 163.449 568.926 165.764 Q570.719 168.05 574.307 168.05 Q578.619 168.05 581.107 165.301 Q583.624 162.552 583.624 157.807 L583.624 139.433 L588.949 139.433 L588.949 171.84 L583.624 171.84 L583.624 166.863 Q581.686 169.815 579.111 171.261 Q576.564 172.679 573.179 172.679 Q567.594 172.679 564.701 169.207 Q561.807 165.735 561.807 159.051 M575.204 138.652 L575.204 138.652 Z" fill="#000000" fill-rule="evenodd" fill-opacity="1" /><path clip-path="url(#clip060)" d="M626.853 152.28 L626.853 171.84 L621.529 171.84 L621.529 152.454 Q621.529 147.853 619.735 145.567 Q617.941 143.281 614.353 143.281 Q610.042 143.281 607.554 146.03 Q605.065 148.779 605.065 153.524 L605.065 171.84 L599.712 171.84 L599.712 139.433 L605.065 139.433 L605.065 144.467 Q606.975 141.545 609.55 140.098 Q612.154 138.652 615.54 138.652 Q621.124 138.652 623.989 142.124 Q626.853 145.567 626.853 152.28 Z" fill="#000000" fill-rule="evenodd" fill-opacity="1" /><path clip-path="url(#clip060)" d="M637.27 126.817 L642.623 126.817 L642.623 153.408 L658.508 139.433 L665.308 139.433 L648.121 154.595 L666.031 171.84 L659.087 171.84 L642.623 156.013 L642.623 171.84 L637.27 171.84 L637.27 126.817 Z" fill="#000000" fill-rule="evenodd" fill-opacity="1" /><path clip-path="url(#clip060)" d="M692.449 140.388 L692.449 145.422 Q690.192 144.265 687.762 143.686 Q685.331 143.108 682.727 143.108 Q678.763 143.108 676.766 144.323 Q674.799 145.538 674.799 147.969 Q674.799 149.82 676.217 150.891 Q677.634 151.933 681.917 152.888 L683.74 153.293 Q689.411 154.508 691.784 156.736 Q694.185 158.935 694.185 162.899 Q694.185 167.413 690.597 170.046 Q687.038 172.679 680.788 172.679 Q678.184 172.679 675.349 172.158 Q672.542 171.666 669.417 170.654 L669.417 165.156 Q672.368 166.69 675.233 167.471 Q678.097 168.223 680.904 168.223 Q684.666 168.223 686.691 166.95 Q688.717 165.648 688.717 163.304 Q688.717 161.134 687.241 159.977 Q685.794 158.819 680.846 157.749 L678.994 157.315 Q674.046 156.273 671.847 154.132 Q669.648 151.962 669.648 148.2 Q669.648 143.628 672.889 141.14 Q676.13 138.652 682.09 138.652 Q685.042 138.652 687.646 139.086 Q690.25 139.52 692.449 140.388 Z" fill="#000000" fill-rule="evenodd" fill-opacity="1" /><path clip-path="url(#clip060)" d="M702.663 139.433 L707.987 139.433 L707.987 171.84 L702.663 171.84 L702.663 139.433 M702.663 126.817 L707.987 126.817 L707.987 133.559 L702.663 133.559 L702.663 126.817 Z" fill="#000000" fill-rule="evenodd" fill-opacity="1" /><path clip-path="url(#clip060)" d="M716.812 139.433 L742.102 139.433 L742.102 144.294 L722.079 167.587 L742.102 167.587 L742.102 171.84 L716.089 171.84 L716.089 166.979 L736.112 143.686 L716.812 143.686 L716.812 139.433 Z" fill="#000000" fill-rule="evenodd" fill-opacity="1" /><path clip-path="url(#clip060)" d="M777.952 154.305 L777.952 156.91 L753.473 156.91 Q753.82 162.407 756.772 165.301 Q759.752 168.165 765.047 168.165 Q768.114 168.165 770.979 167.413 Q773.872 166.661 776.708 165.156 L776.708 170.191 Q773.843 171.406 770.834 172.043 Q767.825 172.679 764.729 172.679 Q756.974 172.679 752.431 168.165 Q747.918 163.651 747.918 155.955 Q747.918 147.998 752.2 143.339 Q756.511 138.652 763.803 138.652 Q770.342 138.652 774.133 142.876 Q777.952 147.072 777.952 154.305 M772.628 152.743 Q772.57 148.374 770.169 145.77 Q767.796 143.165 763.861 143.165 Q759.405 143.165 756.714 145.683 Q754.052 148.2 753.647 152.772 L772.628 152.743 Z" fill="#000000" fill-rule="evenodd" fill-opacity="1" /><path clip-path="url(#clip060)" d="M788.05 164.491 L794.156 164.491 L794.156 171.84 L788.05 171.84 L788.05 164.491 M788.05 141.198 L794.156 141.198 L794.156 148.547 L788.05 148.547 L788.05 141.198 Z" fill="#000000" fill-rule="evenodd" fill-opacity="1" /><path clip-path="url(#clip060)" d="M827.257 166.921 L836.806 166.921 L836.806 133.964 L826.418 136.047 L826.418 130.723 L836.748 128.64 L842.593 128.64 L842.593 166.921 L852.142 166.921 L852.142 171.84 L827.257 171.84 L827.257 166.921 Z" fill="#000000" fill-rule="evenodd" fill-opacity="1" /><path clip-path="url(#clip060)" d="M890.915 154.305 L890.915 156.91 L866.435 156.91 Q866.783 162.407 869.734 165.301 Q872.714 168.165 878.009 168.165 Q881.077 168.165 883.941 167.413 Q886.835 166.661 889.67 165.156 L889.67 170.191 Q886.806 171.406 883.796 172.043 Q880.787 172.679 877.691 172.679 Q869.937 172.679 865.394 168.165 Q860.88 163.651 860.88 155.955 Q860.88 147.998 865.162 143.339 Q869.474 138.652 876.765 138.652 Q883.305 138.652 887.095 142.876 Q890.915 147.072 890.915 154.305 M885.59 152.743 Q885.533 148.374 883.131 145.77 Q880.758 143.165 876.823 143.165 Q872.367 143.165 869.676 145.683 Q867.014 148.2 866.609 152.772 L885.59 152.743 Z" fill="#000000" fill-rule="evenodd" fill-opacity="1" /><path clip-path="url(#clip060)" d="M913.629 147.911 Q909.693 147.911 907.379 150.602 Q905.093 153.293 905.093 157.98 Q905.093 162.639 907.379 165.359 Q909.693 168.05 913.629 168.05 Q917.564 168.05 919.85 165.359 Q922.164 162.639 922.164 157.98 Q922.164 153.293 919.85 150.602 Q917.564 147.911 913.629 147.911 M925.231 129.595 L925.231 134.919 Q923.032 133.877 920.775 133.327 Q918.547 132.778 916.348 132.778 Q910.561 132.778 907.494 136.684 Q904.456 140.59 904.022 148.489 Q905.729 145.972 908.304 144.641 Q910.88 143.281 913.976 143.281 Q920.486 143.281 924.248 147.245 Q928.038 151.18 928.038 157.98 Q928.038 164.635 924.103 168.657 Q920.168 172.679 913.629 172.679 Q906.134 172.679 902.17 166.95 Q898.206 161.192 898.206 150.283 Q898.206 140.04 903.067 133.964 Q907.928 127.859 916.117 127.859 Q918.316 127.859 920.544 128.293 Q922.801 128.727 925.231 129.595 Z" fill="#000000" fill-rule="evenodd" fill-opacity="1" /><polyline clip-path="url(#clip062)" style="stroke:#009af9; stroke-linecap:butt; stroke-linejoin:round; stroke-width:4; stroke-opacity:1; fill:none" points="
  266.066,988.791 561.336,928.958 856.606,759.726 1062.99,621.927 1151.88,559.683 
  "/>
<polyline clip-path="url(#clip062)" style="stroke:#e26f46; stroke-linecap:butt; stroke-linejoin:round; stroke-width:4; stroke-opacity:1; fill:none" points="
  266.066,762.845 561.336,667.278 856.606,492.829 1062.99,342.789 1151.88,238.687 
  "/>
<polyline clip-path="url(#clip062)" style="stroke:#3da44d; stroke-linecap:butt; stroke-linejoin:round; stroke-width:4; stroke-opacity:1; fill:none" points="
  266.066,1015.19 561.336,821.31 856.606,625.5 1062.99,488.777 1151.88,416.036 
  "/>
<path clip-path="url(#clip060)" d="
M270.791 450.189 L693.034 450.189 L693.034 242.829 L270.791 242.829  Z
  " fill="#ffffff" fill-rule="evenodd" fill-opacity="1"/>
<polyline clip-path="url(#clip060)" style="stroke:#000000; stroke-linecap:butt; stroke-linejoin:round; stroke-width:4; stroke-opacity:1; fill:none" points="
  270.791,450.189 693.034,450.189 693.034,242.829 270.791,242.829 270.791,450.189 
  "/>
<polyline clip-path="url(#clip060)" style="stroke:#009af9; stroke-linecap:butt; stroke-linejoin:round; stroke-width:4; stroke-opacity:1; fill:none" points="
  281.224,294.669 343.821,294.669 
  "/>
<path clip-path="url(#clip060)" d="M358.93 281.231 L358.93 308.106 L364.578 308.106 Q371.73 308.106 375.041 304.865 Q378.374 301.625 378.374 294.634 Q378.374 287.69 375.041 284.472 Q371.73 281.231 364.578 281.231 L358.93 281.231 M354.254 277.389 L363.86 277.389 Q373.906 277.389 378.605 281.578 Q383.304 285.745 383.304 294.634 Q383.304 303.569 378.582 307.759 Q373.86 311.949 363.86 311.949 L354.254 311.949 L354.254 277.389 Z" fill="#000000" fill-rule="evenodd" fill-opacity="1" /><path clip-path="url(#clip060)" d="M385.966 277.389 L415.202 277.389 L415.202 281.324 L402.934 281.324 L402.934 311.949 L398.235 311.949 L398.235 281.324 L385.966 281.324 L385.966 277.389 Z" fill="#000000" fill-rule="evenodd" fill-opacity="1" /><path clip-path="url(#clip060)" d="M423.466 298.916 Q418.304 298.916 416.314 300.097 Q414.323 301.277 414.323 304.125 Q414.323 306.393 415.804 307.736 Q417.309 309.055 419.878 309.055 Q423.42 309.055 425.55 306.555 Q427.702 304.032 427.702 299.865 L427.702 298.916 L423.466 298.916 M431.962 297.157 L431.962 311.949 L427.702 311.949 L427.702 308.013 Q426.244 310.375 424.068 311.509 Q421.892 312.62 418.744 312.62 Q414.763 312.62 412.402 310.398 Q410.064 308.152 410.064 304.402 Q410.064 300.027 412.98 297.805 Q415.92 295.583 421.73 295.583 L427.702 295.583 L427.702 295.166 Q427.702 292.227 425.758 290.629 Q423.837 289.009 420.341 289.009 Q418.119 289.009 416.013 289.541 Q413.906 290.074 411.962 291.139 L411.962 287.203 Q414.3 286.301 416.499 285.861 Q418.698 285.398 420.781 285.398 Q426.406 285.398 429.184 288.315 Q431.962 291.231 431.962 297.157 Z" fill="#000000" fill-rule="evenodd" fill-opacity="1" /><path clip-path="url(#clip060)" d="M459.346 299.009 Q459.346 294.31 457.401 291.648 Q455.48 288.963 452.1 288.963 Q448.721 288.963 446.776 291.648 Q444.855 294.31 444.855 299.009 Q444.855 303.708 446.776 306.393 Q448.721 309.055 452.1 309.055 Q455.48 309.055 457.401 306.393 Q459.346 303.708 459.346 299.009 M444.855 289.958 Q446.198 287.643 448.235 286.532 Q450.295 285.398 453.142 285.398 Q457.864 285.398 460.804 289.148 Q463.767 292.898 463.767 299.009 Q463.767 305.12 460.804 308.87 Q457.864 312.62 453.142 312.62 Q450.295 312.62 448.235 311.509 Q446.198 310.375 444.855 308.06 L444.855 311.949 L440.573 311.949 L440.573 275.93 L444.855 275.93 L444.855 289.958 Z" fill="#000000" fill-rule="evenodd" fill-opacity="1" /><path clip-path="url(#clip060)" d="M470.827 275.93 L475.086 275.93 L475.086 311.949 L470.827 311.949 L470.827 275.93 Z" fill="#000000" fill-rule="evenodd" fill-opacity="1" /><path clip-path="url(#clip060)" d="M506.174 297.921 L506.174 300.004 L486.591 300.004 Q486.869 304.402 489.23 306.717 Q491.614 309.009 495.85 309.009 Q498.304 309.009 500.595 308.407 Q502.91 307.805 505.179 306.601 L505.179 310.629 Q502.887 311.601 500.48 312.111 Q498.072 312.62 495.596 312.62 Q489.392 312.62 485.758 309.009 Q482.147 305.398 482.147 299.24 Q482.147 292.875 485.572 289.148 Q489.021 285.398 494.855 285.398 Q500.086 285.398 503.119 288.777 Q506.174 292.134 506.174 297.921 M501.915 296.671 Q501.869 293.176 499.947 291.092 Q498.049 289.009 494.901 289.009 Q491.336 289.009 489.184 291.023 Q487.054 293.037 486.73 296.694 L501.915 296.671 Z" fill="#000000" fill-rule="evenodd" fill-opacity="1" /><polyline clip-path="url(#clip060)" style="stroke:#e26f46; stroke-linecap:butt; stroke-linejoin:round; stroke-width:4; stroke-opacity:1; fill:none" points="
  281.224,346.509 343.821,346.509 
  "/>
<path clip-path="url(#clip060)" d="M358.93 333.071 L358.93 359.946 L364.578 359.946 Q371.73 359.946 375.041 356.705 Q378.374 353.465 378.374 346.474 Q378.374 339.53 375.041 336.312 Q371.73 333.071 364.578 333.071 L358.93 333.071 M354.254 329.229 L363.86 329.229 Q373.906 329.229 378.605 333.418 Q383.304 337.585 383.304 346.474 Q383.304 355.409 378.582 359.599 Q373.86 363.789 363.86 363.789 L354.254 363.789 L354.254 329.229 Z" fill="#000000" fill-rule="evenodd" fill-opacity="1" /><path clip-path="url(#clip060)" d="M402.355 350.756 Q397.193 350.756 395.203 351.937 Q393.212 353.117 393.212 355.965 Q393.212 358.233 394.693 359.576 Q396.198 360.895 398.767 360.895 Q402.309 360.895 404.439 358.395 Q406.591 355.872 406.591 351.705 L406.591 350.756 L402.355 350.756 M410.851 348.997 L410.851 363.789 L406.591 363.789 L406.591 359.853 Q405.133 362.215 402.957 363.349 Q400.781 364.46 397.633 364.46 Q393.652 364.46 391.291 362.238 Q388.953 359.992 388.953 356.242 Q388.953 351.867 391.869 349.645 Q394.809 347.423 400.619 347.423 L406.591 347.423 L406.591 347.006 Q406.591 344.067 404.647 342.469 Q402.726 340.849 399.23 340.849 Q397.008 340.849 394.902 341.381 Q392.795 341.914 390.851 342.979 L390.851 339.043 Q393.189 338.141 395.388 337.701 Q397.587 337.238 399.67 337.238 Q405.295 337.238 408.073 340.155 Q410.851 343.071 410.851 348.997 Z" fill="#000000" fill-rule="evenodd" fill-opacity="1" /><path clip-path="url(#clip060)" d="M436.151 338.627 L436.151 342.654 Q434.346 341.729 432.401 341.266 Q430.457 340.803 428.374 340.803 Q425.202 340.803 423.605 341.775 Q422.031 342.747 422.031 344.692 Q422.031 346.173 423.165 347.029 Q424.3 347.863 427.726 348.627 L429.184 348.951 Q433.721 349.923 435.619 351.705 Q437.54 353.465 437.54 356.636 Q437.54 360.247 434.67 362.353 Q431.823 364.46 426.823 364.46 Q424.739 364.46 422.471 364.043 Q420.226 363.65 417.726 362.84 L417.726 358.441 Q420.087 359.668 422.378 360.293 Q424.67 360.895 426.915 360.895 Q429.925 360.895 431.545 359.877 Q433.165 358.835 433.165 356.96 Q433.165 355.224 431.985 354.298 Q430.827 353.372 426.869 352.516 L425.388 352.168 Q421.429 351.335 419.67 349.622 Q417.911 347.886 417.911 344.877 Q417.911 341.219 420.503 339.229 Q423.096 337.238 427.864 337.238 Q430.225 337.238 432.309 337.585 Q434.392 337.932 436.151 338.627 Z" fill="#000000" fill-rule="evenodd" fill-opacity="1" /><path clip-path="url(#clip060)" d="M444.161 327.77 L448.443 327.77 L448.443 349.043 L461.151 337.863 L466.591 337.863 L452.841 349.992 L467.17 363.789 L461.614 363.789 L448.443 351.127 L448.443 363.789 L444.161 363.789 L444.161 327.77 Z" fill="#000000" fill-rule="evenodd" fill-opacity="1" /><polyline clip-path="url(#clip060)" style="stroke:#3da44d; stroke-linecap:butt; stroke-linejoin:round; stroke-width:4; stroke-opacity:1; fill:none" points="
  281.224,398.349 343.821,398.349 
  "/>
<path clip-path="url(#clip060)" d="M358.93 384.911 L358.93 411.786 L364.578 411.786 Q371.73 411.786 375.041 408.545 Q378.374 405.305 378.374 398.314 Q378.374 391.37 375.041 388.152 Q371.73 384.911 364.578 384.911 L358.93 384.911 M354.254 381.069 L363.86 381.069 Q373.906 381.069 378.605 385.258 Q383.304 389.425 383.304 398.314 Q383.304 407.249 378.582 411.439 Q373.86 415.629 363.86 415.629 L354.254 415.629 L354.254 381.069 Z" fill="#000000" fill-rule="evenodd" fill-opacity="1" /><path clip-path="url(#clip060)" d="M402.355 402.596 Q397.193 402.596 395.203 403.777 Q393.212 404.957 393.212 407.805 Q393.212 410.073 394.693 411.416 Q396.198 412.735 398.767 412.735 Q402.309 412.735 404.439 410.235 Q406.591 407.712 406.591 403.545 L406.591 402.596 L402.355 402.596 M410.851 400.837 L410.851 415.629 L406.591 415.629 L406.591 411.693 Q405.133 414.055 402.957 415.189 Q400.781 416.3 397.633 416.3 Q393.652 416.3 391.291 414.078 Q388.953 411.832 388.953 408.082 Q388.953 403.707 391.869 401.485 Q394.809 399.263 400.619 399.263 L406.591 399.263 L406.591 398.846 Q406.591 395.907 404.647 394.309 Q402.726 392.689 399.23 392.689 Q397.008 392.689 394.902 393.221 Q392.795 393.754 390.851 394.819 L390.851 390.883 Q393.189 389.981 395.388 389.541 Q397.587 389.078 399.67 389.078 Q405.295 389.078 408.073 391.995 Q410.851 394.911 410.851 400.837 Z" fill="#000000" fill-rule="evenodd" fill-opacity="1" /><path clip-path="url(#clip060)" d="M423.837 382.342 L423.837 389.703 L432.61 389.703 L432.61 393.013 L423.837 393.013 L423.837 407.087 Q423.837 410.258 424.693 411.161 Q425.573 412.064 428.235 412.064 L432.61 412.064 L432.61 415.629 L428.235 415.629 Q423.304 415.629 421.429 413.8 Q419.554 411.948 419.554 407.087 L419.554 393.013 L416.429 393.013 L416.429 389.703 L419.554 389.703 L419.554 382.342 L423.837 382.342 Z" fill="#000000" fill-rule="evenodd" fill-opacity="1" /><path clip-path="url(#clip060)" d="M449.994 402.596 Q444.832 402.596 442.841 403.777 Q440.85 404.957 440.85 407.805 Q440.85 410.073 442.332 411.416 Q443.837 412.735 446.406 412.735 Q449.948 412.735 452.077 410.235 Q454.23 407.712 454.23 403.545 L454.23 402.596 L449.994 402.596 M458.489 400.837 L458.489 415.629 L454.23 415.629 L454.23 411.693 Q452.772 414.055 450.596 415.189 Q448.42 416.3 445.272 416.3 Q441.29 416.3 438.929 414.078 Q436.591 411.832 436.591 408.082 Q436.591 403.707 439.508 401.485 Q442.448 399.263 448.258 399.263 L454.23 399.263 L454.23 398.846 Q454.23 395.907 452.286 394.309 Q450.364 392.689 446.869 392.689 Q444.647 392.689 442.54 393.221 Q440.434 393.754 438.489 394.819 L438.489 390.883 Q440.827 389.981 443.026 389.541 Q445.225 389.078 447.309 389.078 Q452.934 389.078 455.711 391.995 Q458.489 394.911 458.489 400.837 Z" fill="#000000" fill-rule="evenodd" fill-opacity="1" /><path clip-path="url(#clip060)" d="M467.448 381.069 L487.309 381.069 L487.309 385.004 L472.123 385.004 L472.123 395.189 L485.827 395.189 L485.827 399.124 L472.123 399.124 L472.123 415.629 L467.448 415.629 L467.448 381.069 Z" fill="#000000" fill-rule="evenodd" fill-opacity="1" /><path clip-path="url(#clip060)" d="M506.105 393.684 Q505.387 393.268 504.531 393.082 Q503.697 392.874 502.679 392.874 Q499.068 392.874 497.123 395.235 Q495.202 397.573 495.202 401.971 L495.202 415.629 L490.92 415.629 L490.92 389.703 L495.202 389.703 L495.202 393.731 Q496.545 391.37 498.697 390.235 Q500.85 389.078 503.929 389.078 Q504.369 389.078 504.901 389.147 Q505.433 389.194 506.082 389.309 L506.105 393.684 Z" fill="#000000" fill-rule="evenodd" fill-opacity="1" /><path clip-path="url(#clip060)" d="M522.355 402.596 Q517.193 402.596 515.202 403.777 Q513.211 404.957 513.211 407.805 Q513.211 410.073 514.693 411.416 Q516.197 412.735 518.767 412.735 Q522.308 412.735 524.438 410.235 Q526.591 407.712 526.591 403.545 L526.591 402.596 L522.355 402.596 M530.85 400.837 L530.85 415.629 L526.591 415.629 L526.591 411.693 Q525.132 414.055 522.956 415.189 Q520.781 416.3 517.632 416.3 Q513.651 416.3 511.29 414.078 Q508.952 411.832 508.952 408.082 Q508.952 403.707 511.869 401.485 Q514.808 399.263 520.619 399.263 L526.591 399.263 L526.591 398.846 Q526.591 395.907 524.646 394.309 Q522.725 392.689 519.23 392.689 Q517.007 392.689 514.901 393.221 Q512.794 393.754 510.85 394.819 L510.85 390.883 Q513.188 389.981 515.387 389.541 Q517.586 389.078 519.669 389.078 Q525.294 389.078 528.072 391.995 Q530.85 394.911 530.85 400.837 Z" fill="#000000" fill-rule="evenodd" fill-opacity="1" /><path clip-path="url(#clip060)" d="M559.808 394.68 Q561.405 391.809 563.628 390.444 Q565.85 389.078 568.859 389.078 Q572.91 389.078 575.109 391.925 Q577.308 394.749 577.308 399.981 L577.308 415.629 L573.026 415.629 L573.026 400.119 Q573.026 396.393 571.706 394.587 Q570.387 392.782 567.678 392.782 Q564.368 392.782 562.447 394.981 Q560.526 397.18 560.526 400.976 L560.526 415.629 L556.243 415.629 L556.243 400.119 Q556.243 396.369 554.924 394.587 Q553.604 392.782 550.85 392.782 Q547.586 392.782 545.665 395.004 Q543.743 397.203 543.743 400.976 L543.743 415.629 L539.461 415.629 L539.461 389.703 L543.743 389.703 L543.743 393.731 Q545.202 391.346 547.239 390.212 Q549.276 389.078 552.077 389.078 Q554.901 389.078 556.868 390.513 Q558.859 391.948 559.808 394.68 Z" fill="#000000" fill-rule="evenodd" fill-opacity="1" /><path clip-path="url(#clip060)" d="M607.979 401.601 L607.979 403.684 L588.396 403.684 Q588.674 408.082 591.035 410.397 Q593.419 412.689 597.655 412.689 Q600.109 412.689 602.4 412.087 Q604.715 411.485 606.984 410.281 L606.984 414.309 Q604.692 415.281 602.285 415.791 Q599.877 416.3 597.401 416.3 Q591.197 416.3 587.563 412.689 Q583.952 409.078 583.952 402.92 Q583.952 396.555 587.377 392.828 Q590.826 389.078 596.66 389.078 Q601.891 389.078 604.924 392.457 Q607.979 395.814 607.979 401.601 M603.72 400.351 Q603.674 396.856 601.752 394.772 Q599.854 392.689 596.706 392.689 Q593.141 392.689 590.989 394.703 Q588.859 396.717 588.535 400.374 L603.72 400.351 Z" fill="#000000" fill-rule="evenodd" fill-opacity="1" /><path clip-path="url(#clip060)" d="M631.498 390.467 L631.498 394.494 Q629.692 393.569 627.748 393.106 Q625.803 392.643 623.72 392.643 Q620.549 392.643 618.951 393.615 Q617.377 394.587 617.377 396.532 Q617.377 398.013 618.512 398.869 Q619.646 399.703 623.072 400.467 L624.53 400.791 Q629.067 401.763 630.965 403.545 Q632.886 405.305 632.886 408.476 Q632.886 412.087 630.016 414.193 Q627.169 416.3 622.169 416.3 Q620.086 416.3 617.817 415.883 Q615.572 415.49 613.072 414.68 L613.072 410.281 Q615.433 411.508 617.724 412.133 Q620.016 412.735 622.261 412.735 Q625.271 412.735 626.891 411.717 Q628.511 410.675 628.511 408.8 Q628.511 407.064 627.331 406.138 Q626.174 405.212 622.215 404.356 L620.734 404.008 Q616.775 403.175 615.016 401.462 Q613.257 399.726 613.257 396.717 Q613.257 393.059 615.849 391.069 Q618.442 389.078 623.211 389.078 Q625.572 389.078 627.655 389.425 Q629.738 389.772 631.498 390.467 Z" fill="#000000" fill-rule="evenodd" fill-opacity="1" /><path clip-path="url(#clip060)" d="M640.271 409.749 L645.155 409.749 L645.155 415.629 L640.271 415.629 L640.271 409.749 Z" fill="#000000" fill-rule="evenodd" fill-opacity="1" /><path clip-path="url(#clip060)" d="M654.738 389.703 L658.997 389.703 L658.997 416.092 Q658.997 421.045 657.099 423.267 Q655.224 425.49 651.034 425.49 L649.414 425.49 L649.414 421.879 L650.548 421.879 Q652.979 421.879 653.859 420.744 Q654.738 419.633 654.738 416.092 L654.738 389.703 M654.738 379.61 L658.997 379.61 L658.997 385.004 L654.738 385.004 L654.738 379.61 Z" fill="#000000" fill-rule="evenodd" fill-opacity="1" /><path clip-path="url(#clip060)" d="M667.909 379.61 L672.169 379.61 L672.169 415.629 L667.909 415.629 L667.909 379.61 Z" fill="#000000" fill-rule="evenodd" fill-opacity="1" /><path clip-path="url(#clip060)" d="
M1413.8 1038.49 L2352.76 1038.49 L2352.76 215.392 L1413.8 215.392  Z
  " fill="#ffffff" fill-rule="evenodd" fill-opacity="1"/>
<defs>
  <clipPath id="clip063">
    <rect x="1413" y="215" width="940" height="824"/>
  </clipPath>
</defs>
<polyline clip-path="url(#clip063)" style="stroke:#000000; stroke-linecap:butt; stroke-linejoin:round; stroke-width:2; stroke-opacity:0.1; fill:none" points="
  1440.37,1038.49 1440.37,215.392 
  "/>
<polyline clip-path="url(#clip063)" style="stroke:#000000; stroke-linecap:butt; stroke-linejoin:round; stroke-width:2; stroke-opacity:0.1; fill:none" points="
  1735.64,1038.49 1735.64,215.392 
  "/>
<polyline clip-path="url(#clip063)" style="stroke:#000000; stroke-linecap:butt; stroke-linejoin:round; stroke-width:2; stroke-opacity:0.1; fill:none" points="
  2030.91,1038.49 2030.91,215.392 
  "/>
<polyline clip-path="url(#clip063)" style="stroke:#000000; stroke-linecap:butt; stroke-linejoin:round; stroke-width:2; stroke-opacity:0.1; fill:none" points="
  2326.18,1038.49 2326.18,215.392 
  "/>
<polyline clip-path="url(#clip060)" style="stroke:#000000; stroke-linecap:butt; stroke-linejoin:round; stroke-width:4; stroke-opacity:1; fill:none" points="
  1413.8,1038.49 2352.76,1038.49 
  "/>
<polyline clip-path="url(#clip060)" style="stroke:#000000; stroke-linecap:butt; stroke-linejoin:round; stroke-width:4; stroke-opacity:1; fill:none" points="
  1440.37,1038.49 1440.37,1019.59 
  "/>
<polyline clip-path="url(#clip060)" style="stroke:#000000; stroke-linecap:butt; stroke-linejoin:round; stroke-width:4; stroke-opacity:1; fill:none" points="
  1735.64,1038.49 1735.64,1019.59 
  "/>
<polyline clip-path="url(#clip060)" style="stroke:#000000; stroke-linecap:butt; stroke-linejoin:round; stroke-width:4; stroke-opacity:1; fill:none" points="
  2030.91,1038.49 2030.91,1019.59 
  "/>
<polyline clip-path="url(#clip060)" style="stroke:#000000; stroke-linecap:butt; stroke-linejoin:round; stroke-width:4; stroke-opacity:1; fill:none" points="
  2326.18,1038.49 2326.18,1019.59 
  "/>
<path clip-path="url(#clip060)" d="M1405.36 1112.61 L1413 1112.61 L1413 1086.25 L1404.69 1087.91 L1404.69 1083.65 L1412.96 1081.99 L1417.63 1081.99 L1417.63 1112.61 L1425.27 1112.61 L1425.27 1116.55 L1405.36 1116.55 L1405.36 1112.61 Z" fill="#000000" fill-rule="evenodd" fill-opacity="1" /><path clip-path="url(#clip060)" d="M1444.72 1085.07 Q1441.11 1085.07 1439.28 1088.63 Q1437.47 1092.17 1437.47 1099.3 Q1437.47 1106.41 1439.28 1109.97 Q1441.11 1113.52 1444.72 1113.52 Q1448.35 1113.52 1450.16 1109.97 Q1451.98 1106.41 1451.98 1099.3 Q1451.98 1092.17 1450.16 1088.63 Q1448.35 1085.07 1444.72 1085.07 M1444.72 1081.36 Q1450.53 1081.36 1453.58 1085.97 Q1456.66 1090.55 1456.66 1099.3 Q1456.66 1108.03 1453.58 1112.64 Q1450.53 1117.22 1444.72 1117.22 Q1438.91 1117.22 1435.83 1112.64 Q1432.77 1108.03 1432.77 1099.3 Q1432.77 1090.55 1435.83 1085.97 Q1438.91 1081.36 1444.72 1081.36 Z" fill="#000000" fill-rule="evenodd" fill-opacity="1" /><path clip-path="url(#clip060)" d="M1466.69 1073.58 Q1464.13 1073.58 1462.62 1075.33 Q1461.14 1077.08 1461.14 1080.13 Q1461.14 1083.16 1462.62 1084.92 Q1464.13 1086.67 1466.69 1086.67 Q1469.24 1086.67 1470.73 1084.92 Q1472.23 1083.16 1472.23 1080.13 Q1472.23 1077.08 1470.73 1075.33 Q1469.24 1073.58 1466.69 1073.58 M1474.23 1061.68 L1474.23 1065.14 Q1472.8 1064.46 1471.33 1064.1 Q1469.88 1063.75 1468.45 1063.75 Q1464.69 1063.75 1462.7 1066.29 Q1460.72 1068.82 1460.44 1073.96 Q1461.55 1072.32 1463.22 1071.46 Q1464.9 1070.57 1466.91 1070.57 Q1471.14 1070.57 1473.59 1073.15 Q1476.05 1075.71 1476.05 1080.13 Q1476.05 1084.45 1473.49 1087.07 Q1470.94 1089.68 1466.69 1089.68 Q1461.81 1089.68 1459.24 1085.96 Q1456.66 1082.22 1456.66 1075.13 Q1456.66 1068.47 1459.82 1064.52 Q1462.98 1060.55 1468.3 1060.55 Q1469.73 1060.55 1471.18 1060.83 Q1472.65 1061.11 1474.23 1061.68 Z" fill="#000000" fill-rule="evenodd" fill-opacity="1" /><path clip-path="url(#clip060)" d="M1701.3 1112.61 L1708.94 1112.61 L1708.94 1086.25 L1700.63 1087.91 L1700.63 1083.65 L1708.89 1081.99 L1713.57 1081.99 L1713.57 1112.61 L1721.21 1112.61 L1721.21 1116.55 L1701.3 1116.55 L1701.3 1112.61 Z" fill="#000000" fill-rule="evenodd" fill-opacity="1" /><path clip-path="url(#clip060)" d="M1740.65 1085.07 Q1737.04 1085.07 1735.21 1088.63 Q1733.41 1092.17 1733.41 1099.3 Q1733.41 1106.41 1735.21 1109.97 Q1737.04 1113.52 1740.65 1113.52 Q1744.29 1113.52 1746.09 1109.97 Q1747.92 1106.41 1747.92 1099.3 Q1747.92 1092.17 1746.09 1088.63 Q1744.29 1085.07 1740.65 1085.07 M1740.65 1081.36 Q1746.46 1081.36 1749.52 1085.97 Q1752.6 1090.55 1752.6 1099.3 Q1752.6 1108.03 1749.52 1112.64 Q1746.46 1117.22 1740.65 1117.22 Q1734.84 1117.22 1731.76 1112.64 Q1728.71 1108.03 1728.71 1099.3 Q1728.71 1090.55 1731.76 1085.97 Q1734.84 1081.36 1740.65 1081.36 Z" fill="#000000" fill-rule="evenodd" fill-opacity="1" /><path clip-path="url(#clip060)" d="M1752.6 1061.06 L1770.65 1061.06 L1770.65 1062.67 L1760.46 1089.14 L1756.49 1089.14 L1766.08 1064.25 L1752.6 1064.25 L1752.6 1061.06 Z" fill="#000000" fill-rule="evenodd" fill-opacity="1" /><path clip-path="url(#clip060)" d="M1995.97 1112.61 L2003.61 1112.61 L2003.61 1086.25 L1995.3 1087.91 L1995.3 1083.65 L2003.56 1081.99 L2008.24 1081.99 L2008.24 1112.61 L2015.88 1112.61 L2015.88 1116.55 L1995.97 1116.55 L1995.97 1112.61 Z" fill="#000000" fill-rule="evenodd" fill-opacity="1" /><path clip-path="url(#clip060)" d="M2035.32 1085.07 Q2031.71 1085.07 2029.88 1088.63 Q2028.08 1092.17 2028.08 1099.3 Q2028.08 1106.41 2029.88 1109.97 Q2031.71 1113.52 2035.32 1113.52 Q2038.96 1113.52 2040.76 1109.97 Q2042.59 1106.41 2042.59 1099.3 Q2042.59 1092.17 2040.76 1088.63 Q2038.96 1085.07 2035.32 1085.07 M2035.32 1081.36 Q2041.13 1081.36 2044.19 1085.97 Q2047.27 1090.55 2047.27 1099.3 Q2047.27 1108.03 2044.19 1112.64 Q2041.13 1117.22 2035.32 1117.22 Q2029.51 1117.22 2026.43 1112.64 Q2023.38 1108.03 2023.38 1099.3 Q2023.38 1090.55 2026.43 1085.97 Q2029.51 1081.36 2035.32 1081.36 Z" fill="#000000" fill-rule="evenodd" fill-opacity="1" /><path clip-path="url(#clip060)" d="M2056.9 1075.8 Q2054.19 1075.8 2052.63 1077.25 Q2051.08 1078.7 2051.08 1081.24 Q2051.08 1083.78 2052.63 1085.23 Q2054.19 1086.67 2056.9 1086.67 Q2059.6 1086.67 2061.16 1085.23 Q2062.73 1083.76 2062.73 1081.24 Q2062.73 1078.7 2061.16 1077.25 Q2059.62 1075.8 2056.9 1075.8 M2053.1 1074.18 Q2050.65 1073.58 2049.28 1071.91 Q2047.92 1070.24 2047.92 1067.83 Q2047.92 1064.46 2050.31 1062.51 Q2052.72 1060.55 2056.9 1060.55 Q2061.09 1060.55 2063.48 1062.51 Q2065.87 1064.46 2065.87 1067.83 Q2065.87 1070.24 2064.49 1071.91 Q2063.14 1073.58 2060.71 1074.18 Q2063.46 1074.82 2064.98 1076.69 Q2066.53 1078.55 2066.53 1081.24 Q2066.53 1085.32 2064.02 1087.5 Q2061.54 1089.68 2056.9 1089.68 Q2052.25 1089.68 2049.75 1087.5 Q2047.27 1085.32 2047.27 1081.24 Q2047.27 1078.55 2048.81 1076.69 Q2050.35 1074.82 2053.1 1074.18 M2051.7 1068.19 Q2051.7 1070.37 2053.06 1071.59 Q2054.43 1072.81 2056.9 1072.81 Q2059.34 1072.81 2060.71 1071.59 Q2062.11 1070.37 2062.11 1068.19 Q2062.11 1066 2060.71 1064.78 Q2059.34 1063.56 2056.9 1063.56 Q2054.43 1063.56 2053.06 1064.78 Q2051.7 1066 2051.7 1068.19 Z" fill="#000000" fill-rule="evenodd" fill-opacity="1" /><path clip-path="url(#clip060)" d="M2291.18 1112.61 L2298.82 1112.61 L2298.82 1086.25 L2290.51 1087.91 L2290.51 1083.65 L2298.78 1081.99 L2303.45 1081.99 L2303.45 1112.61 L2311.09 1112.61 L2311.09 1116.55 L2291.18 1116.55 L2291.18 1112.61 Z" fill="#000000" fill-rule="evenodd" fill-opacity="1" /><path clip-path="url(#clip060)" d="M2330.53 1085.07 Q2326.92 1085.07 2325.1 1088.63 Q2323.29 1092.17 2323.29 1099.3 Q2323.29 1106.41 2325.1 1109.97 Q2326.92 1113.52 2330.53 1113.52 Q2334.17 1113.52 2335.97 1109.97 Q2337.8 1106.41 2337.8 1099.3 Q2337.8 1092.17 2335.97 1088.63 Q2334.17 1085.07 2330.53 1085.07 M2330.53 1081.36 Q2336.35 1081.36 2339.4 1085.97 Q2342.48 1090.55 2342.48 1099.3 Q2342.48 1108.03 2339.4 1112.64 Q2336.35 1117.22 2330.53 1117.22 Q2324.72 1117.22 2321.65 1112.64 Q2318.59 1108.03 2318.59 1099.3 Q2318.59 1090.55 2321.65 1085.97 Q2324.72 1081.36 2330.53 1081.36 Z" fill="#000000" fill-rule="evenodd" fill-opacity="1" /><path clip-path="url(#clip060)" d="M2344.28 1088.55 L2344.28 1085.09 Q2345.71 1085.77 2347.18 1086.13 Q2348.65 1086.49 2350.06 1086.49 Q2353.82 1086.49 2355.8 1083.96 Q2357.79 1081.43 2358.07 1076.27 Q2356.98 1077.89 2355.31 1078.76 Q2353.63 1079.62 2351.6 1079.62 Q2347.39 1079.62 2344.92 1077.08 Q2342.48 1074.52 2342.48 1070.1 Q2342.48 1065.78 2345.04 1063.16 Q2347.59 1060.55 2351.85 1060.55 Q2356.72 1060.55 2359.27 1064.29 Q2361.85 1068.02 2361.85 1075.13 Q2361.85 1081.76 2358.69 1085.73 Q2355.55 1089.68 2350.23 1089.68 Q2348.8 1089.68 2347.33 1089.4 Q2345.86 1089.12 2344.28 1088.55 M2351.85 1076.65 Q2354.4 1076.65 2355.89 1074.9 Q2357.39 1073.15 2357.39 1070.1 Q2357.39 1067.08 2355.89 1065.33 Q2354.4 1063.56 2351.85 1063.56 Q2349.29 1063.56 2347.78 1065.33 Q2346.3 1067.08 2346.3 1070.1 Q2346.3 1073.15 2347.78 1074.9 Q2349.29 1076.65 2351.85 1076.65 Z" fill="#000000" fill-rule="evenodd" fill-opacity="1" /><path clip-path="url(#clip060)" d="M1898.2 1180.26 L1898.2 1201.78 L1892.35 1201.78 L1892.35 1180.45 Q1892.35 1175.39 1890.37 1172.88 Q1888.4 1170.36 1884.45 1170.36 Q1879.71 1170.36 1876.97 1173.39 Q1874.24 1176.41 1874.24 1181.63 L1874.24 1201.78 L1868.35 1201.78 L1868.35 1166.13 L1874.24 1166.13 L1874.24 1171.67 Q1876.34 1168.45 1879.17 1166.86 Q1882.04 1165.27 1885.76 1165.27 Q1891.9 1165.27 1895.05 1169.09 Q1898.2 1172.88 1898.2 1180.26 Z" fill="#000000" fill-rule="evenodd" fill-opacity="1" /><polyline clip-path="url(#clip063)" style="stroke:#000000; stroke-linecap:butt; stroke-linejoin:round; stroke-width:2; stroke-opacity:0.1; fill:none" points="
  1413.8,999.769 2352.76,999.769 
  "/>
<polyline clip-path="url(#clip063)" style="stroke:#000000; stroke-linecap:butt; stroke-linejoin:round; stroke-width:2; stroke-opacity:0.1; fill:none" points="
  1413.8,805.048 2352.76,805.048 
  "/>
<polyline clip-path="url(#clip063)" style="stroke:#000000; stroke-linecap:butt; stroke-linejoin:round; stroke-width:2; stroke-opacity:0.1; fill:none" points="
  1413.8,610.326 2352.76,610.326 
  "/>
<polyline clip-path="url(#clip063)" style="stroke:#000000; stroke-linecap:butt; stroke-linejoin:round; stroke-width:2; stroke-opacity:0.1; fill:none" points="
  1413.8,415.605 2352.76,415.605 
  "/>
<polyline clip-path="url(#clip063)" style="stroke:#000000; stroke-linecap:butt; stroke-linejoin:round; stroke-width:2; stroke-opacity:0.1; fill:none" points="
  1413.8,220.884 2352.76,220.884 
  "/>
<polyline clip-path="url(#clip060)" style="stroke:#000000; stroke-linecap:butt; stroke-linejoin:round; stroke-width:4; stroke-opacity:1; fill:none" points="
  1413.8,1038.49 1413.8,215.392 
  "/>
<polyline clip-path="url(#clip060)" style="stroke:#000000; stroke-linecap:butt; stroke-linejoin:round; stroke-width:4; stroke-opacity:1; fill:none" points="
  1413.8,999.769 1432.7,999.769 
  "/>
<polyline clip-path="url(#clip060)" style="stroke:#000000; stroke-linecap:butt; stroke-linejoin:round; stroke-width:4; stroke-opacity:1; fill:none" points="
  1413.8,805.048 1432.7,805.048 
  "/>
<polyline clip-path="url(#clip060)" style="stroke:#000000; stroke-linecap:butt; stroke-linejoin:round; stroke-width:4; stroke-opacity:1; fill:none" points="
  1413.8,610.326 1432.7,610.326 
  "/>
<polyline clip-path="url(#clip060)" style="stroke:#000000; stroke-linecap:butt; stroke-linejoin:round; stroke-width:4; stroke-opacity:1; fill:none" points="
  1413.8,415.605 1432.7,415.605 
  "/>
<polyline clip-path="url(#clip060)" style="stroke:#000000; stroke-linecap:butt; stroke-linejoin:round; stroke-width:4; stroke-opacity:1; fill:none" points="
  1413.8,220.884 1432.7,220.884 
  "/>
<path clip-path="url(#clip060)" d="M1277.66 1019.56 L1285.3 1019.56 L1285.3 993.195 L1276.99 994.862 L1276.99 990.603 L1285.25 988.936 L1289.93 988.936 L1289.93 1019.56 L1297.57 1019.56 L1297.57 1023.5 L1277.66 1023.5 L1277.66 1019.56 Z" fill="#000000" fill-rule="evenodd" fill-opacity="1" /><path clip-path="url(#clip060)" d="M1317.01 992.015 Q1313.4 992.015 1311.57 995.58 Q1309.76 999.121 1309.76 1006.25 Q1309.76 1013.36 1311.57 1016.92 Q1313.4 1020.46 1317.01 1020.46 Q1320.64 1020.46 1322.45 1016.92 Q1324.28 1013.36 1324.28 1006.25 Q1324.28 999.121 1322.45 995.58 Q1320.64 992.015 1317.01 992.015 M1317.01 988.311 Q1322.82 988.311 1325.88 992.918 Q1328.95 997.501 1328.95 1006.25 Q1328.95 1014.98 1325.88 1019.58 Q1322.82 1024.17 1317.01 1024.17 Q1311.2 1024.17 1308.12 1019.58 Q1305.07 1014.98 1305.07 1006.25 Q1305.07 997.501 1308.12 992.918 Q1311.2 988.311 1317.01 988.311 Z" fill="#000000" fill-rule="evenodd" fill-opacity="1" /><path clip-path="url(#clip060)" d="M1328.95 982.413 L1353.07 982.413 L1353.07 985.61 L1328.95 985.61 L1328.95 982.413 Z" fill="#000000" fill-rule="evenodd" fill-opacity="1" /><path clip-path="url(#clip060)" d="M1364.54 992.888 L1377.8 992.888 L1377.8 996.086 L1359.97 996.086 L1359.97 992.888 Q1362.13 990.65 1365.86 986.889 Q1369.6 983.108 1370.56 982.018 Q1372.38 979.968 1373.1 978.557 Q1373.83 977.128 1373.83 975.755 Q1373.83 973.516 1372.25 972.106 Q1370.69 970.695 1368.17 970.695 Q1366.38 970.695 1364.39 971.316 Q1362.41 971.937 1360.16 973.197 L1360.16 969.36 Q1362.45 968.438 1364.44 967.968 Q1366.44 967.498 1368.09 967.498 Q1372.46 967.498 1375.05 969.68 Q1377.65 971.861 1377.65 975.51 Q1377.65 977.24 1376.99 978.801 Q1376.35 980.344 1374.64 982.45 Q1374.17 982.996 1371.65 985.61 Q1369.13 988.205 1364.54 992.888 Z" fill="#000000" fill-rule="evenodd" fill-opacity="1" /><path clip-path="url(#clip060)" d="M1277.36 824.84 L1285 824.84 L1285 798.474 L1276.69 800.141 L1276.69 795.882 L1284.95 794.215 L1289.63 794.215 L1289.63 824.84 L1297.26 824.84 L1297.26 828.775 L1277.36 828.775 L1277.36 824.84 Z" fill="#000000" fill-rule="evenodd" fill-opacity="1" /><path clip-path="url(#clip060)" d="M1316.71 797.294 Q1313.1 797.294 1311.27 800.859 Q1309.46 804.4 1309.46 811.53 Q1309.46 818.636 1311.27 822.201 Q1313.1 825.743 1316.71 825.743 Q1320.34 825.743 1322.15 822.201 Q1323.98 818.636 1323.98 811.53 Q1323.98 804.4 1322.15 800.859 Q1320.34 797.294 1316.71 797.294 M1316.71 793.59 Q1322.52 793.59 1325.57 798.197 Q1328.65 802.78 1328.65 811.53 Q1328.65 820.257 1325.57 824.863 Q1322.52 829.446 1316.71 829.446 Q1310.9 829.446 1307.82 824.863 Q1304.76 820.257 1304.76 811.53 Q1304.76 802.78 1307.82 798.197 Q1310.9 793.59 1316.71 793.59 Z" fill="#000000" fill-rule="evenodd" fill-opacity="1" /><path clip-path="url(#clip060)" d="M1328.65 787.691 L1352.77 787.691 L1352.77 790.889 L1328.65 790.889 L1328.65 787.691 Z" fill="#000000" fill-rule="evenodd" fill-opacity="1" /><path clip-path="url(#clip060)" d="M1361.62 798.167 L1367.83 798.167 L1367.83 776.745 L1361.08 778.1 L1361.08 774.639 L1367.79 773.285 L1371.59 773.285 L1371.59 798.167 L1377.8 798.167 L1377.8 801.365 L1361.62 801.365 L1361.62 798.167 Z" fill="#000000" fill-rule="evenodd" fill-opacity="1" /><path clip-path="url(#clip060)" d="M1307.09 630.119 L1314.73 630.119 L1314.73 603.753 L1306.42 605.42 L1306.42 601.161 L1314.69 599.494 L1319.36 599.494 L1319.36 630.119 L1327 630.119 L1327 634.054 L1307.09 634.054 L1307.09 630.119 Z" fill="#000000" fill-rule="evenodd" fill-opacity="1" /><path clip-path="url(#clip060)" d="M1346.44 602.573 Q1342.83 602.573 1341 606.137 Q1339.2 609.679 1339.2 616.809 Q1339.2 623.915 1341 627.48 Q1342.83 631.022 1346.44 631.022 Q1350.08 631.022 1351.88 627.48 Q1353.71 623.915 1353.71 616.809 Q1353.71 609.679 1351.88 606.137 Q1350.08 602.573 1346.44 602.573 M1346.44 598.869 Q1352.25 598.869 1355.31 603.475 Q1358.39 608.059 1358.39 616.809 Q1358.39 625.536 1355.31 630.142 Q1352.25 634.725 1346.44 634.725 Q1340.63 634.725 1337.56 630.142 Q1334.5 625.536 1334.5 616.809 Q1334.5 608.059 1337.56 603.475 Q1340.63 598.869 1346.44 598.869 Z" fill="#000000" fill-rule="evenodd" fill-opacity="1" /><path clip-path="url(#clip060)" d="M1368.09 581.065 Q1365.16 581.065 1363.67 583.961 Q1362.21 586.839 1362.21 592.632 Q1362.21 598.406 1363.67 601.302 Q1365.16 604.18 1368.09 604.18 Q1371.05 604.18 1372.51 601.302 Q1374 598.406 1374 592.632 Q1374 586.839 1372.51 583.961 Q1371.05 581.065 1368.09 581.065 M1368.09 578.056 Q1372.81 578.056 1375.3 581.799 Q1377.8 585.522 1377.8 592.632 Q1377.8 599.722 1375.3 603.465 Q1372.81 607.189 1368.09 607.189 Q1363.37 607.189 1360.87 603.465 Q1358.39 599.722 1358.39 592.632 Q1358.39 585.522 1360.87 581.799 Q1363.37 578.056 1368.09 578.056 Z" fill="#000000" fill-rule="evenodd" fill-opacity="1" /><path clip-path="url(#clip060)" d="M1309.78 435.398 L1317.42 435.398 L1317.42 409.032 L1309.11 410.699 L1309.11 406.44 L1317.37 404.773 L1322.05 404.773 L1322.05 435.398 L1329.69 435.398 L1329.69 439.333 L1309.78 439.333 L1309.78 435.398 Z" fill="#000000" fill-rule="evenodd" fill-opacity="1" /><path clip-path="url(#clip060)" d="M1349.13 407.852 Q1345.52 407.852 1343.69 411.416 Q1341.89 414.958 1341.89 422.088 Q1341.89 429.194 1343.69 432.759 Q1345.52 436.301 1349.13 436.301 Q1352.77 436.301 1354.57 432.759 Q1356.4 429.194 1356.4 422.088 Q1356.4 414.958 1354.57 411.416 Q1352.77 407.852 1349.13 407.852 M1349.13 404.148 Q1354.94 404.148 1358 408.754 Q1361.08 413.338 1361.08 422.088 Q1361.08 430.814 1358 435.421 Q1354.94 440.004 1349.13 440.004 Q1343.32 440.004 1340.24 435.421 Q1337.19 430.814 1337.19 422.088 Q1337.19 413.338 1340.24 408.754 Q1343.32 404.148 1349.13 404.148 Z" fill="#000000" fill-rule="evenodd" fill-opacity="1" /><path clip-path="url(#clip060)" d="M1361.62 408.725 L1367.83 408.725 L1367.83 387.303 L1361.08 388.657 L1361.08 385.197 L1367.79 383.843 L1371.59 383.843 L1371.59 408.725 L1377.8 408.725 L1377.8 411.923 L1361.62 411.923 L1361.62 408.725 Z" fill="#000000" fill-rule="evenodd" fill-opacity="1" /><path clip-path="url(#clip060)" d="M1308.67 240.677 L1316.31 240.677 L1316.31 214.311 L1308 215.978 L1308 211.718 L1316.26 210.052 L1320.94 210.052 L1320.94 240.677 L1328.58 240.677 L1328.58 244.612 L1308.67 244.612 L1308.67 240.677 Z" fill="#000000" fill-rule="evenodd" fill-opacity="1" /><path clip-path="url(#clip060)" d="M1348.02 213.13 Q1344.41 213.13 1342.58 216.695 Q1340.78 220.237 1340.78 227.367 Q1340.78 234.473 1342.58 238.038 Q1344.41 241.579 1348.02 241.579 Q1351.66 241.579 1353.46 238.038 Q1355.29 234.473 1355.29 227.367 Q1355.29 220.237 1353.46 216.695 Q1351.66 213.13 1348.02 213.13 M1348.02 209.427 Q1353.83 209.427 1356.89 214.033 Q1359.97 218.617 1359.97 227.367 Q1359.97 236.093 1356.89 240.7 Q1353.83 245.283 1348.02 245.283 Q1342.21 245.283 1339.14 240.7 Q1336.08 236.093 1336.08 227.367 Q1336.08 218.617 1339.14 214.033 Q1342.21 209.427 1348.02 209.427 Z" fill="#000000" fill-rule="evenodd" fill-opacity="1" /><path clip-path="url(#clip060)" d="M1364.54 214.004 L1377.8 214.004 L1377.8 217.201 L1359.97 217.201 L1359.97 214.004 Q1362.13 211.766 1365.86 208.004 Q1369.6 204.224 1370.56 203.133 Q1372.38 201.083 1373.1 199.673 Q1373.83 198.243 1373.83 196.87 Q1373.83 194.632 1372.25 193.222 Q1370.69 191.811 1368.17 191.811 Q1366.38 191.811 1364.39 192.432 Q1362.41 193.052 1360.16 194.312 L1360.16 190.476 Q1362.45 189.554 1364.44 189.084 Q1366.44 188.614 1368.09 188.614 Q1372.46 188.614 1375.05 190.795 Q1377.65 192.977 1377.65 196.626 Q1377.65 198.356 1376.99 199.917 Q1376.35 201.459 1374.64 203.566 Q1374.17 204.111 1371.65 206.725 Q1369.13 209.321 1364.54 214.004 Z" fill="#000000" fill-rule="evenodd" fill-opacity="1" /><path clip-path="url(#clip060)" d="M1690.51 140.677 L1690.51 145.654 Q1688.25 144.41 1685.97 143.802 Q1683.71 143.165 1681.4 143.165 Q1676.22 143.165 1673.35 146.464 Q1670.49 149.734 1670.49 155.665 Q1670.49 161.597 1673.35 164.896 Q1676.22 168.165 1681.4 168.165 Q1683.71 168.165 1685.97 167.558 Q1688.25 166.921 1690.51 165.677 L1690.51 170.596 Q1688.28 171.637 1685.88 172.158 Q1683.51 172.679 1680.82 172.679 Q1673.5 172.679 1669.19 168.078 Q1664.88 163.478 1664.88 155.665 Q1664.88 147.737 1669.22 143.194 Q1673.58 138.652 1681.17 138.652 Q1683.63 138.652 1685.97 139.172 Q1688.31 139.664 1690.51 140.677 Z" fill="#000000" fill-rule="evenodd" fill-opacity="1" /><path clip-path="url(#clip060)" d="M1726.71 152.28 L1726.71 171.84 L1721.39 171.84 L1721.39 152.454 Q1721.39 147.853 1719.59 145.567 Q1717.8 143.281 1714.21 143.281 Q1709.9 143.281 1707.41 146.03 Q1704.92 148.779 1704.92 153.524 L1704.92 171.84 L1699.57 171.84 L1699.57 126.817 L1704.92 126.817 L1704.92 144.467 Q1706.83 141.545 1709.41 140.098 Q1712.01 138.652 1715.4 138.652 Q1720.98 138.652 1723.85 142.124 Q1726.71 145.567 1726.71 152.28 Z" fill="#000000" fill-rule="evenodd" fill-opacity="1" /><path clip-path="url(#clip060)" d="M1736.78 159.051 L1736.78 139.433 L1742.1 139.433 L1742.1 158.848 Q1742.1 163.449 1743.9 165.764 Q1745.69 168.05 1749.28 168.05 Q1753.59 168.05 1756.08 165.301 Q1758.6 162.552 1758.6 157.807 L1758.6 139.433 L1763.92 139.433 L1763.92 171.84 L1758.6 171.84 L1758.6 166.863 Q1756.66 169.815 1754.08 171.261 Q1751.54 172.679 1748.15 172.679 Q1742.57 172.679 1739.67 169.207 Q1736.78 165.735 1736.78 159.051 M1750.18 138.652 L1750.18 138.652 Z" fill="#000000" fill-rule="evenodd" fill-opacity="1" /><path clip-path="url(#clip060)" d="M1801.82 152.28 L1801.82 171.84 L1796.5 171.84 L1796.5 152.454 Q1796.5 147.853 1794.71 145.567 Q1792.91 143.281 1789.32 143.281 Q1785.01 143.281 1782.53 146.03 Q1780.04 148.779 1780.04 153.524 L1780.04 171.84 L1774.68 171.84 L1774.68 139.433 L1780.04 139.433 L1780.04 144.467 Q1781.95 141.545 1784.52 140.098 Q1787.13 138.652 1790.51 138.652 Q1796.1 138.652 1798.96 142.124 Q1801.82 145.567 1801.82 152.28 Z" fill="#000000" fill-rule="evenodd" fill-opacity="1" /><path clip-path="url(#clip060)" d="M1812.24 126.817 L1817.59 126.817 L1817.59 153.408 L1833.48 139.433 L1840.28 139.433 L1823.09 154.595 L1841 171.84 L1834.06 171.84 L1817.59 156.013 L1817.59 171.84 L1812.24 171.84 L1812.24 126.817 Z" fill="#000000" fill-rule="evenodd" fill-opacity="1" /><path clip-path="url(#clip060)" d="M1867.42 140.388 L1867.42 145.422 Q1865.16 144.265 1862.73 143.686 Q1860.3 143.108 1857.7 143.108 Q1853.73 143.108 1851.74 144.323 Q1849.77 145.538 1849.77 147.969 Q1849.77 149.82 1851.19 150.891 Q1852.61 151.933 1856.89 152.888 L1858.71 153.293 Q1864.38 154.508 1866.76 156.736 Q1869.16 158.935 1869.16 162.899 Q1869.16 167.413 1865.57 170.046 Q1862.01 172.679 1855.76 172.679 Q1853.16 172.679 1850.32 172.158 Q1847.51 171.666 1844.39 170.654 L1844.39 165.156 Q1847.34 166.69 1850.2 167.471 Q1853.07 168.223 1855.88 168.223 Q1859.64 168.223 1861.66 166.95 Q1863.69 165.648 1863.69 163.304 Q1863.69 161.134 1862.21 159.977 Q1860.77 158.819 1855.82 157.749 L1853.97 157.315 Q1849.02 156.273 1846.82 154.132 Q1844.62 151.962 1844.62 148.2 Q1844.62 143.628 1847.86 141.14 Q1851.1 138.652 1857.06 138.652 Q1860.01 138.652 1862.62 139.086 Q1865.22 139.52 1867.42 140.388 Z" fill="#000000" fill-rule="evenodd" fill-opacity="1" /><path clip-path="url(#clip060)" d="M1877.63 139.433 L1882.96 139.433 L1882.96 171.84 L1877.63 171.84 L1877.63 139.433 M1877.63 126.817 L1882.96 126.817 L1882.96 133.559 L1877.63 133.559 L1877.63 126.817 Z" fill="#000000" fill-rule="evenodd" fill-opacity="1" /><path clip-path="url(#clip060)" d="M1891.78 139.433 L1917.07 139.433 L1917.07 144.294 L1897.05 167.587 L1917.07 167.587 L1917.07 171.84 L1891.06 171.84 L1891.06 166.979 L1911.08 143.686 L1891.78 143.686 L1891.78 139.433 Z" fill="#000000" fill-rule="evenodd" fill-opacity="1" /><path clip-path="url(#clip060)" d="M1952.92 154.305 L1952.92 156.91 L1928.44 156.91 Q1928.79 162.407 1931.74 165.301 Q1934.72 168.165 1940.02 168.165 Q1943.09 168.165 1945.95 167.413 Q1948.84 166.661 1951.68 165.156 L1951.68 170.191 Q1948.81 171.406 1945.81 172.043 Q1942.8 172.679 1939.7 172.679 Q1931.95 172.679 1927.4 168.165 Q1922.89 163.651 1922.89 155.955 Q1922.89 147.998 1927.17 143.339 Q1931.48 138.652 1938.77 138.652 Q1945.31 138.652 1949.1 142.876 Q1952.92 147.072 1952.92 154.305 M1947.6 152.743 Q1947.54 148.374 1945.14 145.77 Q1942.77 143.165 1938.83 143.165 Q1934.38 143.165 1931.69 145.683 Q1929.02 148.2 1928.62 152.772 L1947.6 152.743 Z" fill="#000000" fill-rule="evenodd" fill-opacity="1" /><path clip-path="url(#clip060)" d="M1963.02 164.491 L1969.13 164.491 L1969.13 171.84 L1963.02 171.84 L1963.02 164.491 M1963.02 141.198 L1969.13 141.198 L1969.13 148.547 L1963.02 148.547 L1963.02 141.198 Z" fill="#000000" fill-rule="evenodd" fill-opacity="1" /><path clip-path="url(#clip060)" d="M2002.23 166.921 L2011.78 166.921 L2011.78 133.964 L2001.39 136.047 L2001.39 130.723 L2011.72 128.64 L2017.56 128.64 L2017.56 166.921 L2027.11 166.921 L2027.11 171.84 L2002.23 171.84 L2002.23 166.921 Z" fill="#000000" fill-rule="evenodd" fill-opacity="1" /><path clip-path="url(#clip060)" d="M2065.89 154.305 L2065.89 156.91 L2041.41 156.91 Q2041.75 162.407 2044.71 165.301 Q2047.69 168.165 2052.98 168.165 Q2056.05 168.165 2058.91 167.413 Q2061.81 166.661 2064.64 165.156 L2064.64 170.191 Q2061.78 171.406 2058.77 172.043 Q2055.76 172.679 2052.66 172.679 Q2044.91 172.679 2040.37 168.165 Q2035.85 163.651 2035.85 155.955 Q2035.85 147.998 2040.13 143.339 Q2044.45 138.652 2051.74 138.652 Q2058.28 138.652 2062.07 142.876 Q2065.89 147.072 2065.89 154.305 M2060.56 152.743 Q2060.5 148.374 2058.1 145.77 Q2055.73 143.165 2051.79 143.165 Q2047.34 143.165 2044.65 145.683 Q2041.99 148.2 2041.58 152.772 L2060.56 152.743 Z" fill="#000000" fill-rule="evenodd" fill-opacity="1" /><path clip-path="url(#clip060)" d="M2073.9 128.64 L2101.68 128.64 L2101.68 131.128 L2086 171.84 L2079.89 171.84 L2094.65 133.559 L2073.9 133.559 L2073.9 128.64 Z" fill="#000000" fill-rule="evenodd" fill-opacity="1" /><polyline clip-path="url(#clip063)" style="stroke:#009af9; stroke-linecap:butt; stroke-linejoin:round; stroke-width:4; stroke-opacity:1; fill:none" points="
  1440.37,990.618 1735.64,816.425 2030.91,757.541 2237.3,629.924 2326.18,571.7 
  "/>
<polyline clip-path="url(#clip063)" style="stroke:#e26f46; stroke-linecap:butt; stroke-linejoin:round; stroke-width:4; stroke-opacity:1; fill:none" points="
  1440.37,757.128 1735.64,587.277 2030.91,478.175 2237.3,338.1 2326.18,239.199 
  "/>
<polyline clip-path="url(#clip063)" style="stroke:#3da44d; stroke-linecap:butt; stroke-linejoin:round; stroke-width:4; stroke-opacity:1; fill:none" points="
  1440.37,1015.19 1735.64,821.31 2030.91,625.5 2237.3,488.777 2326.18,416.036 
  "/>
<path clip-path="url(#clip060)" d="
M239.492 120 L2352.76 120 L2352.76 0 L239.492 0  Z
  " fill="#ffffff" fill-rule="evenodd" fill-opacity="1"/>
<defs>
  <clipPath id="clip064">
    <rect x="239" y="0" width="2114" height="121"/>
  </clipPath>
</defs>
<path clip-path="url(#clip060)" d="M717.701 50.5368 Q720.71 51.5553 723.535 54.8886 Q726.405 58.2219 729.275 64.0552 L738.766 82.944 L728.72 82.944 L719.877 65.2126 Q716.451 58.2682 713.21 55.9997 Q710.016 53.7312 704.461 53.7312 L694.275 53.7312 L694.275 82.944 L684.924 82.944 L684.924 13.824 L706.035 13.824 Q717.886 13.824 723.72 18.7777 Q729.553 23.7314 729.553 33.7313 Q729.553 40.259 726.497 44.5646 Q723.488 48.8701 717.701 50.5368 M694.275 21.5091 L694.275 46.046 L706.035 46.046 Q712.794 46.046 716.22 42.9442 Q719.692 39.7961 719.692 33.7313 Q719.692 27.6665 716.22 24.611 Q712.794 21.5091 706.035 21.5091 L694.275 21.5091 Z" fill="#000000" fill-rule="evenodd" fill-opacity="1" /><path clip-path="url(#clip060)" d="M790.525 54.8886 L790.525 59.0552 L751.358 59.0552 Q751.914 67.8515 756.636 72.4811 Q761.405 77.0644 769.877 77.0644 Q774.784 77.0644 779.368 75.8607 Q783.997 74.657 788.534 72.2496 L788.534 80.3051 Q783.951 82.2496 779.136 83.2681 Q774.321 84.2866 769.368 84.2866 Q756.96 84.2866 749.692 77.0644 Q742.47 69.8422 742.47 57.5275 Q742.47 44.7961 749.321 37.3424 Q756.22 29.8424 767.886 29.8424 Q778.349 29.8424 784.414 36.6017 Q790.525 43.3146 790.525 54.8886 M782.006 52.3886 Q781.914 45.3979 778.071 41.2313 Q774.275 37.0646 767.979 37.0646 Q760.849 37.0646 756.544 41.0924 Q752.284 45.1201 751.636 52.4349 L782.006 52.3886 Z" fill="#000000" fill-rule="evenodd" fill-opacity="1" /><path clip-path="url(#clip060)" d="M838.626 38.9628 L838.626 10.9073 L847.145 10.9073 L847.145 82.944 L838.626 82.944 L838.626 75.1663 Q835.941 79.7959 831.821 82.0644 Q827.747 84.2866 822.006 84.2866 Q812.608 84.2866 806.682 76.7866 Q800.803 69.2867 800.803 57.0645 Q800.803 44.8424 806.682 37.3424 Q812.608 29.8424 822.006 29.8424 Q827.747 29.8424 831.821 32.1109 Q835.941 34.3331 838.626 38.9628 M809.599 57.0645 Q809.599 66.4626 813.441 71.8329 Q817.33 77.157 824.09 77.157 Q830.849 77.157 834.738 71.8329 Q838.626 66.4626 838.626 57.0645 Q838.626 47.6664 834.738 42.3424 Q830.849 36.972 824.09 36.972 Q817.33 36.972 813.441 42.3424 Q809.599 47.6664 809.599 57.0645 Z" fill="#000000" fill-rule="evenodd" fill-opacity="1" /><path clip-path="url(#clip060)" d="M863.812 62.4811 L863.812 31.0924 L872.33 31.0924 L872.33 62.1571 Q872.33 69.5181 875.2 73.2218 Q878.071 76.8792 883.811 76.8792 Q890.71 76.8792 894.691 72.4811 Q898.719 68.083 898.719 60.4904 L898.719 31.0924 L907.237 31.0924 L907.237 82.944 L898.719 82.944 L898.719 74.9811 Q895.617 79.7033 891.497 82.0181 Q887.423 84.2866 882.006 84.2866 Q873.071 84.2866 868.441 78.7311 Q863.812 73.1755 863.812 62.4811 M885.247 29.8424 L885.247 29.8424 Z" fill="#000000" fill-rule="evenodd" fill-opacity="1" /><path clip-path="url(#clip060)" d="M962.098 33.0832 L962.098 41.0461 Q958.487 39.0553 954.83 38.0831 Q951.218 37.0646 947.515 37.0646 Q939.228 37.0646 934.644 42.3424 Q930.061 47.5738 930.061 57.0645 Q930.061 66.5552 934.644 71.8329 Q939.228 77.0644 947.515 77.0644 Q951.218 77.0644 954.83 76.0922 Q958.487 75.0737 962.098 73.0829 L962.098 80.9533 Q958.533 82.6199 954.691 83.4533 Q950.894 84.2866 946.589 84.2866 Q934.876 84.2866 927.978 76.9255 Q921.08 69.5644 921.08 57.0645 Q921.08 44.3794 928.024 37.1109 Q935.015 29.8424 947.144 29.8424 Q951.08 29.8424 954.83 30.6758 Q958.58 31.4628 962.098 33.0832 Z" fill="#000000" fill-rule="evenodd" fill-opacity="1" /><path clip-path="url(#clip060)" d="M985.339 16.3703 L985.339 31.0924 L1002.88 31.0924 L1002.88 37.7128 L985.339 37.7128 L985.339 65.8608 Q985.339 72.2033 987.052 74.0089 Q988.811 75.8144 994.135 75.8144 L1002.88 75.8144 L1002.88 82.944 L994.135 82.944 Q984.274 82.944 980.524 79.2866 Q976.774 75.5829 976.774 65.8608 L976.774 37.7128 L970.524 37.7128 L970.524 31.0924 L976.774 31.0924 L976.774 16.3703 L985.339 16.3703 Z" fill="#000000" fill-rule="evenodd" fill-opacity="1" /><path clip-path="url(#clip060)" d="M1014.09 31.0924 L1022.61 31.0924 L1022.61 82.944 L1014.09 82.944 L1014.09 31.0924 M1014.09 10.9073 L1022.61 10.9073 L1022.61 21.6943 L1014.09 21.6943 L1014.09 10.9073 Z" fill="#000000" fill-rule="evenodd" fill-opacity="1" /><path clip-path="url(#clip060)" d="M1060.52 37.0646 Q1053.67 37.0646 1049.69 42.435 Q1045.71 47.759 1045.71 57.0645 Q1045.71 66.37 1049.64 71.7404 Q1053.63 77.0644 1060.52 77.0644 Q1067.33 77.0644 1071.31 71.6941 Q1075.29 66.3237 1075.29 57.0645 Q1075.29 47.8516 1071.31 42.4813 Q1067.33 37.0646 1060.52 37.0646 M1060.52 29.8424 Q1071.63 29.8424 1077.98 37.0646 Q1084.32 44.2868 1084.32 57.0645 Q1084.32 69.7959 1077.98 77.0644 Q1071.63 84.2866 1060.52 84.2866 Q1049.37 84.2866 1043.02 77.0644 Q1036.73 69.7959 1036.73 57.0645 Q1036.73 44.2868 1043.02 37.0646 Q1049.37 29.8424 1060.52 29.8424 Z" fill="#000000" fill-rule="evenodd" fill-opacity="1" /><path clip-path="url(#clip060)" d="M1141.54 51.6479 L1141.54 82.944 L1133.02 82.944 L1133.02 51.9256 Q1133.02 44.5646 1130.15 40.9072 Q1127.28 37.2498 1121.54 37.2498 Q1114.64 37.2498 1110.66 41.6479 Q1106.68 46.046 1106.68 53.6386 L1106.68 82.944 L1098.12 82.944 L1098.12 31.0924 L1106.68 31.0924 L1106.68 39.1479 Q1109.74 34.472 1113.86 32.1572 Q1118.02 29.8424 1123.44 29.8424 Q1132.37 29.8424 1136.96 35.398 Q1141.54 40.9072 1141.54 51.6479 Z" fill="#000000" fill-rule="evenodd" fill-opacity="1" /><path clip-path="url(#clip060)" d="M1160.71 71.1848 L1170.48 71.1848 L1170.48 82.944 L1160.71 82.944 L1160.71 71.1848 M1160.71 33.9165 L1170.48 33.9165 L1170.48 45.6757 L1160.71 45.6757 L1160.71 33.9165 Z" fill="#000000" fill-rule="evenodd" fill-opacity="1" /><path clip-path="url(#clip060)" d="M1244.18 56.8793 Q1233.86 56.8793 1229.87 59.2404 Q1225.89 61.6015 1225.89 67.2959 Q1225.89 71.8329 1228.86 74.5181 Q1231.87 77.157 1237 77.157 Q1244.09 77.157 1248.35 72.157 Q1252.65 67.1108 1252.65 58.7775 L1252.65 56.8793 L1244.18 56.8793 M1261.17 53.3608 L1261.17 82.944 L1252.65 82.944 L1252.65 75.0737 Q1249.74 79.7959 1245.38 82.0644 Q1241.03 84.2866 1234.74 84.2866 Q1226.77 84.2866 1222.05 79.8422 Q1217.37 75.3514 1217.37 67.8515 Q1217.37 59.1015 1223.21 54.6571 Q1229.09 50.2127 1240.71 50.2127 L1252.65 50.2127 L1252.65 49.3794 Q1252.65 43.4998 1248.76 40.3053 Q1244.92 37.0646 1237.93 37.0646 Q1233.49 37.0646 1229.27 38.1294 Q1225.06 39.1942 1221.17 41.3239 L1221.17 33.4535 Q1225.85 31.648 1230.24 30.7684 Q1234.64 29.8424 1238.81 29.8424 Q1250.06 29.8424 1255.61 35.6757 Q1261.17 41.509 1261.17 53.3608 Z" fill="#000000" fill-rule="evenodd" fill-opacity="1" /><path clip-path="url(#clip060)" d="M1278.72 10.9073 L1287.24 10.9073 L1287.24 82.944 L1278.72 82.944 L1278.72 10.9073 Z" fill="#000000" fill-rule="evenodd" fill-opacity="1" /><path clip-path="url(#clip060)" d="M1305.06 10.9073 L1313.58 10.9073 L1313.58 82.944 L1305.06 82.944 L1305.06 10.9073 Z" fill="#000000" fill-rule="evenodd" fill-opacity="1" /><path clip-path="url(#clip060)" d="M1398.85 33.0832 L1398.85 41.0461 Q1395.24 39.0553 1391.59 38.0831 Q1387.98 37.0646 1384.27 37.0646 Q1375.98 37.0646 1371.4 42.3424 Q1366.82 47.5738 1366.82 57.0645 Q1366.82 66.5552 1371.4 71.8329 Q1375.98 77.0644 1384.27 77.0644 Q1387.98 77.0644 1391.59 76.0922 Q1395.24 75.0737 1398.85 73.0829 L1398.85 80.9533 Q1395.29 82.6199 1391.45 83.4533 Q1387.65 84.2866 1383.35 84.2866 Q1371.63 84.2866 1364.73 76.9255 Q1357.84 69.5644 1357.84 57.0645 Q1357.84 44.3794 1364.78 37.1109 Q1371.77 29.8424 1383.9 29.8424 Q1387.84 29.8424 1391.59 30.6758 Q1395.34 31.4628 1398.85 33.0832 Z" fill="#000000" fill-rule="evenodd" fill-opacity="1" /><path clip-path="url(#clip060)" d="M1433.76 37.0646 Q1426.91 37.0646 1422.93 42.435 Q1418.95 47.759 1418.95 57.0645 Q1418.95 66.37 1422.88 71.7404 Q1426.86 77.0644 1433.76 77.0644 Q1440.57 77.0644 1444.55 71.6941 Q1448.53 66.3237 1448.53 57.0645 Q1448.53 47.8516 1444.55 42.4813 Q1440.57 37.0646 1433.76 37.0646 M1433.76 29.8424 Q1444.87 29.8424 1451.22 37.0646 Q1457.56 44.2868 1457.56 57.0645 Q1457.56 69.7959 1451.22 77.0644 Q1444.87 84.2866 1433.76 84.2866 Q1422.6 84.2866 1416.26 77.0644 Q1409.97 69.7959 1409.97 57.0645 Q1409.97 44.2868 1416.26 37.0646 Q1422.6 29.8424 1433.76 29.8424 Z" fill="#000000" fill-rule="evenodd" fill-opacity="1" /><path clip-path="url(#clip060)" d="M1471.68 10.9073 L1480.2 10.9073 L1480.2 82.944 L1471.68 82.944 L1471.68 10.9073 Z" fill="#000000" fill-rule="evenodd" fill-opacity="1" /><path clip-path="url(#clip060)" d="M1497.14 62.4811 L1497.14 31.0924 L1505.66 31.0924 L1505.66 62.1571 Q1505.66 69.5181 1508.53 73.2218 Q1511.4 76.8792 1517.14 76.8792 Q1524.04 76.8792 1528.02 72.4811 Q1532.05 68.083 1532.05 60.4904 L1532.05 31.0924 L1540.57 31.0924 L1540.57 82.944 L1532.05 82.944 L1532.05 74.9811 Q1528.95 79.7033 1524.83 82.0181 Q1520.75 84.2866 1515.34 84.2866 Q1506.4 84.2866 1501.77 78.7311 Q1497.14 73.1755 1497.14 62.4811 M1518.58 29.8424 L1518.58 29.8424 Z" fill="#000000" fill-rule="evenodd" fill-opacity="1" /><path clip-path="url(#clip060)" d="M1598.48 41.0461 Q1601.68 35.3054 1606.12 32.5739 Q1610.57 29.8424 1616.59 29.8424 Q1624.69 29.8424 1629.09 35.5368 Q1633.48 41.185 1633.48 51.6479 L1633.48 82.944 L1624.92 82.944 L1624.92 51.9256 Q1624.92 44.472 1622.28 40.8609 Q1619.64 37.2498 1614.22 37.2498 Q1607.6 37.2498 1603.76 41.6479 Q1599.92 46.046 1599.92 53.6386 L1599.92 82.944 L1591.35 82.944 L1591.35 51.9256 Q1591.35 44.4257 1588.72 40.8609 Q1586.08 37.2498 1580.57 37.2498 Q1574.04 37.2498 1570.2 41.6942 Q1566.35 46.0923 1566.35 53.6386 L1566.35 82.944 L1557.79 82.944 L1557.79 31.0924 L1566.35 31.0924 L1566.35 39.1479 Q1569.27 34.3794 1573.34 32.1109 Q1577.42 29.8424 1583.02 29.8424 Q1588.67 29.8424 1592.6 32.7128 Q1596.59 35.5831 1598.48 41.0461 Z" fill="#000000" fill-rule="evenodd" fill-opacity="1" /><path clip-path="url(#clip060)" d="M1693.58 51.6479 L1693.58 82.944 L1685.06 82.944 L1685.06 51.9256 Q1685.06 44.5646 1682.19 40.9072 Q1679.32 37.2498 1673.58 37.2498 Q1666.68 37.2498 1662.7 41.6479 Q1658.71 46.046 1658.71 53.6386 L1658.71 82.944 L1650.15 82.944 L1650.15 31.0924 L1658.71 31.0924 L1658.71 39.1479 Q1661.77 34.472 1665.89 32.1572 Q1670.06 29.8424 1675.47 29.8424 Q1684.41 29.8424 1688.99 35.398 Q1693.58 40.9072 1693.58 51.6479 Z" fill="#000000" fill-rule="evenodd" fill-opacity="1" /><path clip-path="url(#clip060)" d="M1743.62 32.6202 L1743.62 40.6757 Q1740.01 38.8239 1736.12 37.8979 Q1732.23 36.972 1728.07 36.972 Q1721.72 36.972 1718.53 38.9165 Q1715.38 40.8609 1715.38 44.7498 Q1715.38 47.7127 1717.65 49.4257 Q1719.92 51.0923 1726.77 52.6201 L1729.69 53.2682 Q1738.76 55.2127 1742.56 58.7775 Q1746.4 62.296 1746.4 68.6385 Q1746.4 75.8607 1740.66 80.0736 Q1734.96 84.2866 1724.96 84.2866 Q1720.8 84.2866 1716.26 83.4533 Q1711.77 82.6662 1706.77 81.0459 L1706.77 72.2496 Q1711.49 74.7033 1716.08 75.9533 Q1720.66 77.157 1725.15 77.157 Q1731.17 77.157 1734.41 75.12 Q1737.65 73.0366 1737.65 69.2867 Q1737.65 65.8145 1735.29 63.9626 Q1732.97 62.1108 1725.06 60.3978 L1722.09 59.7034 Q1714.18 58.0367 1710.66 54.6108 Q1707.14 51.1386 1707.14 45.1201 Q1707.14 37.8054 1712.33 33.8239 Q1717.51 29.8424 1727.05 29.8424 Q1731.77 29.8424 1735.94 30.5369 Q1740.1 31.2313 1743.62 32.6202 Z" fill="#000000" fill-rule="evenodd" fill-opacity="1" /><path clip-path="url(#clip060)" d="M1810.57 10.9999 Q1804.36 21.648 1801.35 32.0646 Q1798.34 42.4813 1798.34 53.1756 Q1798.34 63.87 1801.35 74.3792 Q1804.41 84.8421 1810.57 95.4439 L1803.16 95.4439 Q1796.21 84.5644 1792.74 74.0552 Q1789.32 63.546 1789.32 53.1756 Q1789.32 42.8516 1792.74 32.3887 Q1796.17 21.9258 1803.16 10.9999 L1810.57 10.9999 Z" fill="#000000" fill-rule="evenodd" fill-opacity="1" /><path clip-path="url(#clip060)" d="M1853.99 21.9721 L1830.38 58.8701 L1853.99 58.8701 L1853.99 21.9721 M1851.54 13.824 L1863.3 13.824 L1863.3 58.8701 L1873.16 58.8701 L1873.16 66.6478 L1863.3 66.6478 L1863.3 82.944 L1853.99 82.944 L1853.99 66.6478 L1822.79 66.6478 L1822.79 57.6201 L1851.54 13.824 Z" fill="#000000" fill-rule="evenodd" fill-opacity="1" /><path clip-path="url(#clip060)" d="M1886.07 10.9999 L1893.48 10.9999 Q1900.43 21.9258 1903.85 32.3887 Q1907.32 42.8516 1907.32 53.1756 Q1907.32 63.546 1903.85 74.0552 Q1900.43 84.5644 1893.48 95.4439 L1886.07 95.4439 Q1892.23 84.8421 1895.24 74.3792 Q1898.3 63.87 1898.3 53.1756 Q1898.3 42.4813 1895.24 32.0646 Q1892.23 21.648 1886.07 10.9999 Z" fill="#000000" fill-rule="evenodd" fill-opacity="1" /></svg>
